<?xml version="1.0" standalone="no"?><!DOCTYPE svg PUBLIC "-//W3C//DTD SVG 1.1//EN" "http://www.w3.org/Graphics/SVG/1.1/DTD/svg11.dtd"><svg t="1536826927853" class="icon" style="" viewBox="0 0 1672 1024" version="1.1" xmlns="http://www.w3.org/2000/svg" p-id="16886" xmlns:xlink="http://www.w3.org/1999/xlink" width="104.5" height="64"><defs><style type="text/css"></style></defs><path d="M1178.499809 277.139412l-10.712595 62.920168 10.712595 90.060919v79.96887l-10.712595 61.581093-5.356298 73.632763-12.035339 13.864319-108.448698 12.917169-30.798711-22.764265 11.953689-103.0924 16.166874-71.62415-16.166874-66.267854-11.953689-73.632762 11.953689-57.56387h155.397952zM428.797771 277.139412l10.712595 62.920168-10.712595 90.060919v79.96887l10.712595 61.581093 5.356298 73.632763 12.035339 13.864319 108.448697 12.917169 30.782382-22.764265-11.937359-103.0924-16.166874-71.62415 16.166874-66.267854 11.937359-73.632762-11.937359-57.56387h-155.397952z" fill="#F1F9FF" p-id="16887"></path><path d="M1210.278331 0.01633H348.567618a62.544573 62.544573 0 0 0-62.381272 62.593564V657.469205a62.593564 62.593564 0 0 0 62.381272 62.593564h46.867604a66.953721 66.953721 0 0 0 15.856601 25.622046 15.285044 15.285044 0 0 0 7.005645 4.131534c78.139891 20.314739 97.54014 45.56119 102.145249 58.788633a30.815042 30.815042 0 0 1-3.886582 27.173412 15.023762 15.023762 0 0 0 2.514847 20.935286 14.87679 14.87679 0 0 0 21.016937-2.416866 60.944216 60.944216 0 0 0 8.850955-54.885721c-11.10452-33.182917-51.06446-59.278538-118.769368-77.503014-5.61758-6.711702-7.332249-12.231302-7.332249-16.73843 0-6.009505 3.804931-12.03534 10.565623-17.244666a5.846203 5.846203 0 0 0 0.636877-0.457245 51.309412 51.309412 0 0 1 6.532071-4.082544c0.571556-0.326604 1.126782-0.587886 1.633017-0.865499a86.043696 86.043696 0 0 1 9.422512-3.72328 125.170797 125.170797 0 0 1 29.508627-2.939432c26.128281 0 56.68204 5.160336 90.665136 15.203394 5.682901 2.482187 11.431123 5.062354 17.097694 8.165088 1.730999 0.93082 3.461997 1.910631 5.209326 2.939432 7.201608 4.049884 14.403215 8.491691 21.653813 13.488725 0.620547 0.440915 1.224763 0.751188 1.86164 1.192102 114.31123 80.524097 101.541033 121.153574 101.639014 121.153574a14.974771 14.974771 0 0 0 13.178452 22.029407 14.8278 14.8278 0 0 0 13.211112-8.018116c4.703091-8.916276 20.347399-53.88958-74.481932-131.898829h264.548847c-94.845661 78.0909-79.250343 123.015214-74.547252 131.898829a15.644308 15.644308 0 0 0 13.717348 8.295729 14.109272 14.109272 0 0 0 6.695372-1.633017 14.697158 14.697158 0 0 0 6.434089-19.841164c-0.163302-0.391924-13.570376-41.021401 101.24709-121.937422a266.018563 266.018563 0 0 1 23.907377-14.942111c1.437055-0.800179 2.906771-1.633018 4.327496-2.416866 5.976844-3.184384 11.872038-5.878863 17.783562-8.459031 33.868784-9.977737 64.340892-15.138073 90.436513-15.138073a127.555003 127.555003 0 0 1 29.394316 2.906772 76.882467 76.882467 0 0 1 9.504163 3.7886c0.555226 0.277613 1.077792 0.538896 1.633017 0.767519a50.084649 50.084649 0 0 1 6.875004 4.343826l0.261283 0.195962c6.842344 5.209326 10.614614 11.267821 10.647275 17.293657v0.244952c0 4.441808-1.81265 9.928747-7.348579 16.575129-67.737569 18.240806-107.664849 44.336427-118.753038 77.503014a60.764584 60.764584 0 0 0 8.850955 54.85306 14.958441 14.958441 0 1 0 23.401142-18.632731 30.766051 30.766051 0 0 1-3.919243-26.683507c4.425478-13.309093 23.662425-38.718847 102.275891-59.180557a14.697158 14.697158 0 0 0 7.021976-4.147864 66.496476 66.496476 0 0 0 15.87293-25.752687 62.446592 62.446592 0 0 0 60.976877-62.430262V62.593564A62.397602 62.397602 0 0 0 1210.14769 0zM574.675231 572.617612c18.453099 47.765764 7.087296 74.971837-0.653207 86.549932-1.339074-0.538896-2.661819-1.028801-3.968233-1.518707a235.154531 235.154531 0 0 0-51.358403-13.243772c-1.404395-0.163302-2.80879-0.375594-4.229515-0.555226a207.262591 207.262591 0 0 0-22.241699-1.388065c-1.633018 0-3.168054 0.081651-4.784742 0.163302-5.944184 0.146972-11.708736 0.571556-17.228335 1.257423-1.453386 0.179632-2.955762 0.310273-4.392818 0.522566-1.159442 0.179632-2.237234 0.473575-3.380346 0.653207 5.225656-24.838197 8.736644-61.532102-7.544541-86.092687-17.456958-26.454885-21.523172-107.909801-0.310274-169.425573 9.112238-26.503875-1.87797-74.36762-9.651133-101.720665h133.025611c5.61758 19.824833 15.203394 70.219756-7.299588 133.80946l-1.633018 4.441808c-10.908557 30.439448-24.495264 68.325455 5.682901 146.595988z m577.598316-13.733677c-16.330176 24.593245-12.786528 61.270819-7.593532 86.125346-1.159442-0.228622-2.237234-0.506235-3.429337-0.653207s-1.975951-0.212292-3.004752-0.359263a173.099863 173.099863 0 0 0-19.449239-1.437056c-0.89816 0-1.763659-0.081651-2.661819-0.081651-24.985169-0.130641-53.252703 4.899053-83.038944 16.68944-7.773164-11.512774-19.138966-38.735177-0.685867-86.549932 30.178165-78.384844 16.558798-116.205531 5.61758-146.677638l-1.633017-4.360157c-22.519312-63.687685-12.884509-113.984627-7.266928-133.80946h133.090932c-7.805824 27.353044-18.812362 75.216789-9.651134 101.720665 21.229228 61.564763 17.130354 143.052339-0.293943 169.392913z m59.294868 131.114981a51.358403 51.358403 0 0 0-9.667464-16.509808c-0.620547-0.685867-1.371735-1.339074-1.992282-2.008612-0.244953-0.261283-0.522566-0.473575-0.734857-0.718527a64.602175 64.602175 0 0 0-7.4139-6.532071c-0.832839-0.653207-1.730999-1.306414-2.612828-1.943291a77.911268 77.911268 0 0 0-6.842344-4.262176c-1.012471-0.587886-1.87797-1.290084-2.972092-1.86164-0.326604-0.179632-0.734858-0.261283-1.077792-0.440914a0.244953 0.244953 0 0 0-0.081651 0c-5.682901-19.204287-14.109272-60.601282-1.045131-80.197493 24.870858-37.559404 26.569196-129.106369 3.641629-195.815138-6.189137-17.963193 3.445667-62.136319 12.590566-91.938889h5.862533a14.991101 14.991101 0 0 0 0-29.965873H1005.563248a14.974771 14.974771 0 0 0-14.958441 14.991102 14.8278 14.8278 0 0 0 8.165088 13.194782c-6.728032 26.732498-13.92964 79.478965 9.471502 145.632507l1.633017 4.539789c9.798105 27.075431 20.771984 57.776162-5.372628 125.628042-21.229228 54.967372-10.108379 90.812107 1.192103 110.000064a321.214557 321.214557 0 0 0-30.129174 18.208146H631.732865c-0.94715-0.669537-1.910631-1.126782-2.906771-1.763659-8.165088-5.519599-16.330176-10.467643-24.495264-14.893121-0.979811-0.522566-1.975951-1.192103-2.988422-1.730998 11.316812-19.220617 22.405001-55.032692 1.192103-109.918413-26.128281-67.721239-15.138073-98.405639-5.437949-125.513731l1.633018-4.588779c23.401142-66.169872 16.199534-118.883679 9.471502-145.599847a14.87679 14.87679 0 0 0-6.728033-28.185884H407.813495a14.991101 14.991101 0 0 0 0 29.982203h5.846203c9.128568 29.786241 18.779702 73.975696 12.606896 91.938889-22.584633 65.451344-20.837304 158.761969 3.641629 195.798808 12.949829 19.596211 4.572449 61.009537-1.077792 80.197493-0.359264 0.212292-0.832839 0.326604-1.192103 0.506235-1.208433 0.620547-2.155583 1.371735-3.266035 2.008612-2.237234 1.306414-4.392817 2.580168-6.401429 3.984563-0.979811 0.685867-1.943291 1.404395-2.906771 2.122922a69.599209 69.599209 0 0 0-7.152617 6.319778c-0.293943 0.310273-0.620547 0.587886-0.91449 0.91449-0.620547 0.620547-1.371735 1.257424-1.943291 1.910631a61.28715 61.28715 0 0 0-4.68676 6.53207 0.751188 0.751188 0 0 1-0.163302 0.212292 49.839696 49.839696 0 0 0-4.817402 9.798106h-46.867604a32.660351 32.660351 0 0 1-32.49705-32.660352V62.593564a32.660351 32.660351 0 0 1 32.49705-32.660352h861.743374a32.56237 32.56237 0 0 1 32.464389 32.660352V657.469205a32.56237 32.56237 0 0 1-31.157975 32.529711z" fill="#90999F" p-id="16888"></path><path d="M886.597918 569.759832c10.973878 10.614614-8.37738 22.486652-12.9335 16.330175a123.047874 123.047874 0 0 0-96.65831-47.194208c-37.298121 0-70.023794 16.73843-92.853379 43.389277-6.091156 6.091156-21.229228-7.854815-12.933499-17.963193a135.899723 135.899723 0 0 1 105.803208-49.480432c44.091475 0 84.492329 22.078398 109.60814 54.804069z" fill="#90999F" p-id="16889"></path><path d="M338.410248 961.798361c0 34.293369 197.415495 62.185309 440.914745 62.185309s440.914745-27.761299 440.914745-62.185309-197.415495-62.185309-440.914745-62.18531-440.914745 27.761299-440.914745 62.18531z" fill="#EAEAEA" p-id="16890"></path><path d="M1481.130626 682.258412a22.617293 22.617293 0 1 0 11.316812-19.596211 22.600963 22.600963 0 0 0-11.316812 19.596211" fill="#FFCC00" p-id="16891"></path><path d="M16.967069 461.78471H0.000016a16.967053 16.967053 0 1 0 8.475362-14.697159 16.950722 16.950722 0 0 0-8.475362 14.697159" fill="#FFCC00" p-id="16892"></path><path d="M1413.295076 540.937071a39.568016 39.568016 0 1 0-39.568016 39.568016 40.057921 40.057921 0 0 0 39.568016-39.568016z m-101.753325 0a62.185309 62.185309 0 1 1 62.185309 62.18531 62.740535 62.740535 0 0 1-62.185309-62.18531z" fill="#FFCC00" p-id="16893"></path><path d="M1458.513332 111.290148a39.568016 39.568016 0 1 0-39.568015 39.568015 40.057921 40.057921 0 0 0 39.568015-39.568015z m-56.535068 0a16.967053 16.967053 0 1 1 16.967053 16.950722 17.391637 17.391637 0 0 1-16.967053-16.967053zM1615.674944 398.472618h-19.220617a12.443594 12.443594 0 0 0 0 24.870858h19.220617V442.564093a12.443594 12.443594 0 0 0 24.870857 0v-19.220617h19.220617a12.443594 12.443594 0 1 0 0-24.870858h-19.220617v-19.220617a12.443594 12.443594 0 1 0-24.870857 0V398.472618z" fill="#FFCC00" p-id="16894"></path><path d="M237.440772 795.328549h-33.934106a11.333142 11.333142 0 0 0-11.300481 11.300482 10.679935 10.679935 0 0 0 11.300481 11.300481h33.934106v33.917775a11.333142 11.333142 0 0 0 11.300481 11.300482 10.679935 10.679935 0 0 0 11.300482-11.300482v-33.917775H293.94318a11.333142 11.333142 0 0 0 11.300481-11.300481 10.679935 10.679935 0 0 0-11.300481-11.300482h-33.901445v-33.917775a11.333142 11.333142 0 0 0-11.300482-11.300482 10.679935 10.679935 0 0 0-11.300481 11.300482v33.917775z" fill="#FFCC00" p-id="16895"></path></svg>