<?xml version="1.0" standalone="no"?><!DOCTYPE svg PUBLIC "-//W3C//DTD SVG 1.1//EN" "http://www.w3.org/Graphics/SVG/1.1/DTD/svg11.dtd"><svg t="1551753680289" class="icon" style="" viewBox="0 0 1024 1024" version="1.1" xmlns="http://www.w3.org/2000/svg" p-id="45244" xmlns:xlink="http://www.w3.org/1999/xlink" width="48" height="48"><defs><style type="text/css"></style></defs><path d="M999.913739 979.166609H23.863652c-13.156174 0-23.863652 10.039652-23.863652 22.394434C0 1013.938087 10.707478 1024 23.863652 1024h976.050087c13.178435 0 23.885913-10.061913 23.885913-22.438957 0-12.354783-10.707478-22.394435-23.885913-22.394434zM289.079652 222.72c0-12.55513-10.106435-22.706087-22.617043-22.706087H75.842783A76.087652 76.087652 0 0 0 0 276.168348v514.025739c0 42.829913 34.437565 77.668174 76.755478 77.668174h192.912696c12.666435 0 22.884174-10.351304 22.884174-23.151304m122.969043 23.151304h192.957218c42.317913 0 76.755478-34.838261 76.755478-77.668174L690.086957 77.601391C690.086957 34.816 654.692174 0 611.194435 0h-198.38887C369.307826 0 333.913043 34.816 333.913043 77.601391l4.875131 712.592696c0 42.829913 34.415304 77.668174 76.733217 77.668174z m315.904-23.151304c0 12.8 10.217739 23.151304 22.884174 23.151304h192.934957c42.317913 0 76.755478-34.838261 76.755478-77.668174V433.040696c0-42.384696-34.014609-76.844522-75.842783-76.844522h-190.664347c-12.488348 0-26.067478 1.157565-26.067479 13.801739" fill="#E83232" p-id="45245"></path><path d="M511.888696 167.780174v145.185391c0 13.022609 8.102957 20.791652 21.726608 20.791652 14.313739 0 22.839652-7.769043 22.839653-20.791652V129.625043c0-12.421565-7.724522-18.387478-22.194087-18.387478-4.452174 0-9.171478 0.623304-21.058783 11.620174-7.368348 6.92313-13.979826 11.152696-19.411478 12.443826-2.31513 0.489739-4.630261 1.024-6.923131 1.580522-16.784696 3.250087-19.300174 12.109913-19.300174 17.074087 0 17.16313 17.786435 24.709565 44.321392 13.824zM120.164174 446.018783c-14.825739 13.178435-26.735304 24.976696-35.417044 35.149913-12.644174 15.204174-18.276174 25.466435-18.276173 33.168695 0 6.054957 2.404174 20.079304 24.531478 20.079305h109.412174c13.690435 0 21.882435-7.257043 21.882434-19.411479 0-11.976348-8.192-19.099826-21.882434-19.099826H123.792696c6.834087-7.94713 14.825739-16.183652 23.908174-24.620521 5.654261-5.186783 18.053565-16.094609 37.175652-32.656696 24.175304-20.72487 36.441043-41.894957 36.441043-62.886957 0-20.346435-7.969391-36.574609-23.663304-48.239304-13.846261-10.373565-31.209739-15.649391-51.622957-15.649391-21.837913 0-40.403478 7.212522-55.184695 21.392695-14.647652 14.024348-22.082783 30.163478-22.082783 48.016696 0 13.178435 7.702261 21.058783 20.591304 21.058783 8.659478 0 14.558609-6.945391 17.474783-20.635826 2.114783-9.772522 6.544696-17.185391 13.712696-22.77287 7.078957-5.721043 15.426783-8.525913 25.488695-8.525913 9.906087 0 18.098087 2.114783 24.286609 6.233043 6.611478 4.541217 9.839304 10.796522 9.839304 19.122087 0 11.575652-7.746783 24.30887-22.906434 37.776696-12.399304 10.774261-24.754087 21.615304-37.086609 32.50087z m784.183652 175.994434a55.874783 55.874783 0 0 1-28.449391 7.41287c-21.014261 0-32.901565-7.969391-37.442783-25.177044-3.472696-12.065391-9.015652-18.16487-16.539826-18.164869-12.866783 0-20.257391 7.969391-20.257391 21.926956 0 19.055304 8.370087 34.304 24.84313 45.323131 13.979826 9.438609 30.586435 14.202435 49.39687 14.202435 20.569043 0 38.845217-5.453913 54.205217-16.161392 17.942261-12.265739 27.024696-29.117217 27.024696-50.064695 0-23.685565-9.839304-41.360696-29.295305-52.713739 17.563826-10.640696 26.468174-25.110261 26.468174-43.186087 0-20.346435-8.726261-36.262957-26.022956-47.34887-14.09113-8.704-31.49913-13.089391-51.734261-13.089391-16.272696 0-31.298783 4.563478-44.677565 13.556869-15.60487 10.618435-23.552 24.576-23.552 41.494261 0 12.911304 7.590957 20.635826 20.301913 20.635826 7.257043 0 12.889043-5.320348 16.717913-15.938782 5.008696-14.781217 14.937043-21.637565 31.209739-21.637566 9.97287 0 18.765913 1.691826 26.022957 5.075479 10.885565 5.231304 12.132174 11.820522 12.132173 16.317217 0 6.322087-1.691826 15.315478-16.584347 20.524522-6.989913 2.537739-18.877217 4.318609-35.283479 5.342609-19.812174 1.157565-22.750609 12.221217-22.750608 18.743652 0 5.721043 2.248348 19.055304 23.129043 19.055304 26.490435 0 37.798957 4.452174 42.607304 8.147478 7.880348 6.188522 11.731478 14.336 11.731479 25.021218 0 8.748522-4.207304 15.337739-13.200696 20.702608z" fill="#FFFFFF" p-id="45246"></path></svg>