<?xml version="1.0" standalone="no"?><!DOCTYPE svg PUBLIC "-//W3C//DTD SVG 1.1//EN" "http://www.w3.org/Graphics/SVG/1.1/DTD/svg11.dtd"><svg t="1536649564245" class="icon" style="" viewBox="0 0 1131 1024" version="1.1" xmlns="http://www.w3.org/2000/svg" p-id="4513" xmlns:xlink="http://www.w3.org/1999/xlink" width="53.015625" height="48"><defs><style type="text/css"></style></defs><path d="M199.68 542.72a465.92 465.92 0 1 0 931.84 0 465.92 465.92 0 1 0-931.84 0Z" fill="#FFDBD7" p-id="4514"></path><path d="M1013.76 506.88c0-276.48-225.28-506.88-506.88-506.88s-506.88 225.28-506.88 506.88 225.28 506.88 506.88 506.88c112.64 0 220.16-35.84 307.2-102.4 15.36-15.36 20.48-35.84 5.12-56.32s-35.84-20.48-56.32-5.12c-71.68 56.32-163.84 87.04-261.12 87.04-235.52 0-424.96-189.44-424.96-424.96s189.44-424.96 424.96-424.96 424.96 189.44 424.96 424.96c0 46.08-5.12 87.04-20.48 128-5.12 20.48 5.12 40.96 25.6 51.2 20.48 5.12 40.96-5.12 51.2-25.6 25.6-56.32 30.72-107.52 30.72-158.72z" fill="#F05B48" p-id="4515"></path><path d="M435.2 312.32c-20.48 20.48-30.72 46.08-35.84 76.8v5.12c0 15.36 10.24 25.6 25.6 25.6h30.72c10.24 0 15.36-5.12 15.36-15.36 0 0 0-30.72 15.36-46.08 10.24-15.36 30.72-25.6 56.32-25.6 20.48 0 35.84 5.12 51.2 15.36 10.24 10.24 15.36 25.6 15.36 46.08 0 15.36-5.12 30.72-15.36 46.08l-5.12 10.24c-40.96 35.84-66.56 61.44-71.68 76.8-10.24 15.36-10.24 35.84-10.24 61.44 0 5.12 5.12 10.24 15.36 10.24h40.96c10.24 0 15.36-5.12 15.36-10.24 0-15.36 5.12-25.6 10.24-40.96 5.12-10.24 15.36-20.48 25.6-30.72 30.72-25.6 46.08-40.96 51.2-51.2 15.36-20.48 20.48-46.08 20.48-76.8 0-35.84-10.24-66.56-35.84-87.04-25.6-20.48-56.32-30.72-97.28-30.72-56.32 0-92.16 15.36-117.76 40.96z m97.28 317.44c-15.36 0-25.6 5.12-35.84 15.36s-15.36 20.48-15.36 35.84c0 15.36 5.12 25.6 15.36 35.84 10.24 10.24 20.48 15.36 35.84 15.36 15.36 0 25.6-5.12 35.84-15.36s15.36-20.48 15.36-35.84c0-15.36-5.12-25.6-15.36-35.84-10.24-10.24-25.6-15.36-35.84-15.36z" fill="#F05B48" p-id="4516"></path></svg>