<?xml version="1.0" standalone="no"?><!DOCTYPE svg PUBLIC "-//W3C//DTD SVG 1.1//EN" "http://www.w3.org/Graphics/SVG/1.1/DTD/svg11.dtd"><svg t="1536650157192" class="icon" style="" viewBox="0 0 1049 1024" version="1.1" xmlns="http://www.w3.org/2000/svg" p-id="11815" xmlns:xlink="http://www.w3.org/1999/xlink" width="49.171875" height="48"><defs><style type="text/css"></style></defs><path d="M913.92 921.6V102.4c0-56.32-46.08-102.4-102.4-102.4h-691.2c-56.32 0-102.4 46.08-102.4 102.4v819.2c0 56.32 46.08 102.4 102.4 102.4H998.4l-87.04-87.04c0-5.12 2.56-10.24 2.56-15.36z" fill="#FF7C48" p-id="11816"></path><path d="M1011.2 371.2c-20.48 0-38.4 17.92-38.4 38.4v486.4c0 20.48 17.92 38.4 38.4 38.4S1049.6 916.48 1049.6 896V409.6c0-20.48-17.92-38.4-38.4-38.4z" fill="#FF7C48" p-id="11817"></path><path d="M358.4 409.6h-76.8c-56.32 0-102.4-46.08-102.4-102.4V230.4c0-56.32 46.08-102.4 102.4-102.4h76.8c56.32 0 102.4 46.08 102.4 102.4v76.8c0 56.32-46.08 102.4-102.4 102.4z" fill="#FFBFA5" p-id="11818"></path><path d="M709.12 627.2h-486.4c-28.16 0-51.2-23.04-51.2-51.2s23.04-51.2 51.2-51.2h486.4c28.16 0 51.2 23.04 51.2 51.2s-23.04 51.2-51.2 51.2zM709.12 806.4h-486.4c-28.16 0-51.2-23.04-51.2-51.2s23.04-51.2 51.2-51.2h486.4c28.16 0 51.2 23.04 51.2 51.2s-23.04 51.2-51.2 51.2z" fill="#FFED24" p-id="11819"></path></svg>