<?xml version="1.0" standalone="no"?><!DOCTYPE svg PUBLIC "-//W3C//DTD SVG 1.1//EN" "http://www.w3.org/Graphics/SVG/1.1/DTD/svg11.dtd"><svg t="1536649546960" class="icon" style="" viewBox="0 0 1024 1024" version="1.1" xmlns="http://www.w3.org/2000/svg" p-id="4386" xmlns:xlink="http://www.w3.org/1999/xlink" width="48" height="48"><defs><style type="text/css"></style></defs><path d="M928.768 124.928H95.232C51.2 124.928 15.36 160.768 15.36 204.8V844.8c0 44.032 35.84 79.872 79.872 79.872h833.024c44.032 0 79.872-35.84 79.872-79.872V204.8c0.512-44.032-35.328-79.872-79.36-79.872z" fill="#EA5455" p-id="4387"></path><path d="M880.64 380.928H143.36c-26.624 0-48.128 21.504-48.128 48.128V797.184c0 26.624 21.504 48.128 48.128 48.128h737.28c26.624 0 48.128-21.504 48.128-48.128V429.056c0-26.624-21.504-48.128-48.128-48.128z" fill="#FFFFFF" p-id="4388"></path><path d="M191.488 749.568h96.256v-96.256H191.488v96.256z m0-176.128h96.256V477.184H191.488V573.44z m288.256 79.872h-128v32.256h128v-32.256z m96.256-112.128H351.744v32.256h224.256v-32.256zM640 477.184H351.744v32.256H640v-32.256z m-15.872 96.256h208.384v-32.256h-208.384v32.256z m176.128-96.256h-112.128v32.256h144.384v-32.256h-32.256z m-272.384 208.384h304.64v-32.256h-304.64v32.256z m-176.128 64h256.512v-32.256H351.744v32.256z m304.64 0h176.128v-32.256h-176.128v32.256z" fill="#D5D5D5" p-id="4389"></path><path d="M143.36 204.8c-26.624 0-48.128 21.504-48.128 48.128s21.504 48.128 48.128 48.128 48.128-21.504 48.128-48.128S169.984 204.8 143.36 204.8z m144.384 0c-26.624 0-48.128 21.504-48.128 48.128s21.504 48.128 48.128 48.128 48.128-21.504 48.128-48.128-21.504-48.128-48.128-48.128z m144.384 0c-26.624 0-48.128 21.504-48.128 48.128s21.504 48.128 48.128 48.128 48.128-21.504 48.128-48.128c-0.512-26.624-22.016-48.128-48.128-48.128z" fill="#FFFFFF" p-id="4390"></path></svg>