<?xml version="1.0" standalone="no"?><!DOCTYPE svg PUBLIC "-//W3C//DTD SVG 1.1//EN" "http://www.w3.org/Graphics/SVG/1.1/DTD/svg11.dtd"><svg t="1551753481832" class="icon" style="" viewBox="0 0 1024 1024" version="1.1" xmlns="http://www.w3.org/2000/svg" p-id="45108" xmlns:xlink="http://www.w3.org/1999/xlink" width="200" height="200"><defs><style type="text/css"></style></defs><path d="M167.253333 477.866667H460.8v407.893333H274.773333c-73.386667 0-107.52-34.133333-107.52-92.16V477.866667z m694.613334-40.96H167.253333v-1.706667C143.36 428.373333 136.533333 416.426667 136.533333 395.946667v-76.8c0-25.6 11.946667-37.546667 69.973334-37.546667h643.413333c39.253333 0 51.2 15.36 51.2 40.96v73.386667c0 25.6-8.533333 39.253333-39.253333 40.96z m1.706666 40.96c0 83.626667-1.706667 267.946667-1.706666 312.32 0 58.026667-32.426667 95.573333-105.813334 95.573333H578.56V477.866667h285.013333z" fill="#3889FF" p-id="45109"></path><path d="M378.88 124.586667c-30.72-17.066667-40.96 20.48-44.373333 46.08-3.413333 25.6-3.413333 59.733333 30.72 59.733333h121.173333c32.426667 0 32.426667-27.306667 8.533333-42.666667-18.773333-10.24-78.506667-42.666667-116.053333-63.146666zM709.973333 170.666667c-3.413333-25.6-11.946667-63.146667-44.373333-46.08-35.84 20.48-97.28 51.2-116.053333 63.146666-25.6 15.36-25.6 42.666667 8.533333 42.666667h121.173333c32.426667 0 32.426667-34.133333 30.72-59.733333z" fill="#FB560A" p-id="45110"></path></svg>