<?xml version="1.0" standalone="no"?><!DOCTYPE svg PUBLIC "-//W3C//DTD SVG 1.1//EN" "http://www.w3.org/Graphics/SVG/1.1/DTD/svg11.dtd"><svg t="1502935692742" class="icon" style="" viewBox="0 0 1024 1024" version="1.1" xmlns="http://www.w3.org/2000/svg" p-id="2620" xmlns:xlink="http://www.w3.org/1999/xlink" width="200" height="200"><defs><style type="text/css"></style></defs><path d="M597.333333 585.642667l341.12 0c47.274667 0 85.546667-38.186667 85.546667-85.333333 0-47.445333-38.314667-85.333333-85.546667-85.333333L597.333333 414.976 597.333333 85.546667C597.333333 38.272 559.146667 0 512 0c-47.445333 0-85.333333 38.314667-85.333333 85.546667l0 329.429333L85.546667 414.976c-47.274667 0-85.546667 38.186667-85.546667 85.333333 0 47.445333 38.314667 85.333333 85.546667 85.333333L426.666667 585.642667l0 352.810667C426.666667 985.728 464.853333 1024 512 1024c47.445333 0 85.333333-38.314667 85.333333-85.546667L597.333333 585.642667z" p-id="2621" fill="#ff6600"></path></svg>