<?xml version="1.0" standalone="no"?><!DOCTYPE svg PUBLIC "-//W3C//DTD SVG 1.1//EN" "http://www.w3.org/Graphics/SVG/1.1/DTD/svg11.dtd"><svg t="1502259339526" class="icon" style="" viewBox="0 0 1024 1024" version="1.1" xmlns="http://www.w3.org/2000/svg" p-id="3762" xmlns:xlink="http://www.w3.org/1999/xlink" width="200" height="200"><defs><style type="text/css"></style></defs><path d="M559.441 547.444h-1.436c-48.060-0.372-94.333-17.123-139.025-33.273-40.137-14.527-78.074-28.246-116.327-30.525-60.522-3.623-93.677 3.782-143.869 15.053-27.907 6.275-59.477 13.356-103.474 20.347l-1.11-6.997c43.762-6.95 75.276-14.002 103.024-20.251 50.761-11.401 84.306-18.948 145.847-15.204 39.269 2.403 77.653 16.218 118.297 30.923 44.14 15.957 89.809 32.471 136.662 32.831 42.411 0.621 81.479-14.878 122.723-30.973 39.523-15.425 80.43-31.404 125.166-32.78 56.126-1.81 94.058 14.002 157.808 50.059l-3.535 6.16c-62.586-35.373-99.613-50.823-154.081-49.146-43.515 1.376-83.828 17.123-122.864 32.318-39.673 15.49-80.671 31.499-123.961 31.499z" fill="#e03106" p-id="3763"></path></svg>