<?xml version="1.0" standalone="no"?><!DOCTYPE svg PUBLIC "-//W3C//DTD SVG 1.1//EN" "http://www.w3.org/Graphics/SVG/1.1/DTD/svg11.dtd"><svg t="1502259556158" class="icon" style="" viewBox="0 0 1024 1024" version="1.1" xmlns="http://www.w3.org/2000/svg" p-id="5990" xmlns:xlink="http://www.w3.org/1999/xlink" width="200" height="200"><defs><style type="text/css"></style></defs><path d="M825.6 505.6c-51.2 0-70.4-38.4-96-70.4-19.2-32-38.4-57.6-64-57.6-32 0-44.8 19.2-64 57.6-19.2 32-44.8 70.4-96 70.4s-70.4-38.4-89.6-70.4c-19.2-32-38.4-57.6-64-57.6-32 0-44.8 19.2-64 57.6-25.6 32-51.2 70.4-102.4 70.4s-70.4-38.4-96-70.4c-19.2-32-38.4-57.6-64-57.6-6.4 0-12.8-6.4-12.8-12.8s6.4-12.8 12.8-12.8c51.2 0 70.4 38.4 96 70.4 19.2 32 38.4 57.6 64 57.6 32 0 44.8-19.2 64-57.6 25.6-38.4 51.2-76.8 96-76.8s76.8 38.4 96 70.4c19.2 32 38.4 57.6 64 57.6s44.8-19.2 64-57.6c25.6-32 51.2-70.4 96-70.4 51.2 0 70.4 38.4 96 70.4 19.2 32 38.4 57.6 64 57.6s44.8-19.2 64-57.6c19.2-32 44.8-70.4 96-70.4 6.4 0 12.8 6.4 12.8 12.8s-6.4 12.8-12.8 12.8c-32 0-44.8 19.2-64 57.6-19.2 38.4-44.8 76.8-96 76.8z" p-id="5991"></path><path d="M825.6 595.2c-51.2 0-70.4-38.4-96-70.4-19.2-32-38.4-57.6-64-57.6-32 0-44.8 19.2-64 57.6-19.2 32-44.8 70.4-96 70.4s-70.4-38.4-89.6-70.4c-19.2-32-38.4-57.6-64-57.6-32 0-44.8 19.2-64 57.6-25.6 32-51.2 70.4-102.4 70.4s-70.4-38.4-96-70.4c-19.2-32-38.4-57.6-64-57.6-6.4 0-12.8-6.4-12.8-12.8s6.4-12.8 12.8-12.8c51.2 0 70.4 38.4 96 70.4 19.2 32 38.4 57.6 64 57.6 32 0 44.8-19.2 64-57.6 19.2-32 44.8-70.4 96-70.4s70.4 38.4 96 70.4c19.2 32 38.4 57.6 64 57.6s44.8-19.2 64-57.6c19.2-32 44.8-70.4 96-70.4s70.4 38.4 96 70.4c19.2 32 38.4 57.6 64 57.6s44.8-19.2 64-57.6c19.2-32 44.8-70.4 96-70.4 6.4 0 12.8 6.4 12.8 12.8s-6.4 12.8-12.8 12.8c-32 0-44.8 19.2-64 57.6-19.2 32-44.8 70.4-96 70.4z" p-id="5992"></path><path d="M825.6 691.2c-51.2 0-70.4-38.4-96-70.4-19.2-32-38.4-57.6-64-57.6-32 0-44.8 19.2-64 57.6-19.2 32-44.8 70.4-96 70.4s-70.4-38.4-96-70.4c-19.2-32-38.4-57.6-64-57.6-32 0-44.8 19.2-64 57.6-19.2 32-44.8 70.4-96 70.4s-70.4-38.4-96-70.4c-19.2-32-38.4-57.6-64-57.6-6.4 0-12.8-6.4-12.8-12.8s6.4-12.8 12.8-12.8c51.2 0 70.4 38.4 96 70.4 19.2 32 38.4 57.6 64 57.6 32 0 44.8-19.2 64-57.6 19.2-32 44.8-70.4 96-70.4s70.4 38.4 96 70.4c19.2 32 38.4 57.6 64 57.6s44.8-19.2 64-57.6c19.2-32 44.8-70.4 96-70.4s70.4 38.4 96 70.4c19.2 32 38.4 57.6 64 57.6s44.8-19.2 64-57.6c19.2-32 44.8-70.4 96-70.4 6.4 0 12.8 6.4 12.8 12.8s-6.4 12.8-12.8 12.8c-32 0-44.8 19.2-64 57.6-19.2 32-44.8 70.4-96 70.4z" p-id="5993"></path></svg>