<?xml version="1.0" standalone="no"?><!DOCTYPE svg PUBLIC "-//W3C//DTD SVG 1.1//EN" "http://www.w3.org/Graphics/SVG/1.1/DTD/svg11.dtd"><svg t="1500538781084" class="icon" style="" viewBox="0 0 1085 1024" version="1.1" xmlns="http://www.w3.org/2000/svg" p-id="3743" xmlns:xlink="http://www.w3.org/1999/xlink" width="211.9140625" height="200"><defs><style type="text/css"></style></defs><path d="M1066.164706 198.776471 18.070588 198.776471c-10.24 0-18.070588 7.830588-18.070588 18.070588 0 10.24 7.830588 18.070588 18.070588 18.070588l1048.094118 0c10.24 0 18.070588-7.830588 18.070588-18.070588C1084.235294 206.607059 1076.404706 198.776471 1066.164706 198.776471z" p-id="3744"></path><path d="M921.6 228.894118l0 722.823529c0 19.877647-16.263529 36.141176-36.141176 36.141176L198.776471 987.858824c-19.877647 0-36.141176-16.263529-36.141176-36.141176L162.635294 228.894118l-36.141176 0 0 734.870588c0 33.129412 27.105882 60.235294 60.235294 60.235294l710.776471 0c33.129412 0 60.235294-27.105882 60.235294-60.235294L957.741176 228.894118 921.6 228.894118z" p-id="3745"></path><path d="M361.411765 234.917647 361.411765 72.282353c0-19.877647 16.263529-36.141176 36.141176-36.141176l289.129412 0c19.877647 0 36.141176 16.263529 36.141176 36.141176l0 162.635294 36.141176 0L758.964706 60.235294c0-33.129412-27.105882-60.235294-60.235294-60.235294L385.505882 0c-33.129412 0-60.235294 27.105882-60.235294 60.235294l0 174.682353L361.411765 234.917647z" p-id="3746"></path><path d="M343.341176 367.435294c-10.24 0-18.070588 7.830588-18.070588 18.070588l0 451.764706c0 10.24 7.830588 18.070588 18.070588 18.070588 10.24 0 18.070588-7.830588 18.070588-18.070588L361.411765 385.505882C361.411765 375.265882 353.581176 367.435294 343.341176 367.435294z" p-id="3747"></path><path d="M740.894118 367.435294c-10.24 0-18.070588 7.830588-18.070588 18.070588l0 451.764706c0 10.24 7.830588 18.070588 18.070588 18.070588 10.24 0 18.070588-7.830588 18.070588-18.070588L758.964706 385.505882C758.964706 375.265882 751.134118 367.435294 740.894118 367.435294z" p-id="3748"></path><path d="M542.117647 367.435294c-10.24 0-18.070588 7.830588-18.070588 18.070588l0 451.764706c0 10.24 7.830588 18.070588 18.070588 18.070588 10.24 0 18.070588-7.830588 18.070588-18.070588L560.188235 385.505882C560.188235 375.265882 552.357647 367.435294 542.117647 367.435294z" p-id="3749"></path></svg>