<?xml version="1.0" standalone="no"?><!DOCTYPE svg PUBLIC "-//W3C//DTD SVG 1.1//EN" "http://www.w3.org/Graphics/SVG/1.1/DTD/svg11.dtd"><svg t="1502939713967" class="icon" style="" viewBox="0 0 1024 1024" version="1.1" xmlns="http://www.w3.org/2000/svg" p-id="5142" xmlns:xlink="http://www.w3.org/1999/xlink" width="200" height="200"><defs><style type="text/css"></style></defs><path d="M512 0C230.4 0 0 230.4 0 512s230.4 512 512 512 512-230.4 512-512S793.6 0 512 0zM217.6 806.4C140.8 729.6 96 620.8 96 512c0-93.587 33.149-187.172 91.297-260.393l582.282 587.304C696.782 895.687 604.393 928 512 928 403.2 928 294.4 883.2 217.6 806.4zM836.703 772.393 254.421 185.089C327.218 128.313 419.607 96 512 96c108.8 0 217.6 44.8 294.4 121.6S928 403.2 928 512C928 605.587 894.851 699.172 836.703 772.393z" p-id="5143"></path></svg>