<?xml version="1.0" standalone="no"?><!DOCTYPE svg PUBLIC "-//W3C//DTD SVG 1.1//EN" "http://www.w3.org/Graphics/SVG/1.1/DTD/svg11.dtd"><svg t="1499671639057" class="icon" style="" viewBox="0 0 1024 1024" version="1.1" xmlns="http://www.w3.org/2000/svg" p-id="2427" xmlns:xlink="http://www.w3.org/1999/xlink" width="128" height="128"><defs><style type="text/css"></style></defs><path d="M659.71732 453.699176" p-id="2428" fill="#707070"></path><path d="M938.181449 778.344091 102.788038 778.344091c-9.610892 0-25.495674-19.165502-25.495674-28.776394L77.292364 262.254959c0-6.653537 7.844665-12.729929 13.826913-15.645328 6.007831-2.923586 15.143908 3.583618 20.369933 7.670703l397.590274 315.309292 22.808472 0L927.4572 254.281357c5.251607-4.087085 8.123005-7.728008 14.106276-4.804423 5.982248 2.914376 5.54018 6.124488 5.54018 12.778024l0 487.312738C947.102632 759.179612 947.793364 778.344091 938.181449 778.344091zM112.084775 743.55168l800.225447 0L912.310222 297.972439 544.380478 594.960457c-3.059686 2.396583-2.599198 9.42158-6.490831 9.42158l-34.80776 0c-3.891633 0-11.718903-7.02602-14.778588-9.42158L112.084775 297.972439 112.084775 743.55168z" p-id="2429" fill="#707070"></path><path d="M94.688569 255.434623l835.017858 0 0 34.792411-835.017858 0 0-34.792411Z" p-id="2430" fill="#707070"></path><path d="M109.162212 738.987734 96.414887 727.141942 340.071256 465.180672 352.818581 477.026464Z" p-id="2431" fill="#707070"></path><path d="M683.274029 464.942697l261.05819 261.05819-12.305198 12.305198-261.05819-261.05819 12.305198-12.305198Z" p-id="2432" fill="#707070"></path></svg>