<?xml version="1.0" standalone="no"?><!DOCTYPE svg PUBLIC "-//W3C//DTD SVG 1.1//EN" "http://www.w3.org/Graphics/SVG/1.1/DTD/svg11.dtd"><svg t="1502260738219" class="icon" style="" viewBox="0 0 1025 1024" version="1.1" xmlns="http://www.w3.org/2000/svg" p-id="6798" xmlns:xlink="http://www.w3.org/1999/xlink" width="200.1953125" height="200"><defs><style type="text/css"></style></defs><path d="M1021.934509 386.712577C1021.934509 341.832019 985.60263 305.50014 940.722074 305.50014L878.74416 305.50014C904.390195 279.854108 921.487552 245.659397 921.487552 205.053179 921.487552 128.115082 857.372467 64 780.434368 64 701.359104 64 647.929869 143.075267 618.009498 215.739026 600.912143 209.327518 581.677619 202.91601 558.168755 202.91601 534.659892 202.91601 515.425368 207.190348 498.328013 215.739026 466.270472 140.938098 414.978407 64 335.90314 64 269.650889 64 214.084485 108.880557 199.1243 170.858469 211.947316 172.995638 224.770332 177.269977 237.593348 181.544316 248.279195 136.663759 288.885413 104.606218 335.90314 104.606218 393.606713 104.606218 438.48727 172.995638 466.270472 241.385059 461.996133 247.796566 459.858964 254.208075 457.721795 260.619583 459.858964 260.619583 461.996133 260.619583 464.133302 258.482413 461.996133 258.482413 459.858964 260.619583 457.721795 260.619583L457.721795 262.756752C457.721795 275.579768 464.133302 288.402785 476.956319 296.951462L476.956319 296.951462C451.310286 305.50014 400.018221 303.36297 305.982769 252.070906 98.677338 138.800928 6.779055 247.796566 4.641886 247.796566-1.769622 256.345244-1.769622 269.16826 6.779055 275.579768 15.327733 281.991277 28.150749 281.991277 34.562257 273.442599 34.562257 273.442599 105.088847 187.955824 284.611075 286.265615 348.726156 322.597495 404.29256 339.69485 447.035948 339.69485 455.584625 339.69485 464.133302 339.69485 472.68198 337.557681 472.68198 339.69485 474.819149 339.69485 474.819149 341.832019L536.797061 341.832019 536.797061 502.119723 130.734879 502.119723 130.734879 382.438237C130.734879 361.066544 147.832234 341.832019 171.341098 341.832019L305.982769 341.832019C293.159752 335.420511 278.199567 329.009003 263.23938 320.460326 250.416365 314.048817 237.593348 307.637309 224.770332 301.225801L171.341098 301.225801C126.460541 301.225801 90.128661 337.557681 90.128661 382.438237L90.128661 542.725941 149.969404 542.725941 149.969404 908.181907C149.969404 953.062464 186.301283 989.394342 231.18184 989.394342L880.881331 989.394342C925.761888 989.394342 962.093766 953.062464 962.093766 908.181907L962.093766 547.00028 1024.07168 547.00028 1021.934509 386.712577 1021.934509 386.712577 1021.934509 386.712577ZM534.659892 948.788122 231.18184 948.788122C209.810147 948.788122 190.575622 931.690771 190.575622 908.181907L190.575622 547.00028 534.659892 547.00028 534.659892 948.788122 534.659892 948.788122 534.659892 948.788122ZM656.478547 267.031091C656.478547 258.482413 654.341376 249.933736 647.929869 243.522228 675.713069 175.132808 718.456461 106.743388 778.297203 106.743388 833.863603 106.743388 878.74416 151.623944 878.74416 207.190348 878.74416 262.756752 833.863603 307.637309 778.297203 307.637309L630.832514 307.637309C645.792698 296.951462 656.478547 281.991277 656.478547 267.031091L656.478547 267.031091 656.478547 267.031091 656.478547 267.031091ZM553.894417 286.265615C545.345739 286.265615 538.934231 286.265615 530.385553 284.128446 528.248384 279.854108 526.111215 277.716938 521.836876 275.579768 515.425368 273.442599 509.013859 273.442599 502.602351 275.579768 496.190843 271.30543 491.916504 269.16826 491.916504 264.893922 491.916504 254.208075 519.699706 245.659397 551.757247 245.659397 585.951957 245.659397 611.59799 254.208075 611.59799 264.893922 615.872328 277.716938 588.089126 286.265615 553.894417 286.265615L553.894417 286.265615 553.894417 286.265615 553.894417 286.265615ZM919.350381 908.181907C919.350381 929.5536 902.253024 948.788122 878.74416 948.788122L575.26611 948.788122 575.26611 547.00028 919.350381 547.00028 919.350381 908.181907 919.350381 908.181907 919.350381 908.181907ZM981.328294 508.531231 575.26611 508.531231 575.26611 348.243528 940.722074 348.243528C962.093766 348.243528 981.328294 365.340883 981.328294 388.849746L981.328294 508.531231 981.328294 508.531231 981.328294 508.531231Z" p-id="6799" fill="#dbdbdb"></path></svg>