<?xml version="1.0" standalone="no"?><!DOCTYPE svg PUBLIC "-//W3C//DTD SVG 1.1//EN" "http://www.w3.org/Graphics/SVG/1.1/DTD/svg11.dtd"><svg t="1502263581821" class="icon" style="" viewBox="0 0 1024 1024" version="1.1" xmlns="http://www.w3.org/2000/svg" p-id="7543" xmlns:xlink="http://www.w3.org/1999/xlink" width="200" height="200"><defs><style type="text/css"></style></defs><path d="M508.5 258c1.9 0 1.9-3 0-3-2 0-2 3 0 3z" fill="#FFFFFF" p-id="7544"></path><path d="M517.8 195.5L321.3 407H138.6v261h182.7L515 879.6s2.8-668.9 2.8-684.1z" fill="#FFD748" p-id="7545"></path><path d="M514 77.2L294.7 296.6H139.2c-40.4 0-73.2 32.8-73.2 73.2v292.6c0 40.4 32.8 73.2 73.2 73.2h155.4L514 955c40.4 0 73.1-32.8 73.1-73.2V150.3c0-40.4-32.7-73.1-73.1-73.1m0 802.1L322.1 667.5H139.2V374.9H322l192-211.8v716.2m433.5-331.2c7.2 0 13.1-14.4 13.1-32.1 0-17.7-5.8-32.1-13.1-32.1H856c-7.2 0-13.1 14.4-13.1 32.1 0 17.7 5.8 32.1 13.1 32.1h91.5m9.9-414.6c6.3-3.6 4.1-19-4.7-34.3-8.9-15.3-21.1-24.9-27.4-21.3l-79.2 45.7c-6.3 3.6-4.1 19 4.7 34.3 8.9 15.3 21.1 24.9 27.4 21.3l79.2-45.7m0 765.1c6.3 3.6 4.1 19-4.7 34.3-8.9 15.3-21.1 24.9-27.4 21.3l-79.2-45.7c-6.3-3.6-4.1-19 4.7-34.3 8.9-15.3 21.1-24.9 27.4-21.3l79.2 45.7M638.6 680.4c-6.5-17.6-4.7-34.2 12.8-40.7 44.3-20.5 65.5-60.3 70.9-110.3 6.3-58.3-21.6-111.8-69.7-133.9-15.8-10.1-22.3-27.7-12.1-43.4 10.1-15.7 27.7-22.3 43.4-12.1C755.2 381.4 798 453.4 789 536.6c-7.2 66.6-47.7 129.6-109.6 156.6-14.5 8.2-33.9 2.9-40.8-12.8m0 0z" fill="#FF781E" p-id="7546"></path></svg>