<?xml version="1.0" standalone="no"?><!DOCTYPE svg PUBLIC "-//W3C//DTD SVG 1.1//EN" "http://www.w3.org/Graphics/SVG/1.1/DTD/svg11.dtd"><svg t="1508223597061" class="icon" style="" viewBox="0 0 1024 1024" version="1.1" xmlns="http://www.w3.org/2000/svg" p-id="1125" xmlns:xlink="http://www.w3.org/1999/xlink" width="16" height="16"><defs><style type="text/css"></style></defs><path d="M407.509333 983.424a34.773333 34.773333 0 0 1-26.794666-13.226667l-81.706667-86.613333H161.066667C72.234667 883.626667 0 812.416 0 724.864V372.096C0 284.544 72.234667 213.333333 161.066667 213.333333h487.936c88.789333 0 161.066667 71.210667 161.066666 158.762667v352.768c0 87.552-72.234667 158.762667-161.066666 158.762667h-130.816l-82.346667 87.082666c-2.048 2.176-12.928 12.714667-28.330667 12.714667zM161.066667 251.477333C93.568 251.477333 38.698667 305.578667 38.698667 372.096v352.768c0 66.517333 54.912 120.618667 122.368 120.618667h154.794666l92.672 98.218666 92.885334-98.218666h147.626666c67.498667 0 122.368-54.101333 122.368-120.618667V372.096c0-66.517333-54.912-120.618667-122.368-120.618667H161.066667z m4.522666 297.002667c0 13.098667 5.461333 26.154667 14.890667 35.413333 9.429333 9.258667 22.613333 14.677333 35.925333 14.677334a50.389333 50.389333 0 0 0 50.816-50.090667c0-13.098667-5.461333-26.154667-14.890666-35.413333a51.797333 51.797333 0 0 0-35.925334-14.677334c-13.312 0-26.538667 5.418667-35.925333 14.677334a50.218667 50.218667 0 0 0-14.890667 35.413333z m187.306667 0c0 13.098667 5.461333 26.154667 14.890667 35.413333 9.386667 9.258667 22.613333 14.677333 35.925333 14.677334a50.389333 50.389333 0 0 0 50.816-50.090667c0-13.098667-5.461333-26.154667-14.890667-35.413333a51.797333 51.797333 0 0 0-35.925333-14.677334c-13.312 0-26.538667 5.418667-35.925333 14.677334a50.218667 50.218667 0 0 0-14.890667 35.413333z m194.389333 0c0 13.098667 5.461333 26.154667 14.890667 35.413333 9.386667 9.258667 22.613333 14.677333 35.925333 14.677334a50.389333 50.389333 0 0 0 50.816-50.090667c0-13.098667-5.461333-26.154667-14.890666-35.413333a51.797333 51.797333 0 0 0-35.925334-14.677334c-13.312 0-26.538667 5.418667-35.925333 14.677334a50.218667 50.218667 0 0 0-14.890667 35.413333z" fill="#FFFFFF" p-id="1126"></path><path d="M810.666667 426.666667a213.333333 213.333333 0 1 0-0.042667-426.709334A213.333333 213.333333 0 0 0 810.666667 426.666667z" fill="#FB3E44" p-id="1127"></path></svg>