<?xml version="1.0" standalone="no"?><!DOCTYPE svg PUBLIC "-//W3C//DTD SVG 1.1//EN" "http://www.w3.org/Graphics/SVG/1.1/DTD/svg11.dtd"><svg t="1499655382547" class="icon" style="" viewBox="0 0 1024 1024" version="1.1" xmlns="http://www.w3.org/2000/svg" p-id="2364" xmlns:xlink="http://www.w3.org/1999/xlink" width="128" height="128"><defs><style type="text/css"></style></defs><path d="M816.036167 358.701861H304.269679V256.348564c0-112.873273 91.829913-204.706595 204.706595-204.706595 112.873273 0 204.710004 91.833322 204.710004 204.706595 0 14.130039 11.440389 25.587472 25.587472 25.587472s25.590881-11.457433 25.590881-25.587472c0-141.099262-114.799322-255.884948-255.884948-255.884949-141.099262 0-255.884948 114.785686-255.884949 255.884949v102.353297H201.916381C117.25546 358.701861 48.38473 427.569182 48.38473 512.230103V870.471758c0 84.660921 68.867321 153.528242 153.531651 153.528242h614.123195c84.66433 0 153.531651-68.867321 153.53165-153.528242V512.230103c0-84.660921-68.87073-153.528242-153.535059-153.528242z m102.356706 511.769897c0 56.451977-45.90473 102.349889-102.353297 102.349889H201.916381c-56.434932 0-102.353298-45.901321-102.353297-102.349889V512.230103c0-56.434932 45.918365-102.349889 102.353297-102.349888h614.123195c56.451977 0 102.353298 45.918365 102.353297 102.349888V870.471758z" p-id="2365" fill="#8a8a8a"></path><path d="M508.976274 512.230103c-70.544518 0-127.94077 57.399661-127.94077 127.944179 0 61.82446 44.091176 113.551652 102.479428 125.390886a27.390799 27.390799 0 0 0-0.12613 2.546475v76.769234a25.584063 25.584063 0 0 0 25.587472 25.590881 25.573836 25.573836 0 0 0 25.587472-25.590881v-76.769234c0-0.855643-0.040907-1.707877-0.126131-2.546475 58.391661-11.842643 102.482837-63.566426 102.482838-125.390886 0.003409-70.544518-57.399661-127.944179-127.944179-127.944179z m0 204.710004c-42.332165 0-76.769234-34.43707-76.769234-76.765825 0-42.335574 34.43707-76.769234 76.769234-76.769235s76.765825 34.433661 76.765825 76.769235c0 42.328756-34.433661 76.765825-76.765825 76.765825z" p-id="2366" fill="#8a8a8a"></path></svg>