<?xml version="1.0" standalone="no"?><!DOCTYPE svg PUBLIC "-//W3C//DTD SVG 1.1//EN" "http://www.w3.org/Graphics/SVG/1.1/DTD/svg11.dtd"><svg t="1502094622634" class="icon" style="" viewBox="0 0 1024 1024" version="1.1" xmlns="http://www.w3.org/2000/svg" p-id="4557" xmlns:xlink="http://www.w3.org/1999/xlink" width="200" height="200"><defs><style type="text/css"></style></defs><path d="M908.280954 672.188352c-32.602535-32.5483-75.31329-48.848545-118.077256-48.848545-42.709731 0-85.419462 16.301268-118.02302 48.848545-5.486968 5.487991-9.943466 11.68411-14.508435 17.769712L447.493336 567.04364c5.216815-17.603937 8.856715-35.80753 8.856715-55.04364 0-17.551748-3.096525-34.233686-7.443529-50.42546l212.136491-116.66407c1.249457-0.706081 2.065032-1.848091 3.15076-2.716878 30.646997 35.537378 75.42176 58.521858 126.010949 58.521858 92.211145 0 166.926824-74.714655 166.926824-166.926824S882.414843 66.861804 790.203698 66.861804s-166.926824 74.714655-166.926824 166.926824c0 21.952988 4.50971 42.763966 12.225439 62.000076-0.434905 0.216941-0.923022 0.162706-1.303692 0.38067L426.95251 410.1708c-34.342156-55.588039-95.254457-92.918249-165.350932-92.918249-107.535155 0-194.748473 87.213317-194.748473 194.748473S154.067446 706.749496 261.602601 706.749496c68.357877 0 128.291898-35.375695 163.014724-88.62548l207.354582 121.228015c-18.420535 57.653071-5.487991 123.184577 40.209794 168.93762 32.603559 32.5483 75.31329 48.848545 118.02302 48.848545 42.763966 0 85.473697-16.301268 118.077256-48.848545C973.432813 843.082534 973.432813 737.340211 908.280954 672.188352zM790.203698 122.504078c61.347207 0 111.284549 49.936319 111.284549 111.284549s-49.937342 111.284549-111.284549 111.284549-111.284549-49.936319-111.284549-111.284549S728.856491 122.504078 790.203698 122.504078zM261.602601 651.107221c-76.671217 0-139.106198-62.436004-139.106198-139.106198 0-76.67224 62.434981-139.106198 139.106198-139.106198s139.106198 62.433958 139.106198 139.106198C400.707776 588.671217 338.272795 651.107221 261.602601 651.107221zM868.938923 868.946598c-21.083178 20.97573-49.012274 32.550347-78.735226 32.550347s-57.653071-11.574616-78.682014-32.550347c-43.416835-43.416835-43.416835-114.000404 0-157.417239 21.028942-21.029966 48.959062-32.5483 78.682014-32.5483s57.653071 11.518335 78.735226 32.5483C912.301524 754.946194 912.301524 825.530786 868.938923 868.946598z" p-id="4558"></path></svg>