<?xml version="1.0" standalone="no"?><!DOCTYPE svg PUBLIC "-//W3C//DTD SVG 1.1//EN" "http://www.w3.org/Graphics/SVG/1.1/DTD/svg11.dtd"><svg t="1502258842339" class="icon" style="" viewBox="0 0 1024 1024" version="1.1" xmlns="http://www.w3.org/2000/svg" p-id="2726" xmlns:xlink="http://www.w3.org/1999/xlink" width="200" height="200"><defs><style type="text/css"></style></defs><path d="M905.808134 335.306742C804.221458 255.810177 632.281457 155.678642 313.603441 203.642027 14.111392 248.740154 0.799202 444.812785 0.37146 453.142497c-0.017396 0.534166-0.035816 1.068332-0.017396 1.601474 0.64059 51.986001 17.975397 94.076632 51.469232 125.097136 48.675606 45.062312 118.316709 53.302997 152.575977 54.459333 29.347398 76.332503 113.38642 89.466638 170.44495 84.483136 4.680603 8.582469 11.301394 17.174148 19.594267 25.294083 26.713408 26.210965 65.084321 40.608883 103.223966 40.021505 42.87346-0.831948 73.306586-20.871353 92.439342-39.509852 17.174148 21.983687 46.077432 49.850361 91.211375 68.483744 32.284287 13.334703 65.582671 19.772322 98.2947 19.772322 77.097936 0 150.902872-35.767622 200.201671-101.480252C1053.720905 632.841206 1037.490246 438.356746 905.808134 335.306742zM938.981674 700.755991c-56.897871 75.798337-150.404522 101.408621-238.199077 65.155952-62.700017-25.894763-83.860966-73.160253-84.661192-74.992995-0.195451-0.467651-0.693802-0.680499-0.916882-1.134847-0.356111-0.729617-0.382717-1.539053-0.809435-2.251274-0.356111-0.604774-36.074613-60.813041-7.456832-125.523855 17.014512-38.45994 54.42454-53.960982 83.753519-55.652508 30.931476-1.775436 57.378825 10.109242 69.6585 30.984688 12.262278 20.823258 13.846356 46.348608 3.897773 62.059428-7.386224 11.644201-20.448728 16.836457-38.370913 15.056927-13.685697-1.352811-26.446325 9.05933-27.728528 23.101137-1.263783 14.046924 9.076726 26.446325 23.101137 27.728528 37.285185 3.291976 68.447928-10.69662 86.10303-38.566364 20.413935-32.212656 19.22076-77.454046-3.007497-115.254977-22.051225-37.46324-66.952878-58.713216-116.590392-56.06183-56.630788 3.27458-105.467053 36.217876-127.48144 85.960791-29.721929 67.193355-9.664104 129.470747 2.758834 157.319002-10.313903 12.942777-32.007995 33.734312-66.366523 34.410718-33.601282-0.106424-57.20077-15.635095-69.418023-28.439726 20.671809-10.486842 46.379307-30.228465 60.519352-67.945485 4.947685-13.192464-1.726318-27.89328-14.932084-32.839943-13.152555-4.960988-27.906583 1.726318-32.835849 14.936177-14.736633 39.256072-50.27708 46.322002-52.05661 46.659693-0.115634 0.022513-0.195451 0.098237-0.311085 0.119727-0.115634 0.022513-0.231267-0.030699-0.346901-0.00921-4.360308 0.858554-96.104825 17.971303-129.671315-38.891775 22.602787-8.961092 53.338812-27.425629 72.487941-65.738213 6.300496-12.605086 1.192152-27.928073-11.407817-34.228569-12.600993-6.247284-27.906583-1.156336-34.224476 11.412934-17.138332 34.264385-49.441039 43.49256-59.050907 45.534056-1.281179-0.102331-2.509147-0.511653-3.808746-0.400113-0.907673 0.160659-86.405929 4.235464-135.11735-40.862663-22.940478-21.249977-34.437323-49.814546-35.113729-87.281879 0.960885-10.816347 19.09694-163.272597 269.806959-201.001897 299.207569-45.098127 459.027531 47.696302 553.174772 121.377418C982.069005 459.784778 997.783919 622.358457 938.981674 700.755991z" p-id="2727" fill="#09f"></path></svg>