<?xml version="1.0" standalone="no"?><!DOCTYPE svg PUBLIC "-//W3C//DTD SVG 1.1//EN" "http://www.w3.org/Graphics/SVG/1.1/DTD/svg11.dtd"><svg t="1502258804697" class="icon" style="" viewBox="0 0 1024 1024" version="1.1" xmlns="http://www.w3.org/2000/svg" p-id="2453" xmlns:xlink="http://www.w3.org/1999/xlink" width="200" height="200"><defs><style type="text/css"></style></defs><path d="M44.190455 731.367173c49.298799 65.711608 123.103736 101.480252 200.201671 101.480252 32.711006 0 66.010413-6.438643 98.2947-19.772322 45.133943-18.633383 74.036203-46.500057 91.211375-68.483744 19.131733 18.638499 49.565882 38.677904 92.439342 39.509852 38.139645 0.587378 76.510558-13.81054 103.223966-40.021505 8.293897-8.119935 14.913665-16.711614 19.594267-25.294083 57.05853 4.983501 141.096529-8.150634 170.44495-84.483136 34.259268-1.156336 103.900372-9.397021 152.575977-54.459333 33.494858-31.020504 50.828642-73.111135 51.469232-125.097136 0.017396-0.534166 0-1.068332-0.017396-1.601474-0.426719-8.328689-13.739932-204.40132-313.231981-249.499447-318.678016-47.963385-490.616994 52.16815-592.20367 131.663692C-13.490246 438.356746-29.720905 632.841206 44.190455 731.367173zM149.639089 375.493c94.14724-73.681116 253.967202-166.475546 553.174772-121.377418 250.710019 37.730323 268.845051 190.18555 269.806959 201.001897-0.676405 37.467333-12.173251 66.031902-35.113729 87.281879-48.711422 45.098127-134.209678 41.022299-135.11735 40.862663-1.299599-0.11154-2.527566 0.297782-3.808746 0.400113-9.610892-2.042519-41.912575-11.269671-59.050907-45.534056-6.317892-12.56927-21.623483-17.659195-34.224476-11.412934-12.600993 6.300496-17.708314 21.623483-11.407817 34.228569 19.150152 38.312584 49.886177 56.778144 72.487941 65.738213-33.565467 56.862056-125.311007 39.750329-129.671315 38.891775-0.115634-0.022513-0.231267 0.030699-0.346901 0.00921-0.115634-0.022513-0.195451-0.098237-0.311085-0.119727-1.779529-0.337691-37.321-7.40362-52.05661-46.659693-4.930289-13.20986-19.683295-19.897166-32.835849-14.936177-13.205766 4.947685-19.87977 19.648502-14.932084 32.839943 14.140045 37.71702 39.847543 57.458643 60.519352 67.945485-12.218276 12.80463-35.81674 28.333302-69.418023 28.439726-34.357506-0.676405-56.05262-21.467941-66.3655-34.410718 12.422937-27.848255 32.479739-90.125647 2.758834-157.319002-22.01541-49.742914-70.850651-82.686211-127.48144-85.960791-49.63649-2.651386-94.539166 18.59859-116.590392 56.06183-22.229281 37.800931-23.421432 83.042321-3.007497 115.254977 17.655102 27.870768 48.817846 41.859363 86.10303 38.566364 14.024411-1.281179 24.364921-13.681604 23.101137-27.728528-1.281179-14.041808-14.041808-24.453948-27.728528-23.101137-17.922185 1.779529-30.984688-3.412726-38.370913-15.056927-9.948583-15.71082-8.364505-41.23617 3.897773-62.059428 12.279674-20.87647 38.727023-32.760125 69.6585-30.984688 29.330002 1.690502 66.74003 17.192567 83.753519 55.652508 28.617781 64.710814-7.100722 124.919081-7.456832 125.523855-0.426719 0.712221-0.453325 1.521656-0.809435 2.251274-0.222057 0.454348-0.720408 0.667196-0.916882 1.134847-0.801249 1.832741-21.962198 49.098231-84.661192 74.992995-87.793532 36.252669-181.301206 10.642384-238.199077-65.155952C26.215058 622.358457 41.930995 459.784778 149.639089 375.493z" p-id="2454" fill="#09f"></path></svg>