<?xml version="1.0" standalone="no"?><!DOCTYPE svg PUBLIC "-//W3C//DTD SVG 1.1//EN" "http://www.w3.org/Graphics/SVG/1.1/DTD/svg11.dtd"><svg t="1502937098612" class="icon" style="" viewBox="0 0 1024 1024" version="1.1" xmlns="http://www.w3.org/2000/svg" p-id="4371" xmlns:xlink="http://www.w3.org/1999/xlink" width="200" height="200"><defs><style type="text/css"></style></defs><path d="M835.412854 330.065368l-327.788511-183.386704c-24.912389-13.93743-56.731072-5.677303-71.123874 18.479887L167.177534 617.189737c-14.375405 24.12649-5.857405 54.976102 19.053961 68.913533l327.788511 183.386704c24.882714 13.921058 56.726979 5.652743 71.101361-18.473747l269.323958-452.031187C868.838128 374.826827 860.295568 343.986425 835.412854 330.065368zM366.595352 750.222613c-22.490224-12.582573-30.1773-40.381709-17.192567-62.175061 12.94073-21.719674 41.620933-29.155017 64.111157-16.572444 22.428825 12.548804 30.095435 40.318264 17.154705 62.037938C417.682891 755.305375 389.024178 762.770394 366.595352 750.222613zM587.490322 719.813023l-304.208467-170.19424 202.084555-339.177909 304.208467 170.19424L587.490322 719.813023z" p-id="4372" fill="#ff6600"></path><path d="M440.822914 64.770166c-4.978385-0.456395-49.710169-2.041496-95.317902 74.505901L265.859044 272.954649c-5.219885 8.761548-2.14485 19.970844 6.91141 25.037233 9.070586 5.074575 20.62576 2.049682 25.845645-6.710842l79.646991-133.678582c31.844266-53.447283 58.134025-56.154951 59.988256-56.252165 10.05603 0.440022 18.798135-6.878664 19.688411-16.673751C458.891432 74.604138 451.204355 65.646116 440.822914 64.770166z" p-id="4373" fill="#ff6600"></path><path d="M286.862403 146.873092c-9.010211-5.040806-20.602224-2.054799-25.830295 6.720052l-90.24435 151.464667c-5.229095 8.775874-2.091638 19.9821 6.91755 25.022906 9.072633 5.075599 20.640086 2.095731 25.869181-6.680143l90.24435-151.464667C299.04691 163.16208 295.934013 151.948691 286.862403 146.873092z" p-id="4374" fill="#ff6600"></path><path d="M736.742601 724.985836c-9.05626-5.067412-20.665669-2.052752-25.886577 6.708795L631.210056 865.373213c-31.836079 53.43398-58.109466 56.148811-59.990303 56.290027-10.024308-0.462534-18.741853 6.850012-19.679202 16.659425-0.690732 7.361665 3.231601 14.097066 9.410324 17.553795 2.287089 1.280156 4.915963 2.12336 7.753591 2.340301 4.930289 0.470721 49.676399 2.062985 95.293343-74.499761l79.646991-133.678582C748.863662 741.27687 745.768161 730.035852 736.742601 724.985836z" p-id="4375" fill="#ff6600"></path><path d="M831.776024 692.880627c-9.05626-5.066389-20.594037-2.072195-25.832342 6.719028l-90.24435 151.464667c-5.229095 8.775874-2.163269 20.00052 6.894014 25.067932 9.04091 5.058203 20.605294 2.018983 25.834388-6.757914l90.24435-151.464667C843.909365 709.11845 840.816934 697.938829 831.776024 692.880627z" p-id="4376" fill="#ff6600"></path></svg>