<?xml version="1.0" standalone="no"?><!DOCTYPE svg PUBLIC "-//W3C//DTD SVG 1.1//EN" "http://www.w3.org/Graphics/SVG/1.1/DTD/svg11.dtd"><svg class="icon" width="200px" height="200.00px" viewBox="0 0 1024 1024" version="1.1" xmlns="http://www.w3.org/2000/svg"><path fill="#8a8a8a" d="M152.704 832h-2.688c-31.616-0.832-55.424-18.368-70.848-52.288-15.552-34.432-17.664-70.656-18.496-101.824v-8.96C62.08 596.8 75.52 524.736 101.76 448.896c22.528-65.344 49.856-118.72 83.648-163.2 28.416-37.632 56.96-62.592 89.728-78.272 38.336-18.496 72.768-20.16 105.792-5.376 12.992 5.888 26.048 11.2 39.104 16.448 9.92 4.032 19.776 8 29.568 12.16 43.136 18.496 87.232 17.6 132.608-2.688 8-3.52 16.064-6.72 24.192-10.112 10.944-4.544 21.952-9.152 32.768-14.208 38.592-18.048 78.208-15.296 121.088 8.576 35.584 19.84 65.792 49.856 95.104 94.464 40.448 60.864 70.016 132.864 90.56 219.84 13.696 57.984 19.2 112.512 16.96 166.656-1.472 33.024-7.04 59.392-17.536 83.136-19.584 44.288-51.456 53.568-74.752 53.568-8.512 0-17.664-1.216-27.2-3.584-23.808-5.824-46.656-17.216-71.808-35.712-16.576-12.288-32.832-24.832-49.152-37.376-16.32-12.608-32.704-25.216-49.28-37.504-31.168-23.04-69.248-47.936-114.688-57.344-71.68-14.592-136.768-0.128-192.256 42.944-19.968 15.488-39.04 33.216-57.472 50.368-8.448 7.808-16.896 15.616-25.408 23.296-24.576 22.016-55.168 45.44-95.872 53.248-12.672 2.624-24 3.776-34.752 3.776z m182.784-612.224c-15.04 0-30.848 4.096-48.32 12.608-28.736 13.76-54.08 36.032-79.744 70.016-32 42.176-58.048 93.056-79.616 155.584-25.216 73.152-38.144 142.272-39.488 211.584v7.488c0.896 35.52 3.968 64.512 16 91.328 11.072 24.384 25.408 35.52 46.4 36.032l2.048 13.824v-13.824c8.832 0 18.752-1.088 29.568-3.072 33.984-6.592 60.8-27.264 82.56-46.72a1716.378 1716.378 0 0 0 25.024-22.976c18.944-17.536 38.464-35.712 59.392-51.968 61.824-48 134.848-64.32 214.656-48.192 50.688 10.56 91.904 37.248 125.504 62.144 16.768 12.416 33.28 25.28 49.792 37.888 16.128 12.48 32.256 24.896 48.64 36.992 22.08 16.32 41.792 26.24 61.952 31.232 7.424 1.728 14.336 2.688 20.608 2.688 22.656 0 38.336-11.776 49.536-37.12 9.088-20.48 13.952-43.776 15.168-73.152 2.176-51.584-3.136-103.68-16.192-159.232-19.776-83.648-48.128-152.768-86.72-210.944-26.816-40.768-53.888-67.904-85.504-85.504-35.2-19.648-65.28-22.08-96-7.744-11.072 5.248-22.528 9.984-33.92 14.656-7.936 3.328-15.744 6.592-23.488 10.048-52.224 23.296-104.512 24.32-154.688 2.752a809.177 809.177 0 0 0-28.928-11.968c-13.504-5.504-26.944-10.944-40.192-16.96-11.2-5.056-22.336-7.488-34.048-7.488z m390.336 357.76c-11.392 0-21.632-4.288-29.248-12.032-7.616-7.616-11.712-17.792-11.584-28.48 0.448-22.08 18.624-39.808 40.576-39.808h0.064c22.016 0 39.936 18.048 39.936 40.256 0.128 22.08-17.344 39.808-39.744 40.064z m-0.128-66.56v13.76c-6.976 0-12.928 5.824-13.056 12.672-0.064 3.264 1.28 6.336 3.584 8.768 2.496 2.432 5.76 3.84 9.216 3.84 7.36-0.064 12.736-5.504 12.736-12.48 0-6.912-5.632-12.736-12.352-12.736v-13.824z m-398.592 0.064c-21.76 0-41.92-8.384-57.088-23.552-15.04-15.04-23.296-35.072-23.232-56.32 0.128-43.84 35.84-79.744 79.616-80.256h0.832c43.776 0 79.616 35.904 80 79.744 0.128 21.504-8.064 41.664-23.04 56.832-15.168 15.232-35.392 23.552-57.088 23.552z m0.128-146.304l-0.512 13.76c-28.736 0.256-52.224 24-52.288 52.736 0 13.888 5.312 26.944 15.168 36.736 20.16 20.16 55.552 19.648 75.008 0 9.792-9.792 15.104-22.976 15.04-36.992-0.192-28.864-23.744-52.48-52.416-52.48v-13.76z m477.696 132.992c-22.464-0.128-40.32-18.112-40.192-40.192 0-22.016 18.112-40 40.32-40h1.344c21.76 0.576 39.296 18.944 38.912 41.088-0.384 21.952-18.176 39.104-40.384 39.104z m0.128-66.432v13.824c-6.784 0-12.736 5.888-12.736 12.544-0.064 6.912 5.504 12.48 12.544 12.48 7.36 0 12.736-4.992 12.864-12.032 0.128-6.976-5.312-12.8-12.16-12.992l-0.512-13.824z m-160.832 66.432c-11.2 0-21.504-4.224-29.184-12.096-7.552-7.808-11.648-17.92-11.328-28.736 0.576-21.696 18.752-39.296 40.576-39.296h0.128c10.624 0 20.608 4.16 28.16 11.776 7.616 7.68 11.84 17.856 11.712 28.672-0.064 22.272-17.728 39.616-40.064 39.68z m0.064-52.608c-6.848 0-12.8 5.76-12.992 12.48-0.064 3.2 1.152 6.336 3.52 8.768 7.488 7.616 21.888 1.92 21.952-8.448 0-3.52-1.28-6.656-3.776-9.152-2.304-2.368-5.376-3.712-8.576-3.712h-0.128z m80.96-26.944c-22.08-0.128-40.128-18.048-40.256-40.064 0-10.624 4.16-20.672 11.84-28.288 7.744-7.808 17.92-12.032 28.608-12.032h0.96c21.888 0.512 39.552 18.816 39.232 40.96-0.192 22.144-17.984 39.424-40.384 39.424z m0.128-66.624v13.824c-3.328 0-6.528 1.344-9.024 3.904-2.496 2.496-3.84 5.632-3.84 8.832 0 6.848 5.76 12.48 12.736 12.48 7.168 0 12.672-5.184 12.736-12.032 0-7.04-5.44-12.928-12.288-13.12l-0.32-13.888z" /></svg>