<?xml version="1.0" standalone="no"?><!DOCTYPE svg PUBLIC "-//W3C//DTD SVG 1.1//EN" "http://www.w3.org/Graphics/SVG/1.1/DTD/svg11.dtd"><svg t="1502169819880" class="icon" style="" viewBox="0 0 1024 1024" version="1.1" xmlns="http://www.w3.org/2000/svg" p-id="7983" xmlns:xlink="http://www.w3.org/1999/xlink" width="200" height="200"><defs><style type="text/css"></style></defs><path d="M399.2 396.5h304.3c134.4 0 243.4 109 243.4 243.4s-109 243.4-243.4 243.4H399.2c-134.4 0-243.4-109-243.4-243.4s108.9-243.4 243.4-243.4z" fill="#80EA6E" p-id="7984"></path><path d="M675.3 895.6H350.7c-156.6 0-284-127.4-284-284s127.4-284 284-284h324.6c156.6 0 284 127.4 284 284s-127.4 284-284 284zM350.7 368.2c-134.2 0-243.4 109.2-243.4 243.4S216.5 855 350.7 855h324.6c134.2 0 243.4-109.2 243.4-243.4S809.5 368.2 675.3 368.2H350.7z" fill="#00AC1C" p-id="7985"></path><path d="M430.3 344.1c-11.2 0-20.3-9.1-20.3-20.3 0-53.8 45.5-97.6 101.4-97.6H645c11.1 0 20.1-9.1 20.1-20.3 0-11-9.2-20.3-20.1-20.3H511.4c-55.9 0-101.4-45.5-101.4-101.4 0-11.2 9.1-20.3 20.3-20.3 11.2 0 20.3 9.1 20.3 20.3 0 33.6 27.3 60.9 60.8 60.9H645c33.5 0 60.7 27.3 60.7 60.9s-27.2 60.9-60.7 60.9H511.4c-33.5 0-60.8 25.6-60.8 57.1 0 11.1-9.1 20.1-20.3 20.1zM690.3 595.5c-41.9 0-75.9-32.8-75.9-73.1s34.1-73.1 75.9-73.1c41.9 0 75.9 32.8 75.9 73.1s-34 73.1-75.9 73.1z m0-105.6c-19.5 0-35.3 14.6-35.3 32.5s15.8 32.5 35.3 32.5 35.3-14.6 35.3-32.5c0.1-17.9-15.8-32.5-35.3-32.5zM690.1 773.9c-41.8 0-75.7-32.7-75.7-72.9s34-72.9 75.7-72.9 75.7 32.7 75.7 72.9c0.1 40.2-33.9 72.9-75.7 72.9z m0-105.2c-19.4 0-35.2 14.5-35.2 32.3 0 17.8 15.8 32.3 35.2 32.3 19.4 0 35.2-14.5 35.2-32.3 0-17.8-15.8-32.3-35.2-32.3zM388.1 636H239.6c-11.2 0-20.3-9.1-20.3-20.3 0-11.2 9.1-20.3 20.3-20.3h148.5c11.2 0 20.3 9.1 20.3 20.3 0 11.2-9 20.3-20.3 20.3z" fill="#00AC1C" p-id="7986"></path><path d="M313.9 710.5c-11.2 0-20.3-9.1-20.3-20.3v-149c0-11.2 9.1-20.3 20.3-20.3s20.3 9.1 20.3 20.3v149.1c0 11.2-9.1 20.2-20.3 20.2z" fill="#00AC1C" p-id="7987"></path></svg>