<?xml version="1.0" standalone="no"?><!DOCTYPE svg PUBLIC "-//W3C//DTD SVG 1.1//EN" "http://www.w3.org/Graphics/SVG/1.1/DTD/svg11.dtd"><svg class="icon" width="200px" height="200.00px" viewBox="0 0 1024 1024" version="1.1" xmlns="http://www.w3.org/2000/svg"><path fill="#0894ec" d="M852.7 196.6L512.9 536.4c-7.8 7.8-20.5 7.8-28.3 0-7.8-7.8-7.8-20.5 0-28.3l339.8-339.8c7.8-7.8 20.5-7.8 28.3 0 7.8 7.8 7.8 20.5 0 28.3zM206.1 282v480.5c0 33.2 26.9 60.1 60.1 60.1h480.5c33.2 0 60.1-26.9 60.1-60.1V402.1h40v380.4c0 44.2-35.9 80.1-80.1 80.1H246.1c-44.2 0-80.1-35.9-80.1-80.1V261.9c0-44.2 35.9-80.1 80.1-80.1h380.4v40H266.2c-33.2 0.1-60.1 27-60.1 60.2z"  /></svg>