<?xml version="1.0" standalone="no"?><!DOCTYPE svg PUBLIC "-//W3C//DTD SVG 1.1//EN" "http://www.w3.org/Graphics/SVG/1.1/DTD/svg11.dtd"><svg t="1502171123222" class="icon" style="" viewBox="0 0 1024 1024" version="1.1" xmlns="http://www.w3.org/2000/svg" p-id="27459" xmlns:xlink="http://www.w3.org/1999/xlink" width="200" height="200"><defs><style type="text/css"></style></defs><path d="M202.618721 401.571958h615.44807v510.214331H202.618721z" fill="#FF807D" p-id="27460"></path><path d="M723.888851 960.63688H296.888757c-74.747401 0-135.555325-60.807924-135.555325-135.555325V276.081872c0-74.747401 60.807924-135.555325 135.555325-135.555325h427.000094c74.747401 0 135.555325 60.807924 135.555326 135.555325v548.999683c0 74.747401-60.807924 135.555325-135.555326 135.555325zM296.888757 194.748473c-44.849464 0-81.3334 36.483936-81.3334 81.333399v548.999683c0 44.849464 36.483936 81.3334 81.3334 81.3334h427.000094c44.849464 0 81.3334-36.483936 81.3334-81.3334V276.081872c0-44.849464-36.483936-81.3334-81.3334-81.333399H296.888757z" fill="#FF5543" p-id="27461"></path><path d="M832.332702 406.314982h-0.039909l-629.717051-1.786692c-7.486508-0.019443-13.535271-6.109138-13.515829-13.595646 0.019443-7.473205 6.089695-13.515828 13.555738-13.515829h0.039909l629.717051 1.786693c7.485485 0.019443 13.535271 6.109138 13.515829 13.595646-0.019443 7.473205-6.088672 13.515828-13.555738 13.515828zM291.064099 294.124807c-14.971993 0-27.111474-12.139481-27.111475-27.111474V88.547709c0-14.971993 12.139481-27.111474 27.111475-27.111475s27.111474 12.139481 27.111474 27.111475v178.465624c0 14.971993-12.139481 27.111474-27.111474 27.111474zM440.566064 294.124807c-14.971993 0-27.111474-12.139481-27.111474-27.111474V88.547709c0-14.971993 12.139481-27.111474 27.111474-27.111475s27.111474 12.139481 27.111475 27.111475v178.465624c-0.001023 14.971993-12.139481 27.111474-27.111475 27.111474zM592.257905 294.124807c-14.971993 0-27.111474-12.139481-27.111474-27.111474V88.547709c0-14.971993 12.139481-27.111474 27.111474-27.111475s27.111474 12.139481 27.111475 27.111475v178.465624c0 14.971993-12.139481 27.111474-27.111475 27.111474zM739.085972 294.124807c-14.971993 0-27.111474-12.139481-27.111475-27.111474V88.547709c0-14.971993 12.139481-27.111474 27.111475-27.111475s27.111474 12.139481 27.111474 27.111475v178.465624c0 14.971993-12.139481 27.111474-27.111474 27.111474z" fill="#FF5543" p-id="27462"></path><path d="M689.020716 856.064196H467.306078c-7.485485 0-13.555737-6.069229-13.555737-13.555737s6.069229-13.555737 13.555737-13.555737h221.713615c36.688597 0 37.747719-33.882692 37.747719-37.747719v-68.406996c0-7.485485 6.069229-13.555737 13.555737-13.555737s13.555737 6.069229 13.555737 13.555737v68.406996c0 22.431895-13.555737 64.859193-64.85817 64.859193zM740.323149 665.340387c-7.485485 0-13.555737-6.069229-13.555737-13.555737v-37.953404c0-7.485485 6.069229-13.555737 13.555737-13.555737s13.555737 6.069229 13.555737 13.555737v37.953404c0 7.486508-6.069229 13.555737-13.555737 13.555737z" fill="#FFFFFF" p-id="27463"></path></svg>