<?xml version="1.0" standalone="no"?><!DOCTYPE svg PUBLIC "-//W3C//DTD SVG 1.1//EN" "http://www.w3.org/Graphics/SVG/1.1/DTD/svg11.dtd"><svg class="icon" width="200px" height="200.00px" viewBox="0 0 1024 1024" version="1.1" xmlns="http://www.w3.org/2000/svg"><path fill="#8a8a8a" d="M785.493 142.337h-49.633c-13.724 0-29.568 8.378-29.568 21.987 0 13.619 15.845 27.227 29.568 27.227h49.633c29.568 0 49.623 19.897 49.623 49.224v566.537c0 29.316-20.055 49.224-49.623 49.224h-534.312c-29.568 0-62.296-19.908-62.296-49.224v-566.537c0-29.327 20.055-49.224 49.623-49.224h62.296c13.733 0 19.016-13.608 19.016-27.227 0-13.608-5.281-21.987-19.016-21.987h-62.296c-69.688 0-99.257 42.935-99.257 99.477v560.257c0 60.742 36.96 103.677 104.538 103.677h536.412c67.588 0 104.548-35.605 104.548-103.677v-560.257c0-56.542-34.85-99.477-99.257-99.477v0zM300.803 364.339c0 13.619 11.623 25.137 25.347 25.137h372.749c13.724 0 25.347-11.518 25.347-25.137 0-13.608-11.623-25.126-25.347-25.126h-372.749c-13.723-0.001-25.347 11.517-25.347 25.126v0zM697.849 475.345h-371.699c-13.724 0-25.347 11.518-25.347 25.137 0 13.608 11.623 25.126 25.347 25.126h372.749c13.724 0 25.347-11.518 25.347-25.126-1.060-14.659-12.673-25.137-26.397-25.137v0zM697.849 622.995h-371.699c-13.724 0-25.347 11.529-25.347 25.137 0 13.619 11.623 25.137 25.347 25.137h372.749c13.724 0 25.347-11.518 25.347-25.137-1.060-14.659-12.673-25.137-26.397-25.137v0zM426.467 204.12h173.176c20.065 0 36.96-19.897 36.96-42.935s-16.895-42.936-38.019-42.936h-172.116c-21.115 0-38.010 19.897-38.010 42.935s16.895 42.936 38.010 42.936v0z" /></svg>