<?xml version="1.0" standalone="no"?><!DOCTYPE svg PUBLIC "-//W3C//DTD SVG 1.1//EN" "http://www.w3.org/Graphics/SVG/1.1/DTD/svg11.dtd"><svg class="icon" width="200px" height="200.00px" viewBox="0 0 1024 1024" version="1.1" xmlns="http://www.w3.org/2000/svg"><path fill="#8a8a8a" d="M744.204379 631.073394c-13.547999 0-24.497276 10.394884-24.497277 23.099741 0 51.974419-18.699241 64.332781-22.395199 66.434857h-99.201841c-7.449667 0-11.445922-1.051038-13.247702-1.75558v-136.86597h83.436267c28.793828 0 52.193866-22.094903 52.193867-49.294848v-109.331078c0-27.142197-23.400038-49.283299-52.193867-49.283299h-47.747166l52.494163-76.979889c7.299518-10.75293 4.054005-24.993921-7.403467-31.900743s-26.437654-3.799908-33.794922 6.929922l-69.530223 101.98536h-78.435173l-110.428315-111.80275a25.409716 25.409716 0 0 0-34.545664-1.154987 22.198852 22.198852 0 0 0-1.247386 32.651485l79.232114 80.236953h-61.029517c-28.874677 0-52.286265 22.141102-52.286265 49.283299v109.365727c0 27.199946 23.446238 49.294849 52.286265 49.294848h42.237878c-9.239897 39.142512-38.241622 114.921215-125.477797 140.319381-12.901206 3.799908-20.096775 16.701113-16.16982 28.874678 3.245514 9.898239 12.947405 16.296868 23.400039 16.296867a25.95256 25.95256 0 0 0 7.241769-1.051038c119.575813-34.84596 152.319697-139.568639 160.97055-184.462987h87.779018v135.94198a40.921192 40.921192 0 0 0 10.77603 30.653357c10.995477 12.092715 28.297184 18.248796 51.489324 18.248796h102.793851l4.250352-0.404246c6.548777-1.051038 63.52429-13.39785 63.52429-112.230095 0-12.751057-10.903078-23.099742-24.474176-23.099741z m-388.375958-95.286435a3.164665 3.164665 0 0 1-3.303263-3.095365v-109.331078a3.153115 3.153115 0 0 1 3.303263-3.049166h213.892059a28.874677 28.874677 0 0 0 5.451539 0.692992 27.130647 27.130647 0 0 0 5.994383-0.692992h87.132225a3.141565 3.141565 0 0 1 3.245514 3.049166v109.331078a3.141565 3.141565 0 0 1-3.245514 3.095365zM512.051974 0C229.703832 0 0 229.703832 0 512.005775s229.726931 511.994225 512.051974 511.994225 512.005775-229.657632 512.005775-512.005775S794.377018 0 512.051974 0z m0 970.766645c-252.942172 0-458.76087-205.807149-458.76087-458.76087s205.818699-458.74932 458.76087-458.74932S970.789745 259.052053 970.789745 512.005775 764.994146 970.766645 512.051974 970.766645z" /></svg>