<?xml version="1.0" standalone="no"?><!DOCTYPE svg PUBLIC "-//W3C//DTD SVG 1.1//EN" "http://www.w3.org/Graphics/SVG/1.1/DTD/svg11.dtd"><svg class="icon" width="200px" height="200.00px" viewBox="0 0 1024 1024" version="1.1" xmlns="http://www.w3.org/2000/svg"><path fill="#8a8a8a" d="M512 93.298c56.547 0 111.389 11.037 162.93 32.882 49.835 21.049 94.663 51.314 133.12 89.771 38.457 38.457 68.608 83.285 89.771 133.12 21.845 51.541 32.882 106.382 32.882 162.93s-11.037 111.389-32.882 162.93c-21.049 49.835-51.314 94.663-89.771 133.12s-83.285 68.608-133.12 89.771c-51.541 21.845-106.382 32.882-162.93 32.882s-111.389-11.037-162.93-32.882c-49.835-21.049-94.663-51.314-133.12-89.771-38.457-38.457-68.608-83.285-89.771-133.12-21.845-51.541-32.882-106.382-32.882-162.93s11.037-111.389 32.882-162.93c21.049-49.835 51.314-94.663 89.771-133.12 38.457-38.457 83.285-68.608 133.12-89.771 51.541-21.845 106.382-32.882 162.93-32.882M512 56.889c-251.335 0-455.111 203.776-455.111 455.111s203.776 455.111 455.111 455.111 455.111-203.776 455.111-455.111-203.776-455.111-455.111-455.111z"  /><path fill="#8a8a8a" d="M717.824 401.067h-37.319c9.216 0 17.522-18.432 21.277-30.606 4.665-15.019 1.821-29.81-8.192-42.894-0.683-0.91-1.479-1.707-2.275-2.389-48.014-41.074-112.981-1.479-139.378 17.863-7.168 4.893-8.875 14.677-3.982 21.845 4.893 7.168 14.791 9.102 21.959 4.096 0.114-0.114 1.251-0.91 1.479-1.024 15.133-11.15 66.333-44.942 98.077-19.911 2.958 4.437 3.641 8.533 2.162 13.198-3.755 12.174-19.57 23.325-27.193 25.941-29.696 11.15-39.367 12.288-51.769 13.198-1.024 0.114-1.934 0.569-2.845 0.569h-43.691c-0.683 0-1.251-2.048-2.275-2.958-16.27-15.133-54.841-50.859-62.464-55.979-58.027-39.822-110.706-45.966-144.498-17.067-0.797 0.683-1.593 1.593-2.275 2.503-10.013 13.085-12.857 27.762-8.192 42.781 3.755 12.174 12.061 30.606 21.277 30.606h-40.277c-8.761 0-16.498 7.509-16.498 16.157v78.962c0 8.761 0 15.815 15.815 15.815v154.397c0 27.534 21.049 50.403 46.080 50.403h318.35c25.259 0 46.080-23.325 46.080-50.403v-154.169c15.815 0 15.815-7.054 15.815-15.815v-78.962c-0.114-8.647-6.485-16.157-15.246-16.157zM435.655 400.498c-12.402-0.91-22.187-2.162-52.338-13.426-7.054-2.389-22.869-13.539-26.624-25.714-1.479-4.665-0.797-8.761 2.162-13.198 31.63-24.917 83.627 5.575 105.927 20.821 3.072 2.275 18.546 16.384 36.181 32.199h-62.35c-1.024-0.114-1.934-0.569-2.958-0.683zM701.44 432.697v47.331h-376.946c-0.455 0-1.934 0.569-1.934 0.569v-48.014h378.88zM671.175 685.283h-318.35c-8.192 0-14.45-10.24-14.45-18.887v-154.738h347.25v154.738c0 9.33-6.713 18.887-14.45 18.887z"  /></svg>