<?xml version="1.0" standalone="no"?><!DOCTYPE svg PUBLIC "-//W3C//DTD SVG 1.1//EN" "http://www.w3.org/Graphics/SVG/1.1/DTD/svg11.dtd"><svg t="1502170887217" class="icon" style="" viewBox="0 0 1109 1024" version="1.1" xmlns="http://www.w3.org/2000/svg" p-id="7764" xmlns:xlink="http://www.w3.org/1999/xlink" width="216.6015625" height="200"><defs><style type="text/css"></style></defs><path d="M226.133333 534.755556a376.888889 361.244444 90 1 0 722.488889 0 376.888889 361.244444 90 1 0-722.488889 0Z" fill="#A9DBFE" p-id="7765"></path><path d="M984.177778 500.622222C978.488889 267.377778 786.488889 78.222222 551.822222 78.222222c-119.466667 0-228.977778 48.355556-307.2 128h-1.422222c-109.511111-2.844444-177.777778 24.177778-197.688889 76.8-19.911111 52.622222 14.222222 112.355556 76.8 172.088889-2.844444 18.488889-4.266667 36.977778-4.266667 56.888889 0 238.933333 194.844444 433.777778 433.777778 433.777778 150.755556 0 283.022222-76.8 361.244445-193.422222 76.8-4.266667 133.688889-28.444444 152.177777-75.377778 18.488889-49.777778-9.955556-109.511111-81.066666-176.355556zM551.822222 135.111111c207.644444 0 376.888889 169.244444 376.888889 376.888889 0 72.533333-21.333333 140.8-56.888889 197.688889-88.177778-2.844444-201.955556-24.177778-308.622222-59.733333 1.422222-5.688889 1.422222-12.8 1.422222-18.488889 0-58.311111-48.355556-106.666667-106.666666-106.666667-36.977778 0-68.266667 18.488889-88.177778 45.511111-81.066667-39.822222-143.644444-81.066667-190.577778-119.466667 29.866667-179.2 184.888889-315.733333 372.622222-315.733333z m-93.866666 560.355556c-35.555556 0-64-28.444444-64-64s28.444444-64 64-64 64 28.444444 64 64-28.444444 64-64 64z m-374.044445-398.222223c11.377778-28.444444 55.466667-45.511111 122.311111-48.355555-35.555556 45.511111-61.155556 98.133333-75.377778 156.444444-39.822222-44.088889-55.466667-82.488889-46.933333-108.088889z m467.911111 591.644445c-207.644444 0-376.888889-169.244444-376.888889-376.888889v-11.377778c51.2 39.822222 113.777778 76.8 177.777778 109.511111-1.422222 7.111111-2.844444 14.222222-2.844444 21.333334 0 58.311111 48.355556 106.666667 106.666666 106.666666 36.977778 0 69.688889-18.488889 89.6-48.355555 100.977778 34.133333 206.222222 56.888889 294.4 62.577778-68.266667 83.911111-172.088889 136.533333-288.711111 136.533333z m472.177778-227.555556c-9.955556 25.6-41.244444 39.822222-86.755556 45.511111 22.755556-45.511111 38.4-95.288889 44.088889-147.911111 36.977778 41.244444 52.622222 76.8 42.666667 102.4z" fill="#27A4FD" p-id="7766"></path></svg>