<?xml version="1.0" standalone="no"?><!DOCTYPE svg PUBLIC "-//W3C//DTD SVG 1.1//EN" "http://www.w3.org/Graphics/SVG/1.1/DTD/svg11.dtd"><svg class="icon" width="200px" height="200.00px" viewBox="0 0 1024 1024" version="1.1" xmlns="http://www.w3.org/2000/svg"><path fill="#8a8a8a" d="M517.666 64.9c-242.586 0-439.95 197.363-439.95 439.958 0 67.153 14.74 131.616 43.801 191.596 7.027 15.529-18.605 93.694-32.376 135.686-22.813 69.579-29.532 92.237-19.059 105.837 3.067 3.967 9.007 8.707 19.925 8.707 15.194 0 39.969-8.819 82.467-24.415 42.173-15.468 94.662-34.725 121.649-34.725 6.265 0 8.312 1.105 8.391 1.157 65.371 36.705 139.765 56.107 215.154 56.107 242.586 0 439.95-197.363 439.95-439.95 0-242.596-197.363-439.959-439.951-439.959zM90.005 929.133l-0.12-17.551c0.035 0 0.076 0 0.12 0.008v17.543zM517.666 909.706c-69.381 0-137.837-17.851-197.964-51.617-6.77-3.796-15.143-5.648-25.581-5.648-33.226 0-86.624 19.59-133.741 36.876-20.756 7.619-43.535 15.974-58.095 19.933 3.967-16.651 13.069-44.392 20.207-66.176 26.593-81.088 43.098-136.166 30.621-161.919-26.738-55.18-40.296-114.493-40.296-176.298 0-223.235 181.612-404.857 404.848-404.857s404.848 181.62 404.848 404.857-181.61 404.849-404.848 404.849zM510.261 394.452c-61.265 0-111.117 49.842-111.117 111.098s49.85 111.099 111.117 111.098c61.257 0 111.098-49.842 111.099-111.099s-49.842-111.098-111.099-111.099zM510.261 581.55c-41.914 0-76.014-34.090-76.014-75.997s34.1-75.997 76.014-75.997c41.906 0 75.997 34.090 75.997 75.997s-34.090 75.997-75.997 75.997zM510.253 233.742c-149.878 0-271.81 121.932-271.81 271.81s121.932 271.81 271.81 271.81 271.818-121.932 271.818-271.81-121.94-271.81-271.818-271.81zM510.253 742.26c-130.519 0-236.707-106.188-236.707-236.707s106.188-236.707 236.707-236.707c130.528 0 236.716 106.188 236.716 236.708s-106.19 236.707-236.716 236.708z" /></svg>