<?xml version="1.0" standalone="no"?><!DOCTYPE svg PUBLIC "-//W3C//DTD SVG 1.1//EN" "http://www.w3.org/Graphics/SVG/1.1/DTD/svg11.dtd"><svg class="icon" width="200px" height="200.00px" viewBox="0 0 1024 1024" version="1.1" xmlns="http://www.w3.org/2000/svg"><path fill="#8a8a8a" d="M669.934933 345.2928c0-82.7392-67.310933-150.050133-150.050133-150.050133-82.670933 0-150.016 67.310933-150.016 150.050133 0 82.7392 67.310933 150.016 150.016 150.016C602.624 495.3088 669.934933 428.032 669.934933 345.2928zM389.905067 345.2928c0-71.68 58.368-130.082133 130.013867-130.082133 71.714133 0 130.082133 58.368 130.082133 130.082133 0 71.714133-58.368 130.013867-130.082133 130.013867C448.273067 475.306667 389.905067 416.9728 389.905067 345.2928zM519.8848 877.056l15.598933-19.080533c11.605333-14.370133 284.535467-352.836267 284.535467-512.7168 0-165.4784-134.621867-300.066133-300.100267-300.066133-165.410133 0-300.032 134.587733-300.032 300.066133 0 159.914667 272.930133 498.3808 284.501333 512.7168L519.8848 877.056zM519.8848 81.783467c143.428267 0 271.5648 120.1152 271.5648 263.509333 0 125.371733-213.265067 407.927467-271.5648 482.440533-58.231467-74.5472-270.301867-357.0688-270.301867-482.440533C249.617067 201.898667 376.558933 81.783467 519.8848 81.783467zM666.385067 768l0 20.343467c88.6784 17.066667 143.530667 48.162133 143.530667 77.141333 0 42.461867-119.125333 89.975467-290.065067 89.975467-170.9056 0-289.962667-47.5136-289.962667-89.975467 0-28.9792 54.818133-60.074667 143.530667-77.073067L373.418667 768c-92.16 16.5888-163.601067 49.664-163.601067 97.416533 0 71.4752 159.778133 110.011733 310.033067 110.011733 150.3232 0 310.101333-38.536533 310.101333-110.011733C829.986133 817.664 758.545067 784.5888 666.385067 768z" /></svg>