<?xml version="1.0" standalone="no"?><!DOCTYPE svg PUBLIC "-//W3C//DTD SVG 1.1//EN" "http://www.w3.org/Graphics/SVG/1.1/DTD/svg11.dtd"><svg class="icon" width="200px" height="200.00px" viewBox="0 0 1024 1024" version="1.1" xmlns="http://www.w3.org/2000/svg"><path fill="#0894ec" d="M512.72704 945.43872c-115.61472 0-224.31232-45.02016-306.06336-126.77632-81.75616-81.76128-126.77632-190.45888-126.77632-306.06336 0-115.61472 45.02016-224.3072 126.77632-306.06336C288.4096 124.78464 397.1072 79.75936 512.72704 79.75936c115.61472 0 224.3072 45.02016 306.06336 126.77632 81.75616 81.75616 126.78144 190.45376 126.78144 306.06336s-45.02528 224.3072-126.78144 306.06336c-81.74592 81.75104-190.4384 126.77632-306.06336 126.77632z m0-829.83936c-106.04544 0-205.74208 41.2928-280.71936 116.2752-74.98752 74.98752-116.28032 174.68416-116.28032 280.72448 0 106.0352 41.2928 205.73184 116.28032 280.72448 74.9824 74.9824 174.67904 116.2752 280.71936 116.2752 106.04544 0 205.74208-41.2928 280.72448-116.2752 74.98752-74.98752 116.28032-174.68928 116.28032-280.72448s-41.2928-205.73184-116.28032-280.72448c-74.98752-74.97728-174.68416-116.2752-280.72448-116.2752zM581.03808 514.18112c51.66592-25.7024 87.26016-79.03232 87.26016-140.544 0-86.51264-70.37952-156.9024-156.89728-156.9024-86.51264 0-156.89728 70.38976-156.89728 156.9024 0 61.5168 35.59936 114.8416 87.26016 140.544-89.37984 29.34784-154.10176 113.5616-154.10176 212.62848a18.51904 18.51904 0 0 0 37.04832 0c0-102.9376 83.74784-186.69056 186.69056-186.69056s186.69568 83.7376 186.69568 186.69056a18.51904 18.51904 0 0 0 37.03808 0c0.00512-99.072-64.7168-183.28064-154.09664-212.62848zM391.56224 373.64224c0-66.08384 53.76-119.84896 119.84896-119.84896 66.08896 0 119.8592 53.76512 119.8592 119.84896 0 66.08896-53.77024 119.85408-119.8592 119.85408-66.09408-0.00512-119.84896-53.76512-119.84896-119.85408z" /></svg>