<?xml version="1.0" standalone="no"?><!DOCTYPE svg PUBLIC "-//W3C//DTD SVG 1.1//EN" "http://www.w3.org/Graphics/SVG/1.1/DTD/svg11.dtd"><svg t="1499421065973" class="icon" style="" viewBox="0 0 1024 1024" version="1.1" xmlns="http://www.w3.org/2000/svg" p-id="2272" xmlns:xlink="http://www.w3.org/1999/xlink" width="200" height="200"><defs><style type="text/css"></style></defs><path d="M182.504107 431.889067m-111.936854 0a111.936853 111.936853 0 1 0 223.873707 0 111.936853 111.936853 0 1 0-223.873707 0Z" fill="#6B00AA" p-id="2273"></path><path d="M182.504107 564.30592c-73.018027 0-132.420267-59.40224-132.420267-132.416853s59.40224-132.416853 132.420267-132.416854c73.014613 0 132.416853 59.40224 132.416853 132.416854s-59.40224 132.416853-132.416853 132.416853z m0-223.873707c-50.432 0-91.460267 41.028267-91.460267 91.456854s41.028267 91.456853 91.460267 91.456853c50.428587 0 91.456853-41.028267 91.456853-91.456853s-41.028267-91.456853-91.456853-91.456854z" fill="#54028E" p-id="2274"></path><path d="M109.59872 380.801707m-41.332053 0a41.332053 41.332053 0 1 0 82.664106 0 41.332053 41.332053 0 1 0-82.664106 0Z" fill="#4D0084" p-id="2275"></path><path d="M109.59872 439.197013c-32.201387 0-58.39872-26.197333-58.39872-58.395306 0-32.201387 26.197333-58.39872 58.39872-58.39872 32.201387 0 58.395307 26.197333 58.395307 58.39872 0.003413 32.201387-26.19392 58.395307-58.395307 58.395306z m0-82.660693A24.292693 24.292693 0 0 0 85.333333 380.801707c0 13.376853 10.88512 24.261973 24.265387 24.261973 13.376853 0 24.261973-10.88512 24.261973-24.261973 0.003413-13.380267-10.881707-24.265387-24.261973-24.265387z" fill="#54028E" p-id="2276"></path><path d="M843.79648 672.986453m-111.940267 0a111.940267 111.940267 0 1 0 223.880534 0 111.940267 111.940267 0 1 0-223.880534 0Z" fill="#6B00AA" p-id="2277"></path><path d="M843.79648 805.40672c-73.014613 0-132.416853-59.40224-132.416853-132.420267s59.40224-132.420267 132.416853-132.420266S976.213333 599.968427 976.213333 672.986453s-59.40224 132.420267-132.416853 132.420267z m0-223.880533c-50.428587 0-91.456853 41.03168-91.456853 91.460266s41.028267 91.460267 91.456853 91.460267S935.253333 723.41504 935.253333 672.986453s-41.028267-91.460267-91.456853-91.460266z" fill="#54028E" p-id="2278"></path><path d="M863.88736 708.00384m-41.32864 0a41.32864 41.32864 0 1 0 82.65728 0 41.32864 41.32864 0 1 0-82.65728 0Z" fill="#4D0084" p-id="2279"></path><path d="M863.88736 766.399147c-32.201387 0-58.395307-26.197333-58.395307-58.391894 0-32.2048 26.197333-58.39872 58.395307-58.39872 32.2048 0 58.39872 26.197333 58.39872 58.39872 0 32.19456-26.197333 58.391893-58.39872 58.391894z m0-82.660694c-13.380267 0-24.261973 10.88512-24.261973 24.265387 0 13.376853 10.881707 24.25856 24.261973 24.25856s24.265387-10.881707 24.265387-24.25856-10.88512-24.265387-24.265387-24.265387z" fill="#54028E" p-id="2280"></path><path d="M586.3936 315.38176c-77.380267 68.61824-109.049173 169.540267-92.822187 264.495787 92.330667 27.460267 196.314453 8.072533 273.687894-60.53888 77.38368-68.625067 109.04576-169.54368 92.8256-264.495787-92.340907-27.456853-196.33152-8.086187-273.691307 60.53888z" fill="#3A960F" p-id="2281"></path><path d="M576.18432 612.37248h-0.01024a310.101333 310.101333 0 0 1-88.44288-12.864853 20.483413 20.483413 0 0 1-14.349653-16.1792c-18.131627-106.093227 19.03616-211.985067 99.423573-283.26912a308.138667 308.138667 0 0 1 204.65664-77.71136 310.125227 310.125227 0 0 1 88.456533 12.864853 20.483413 20.483413 0 0 1 14.349654 16.182613c18.1248 106.089813-19.0464 211.985067-99.423574 283.26912a308.23424 308.23424 0 0 1-204.660053 77.707947z m-64.3072-48.738987a269.073067 269.073067 0 0 0 64.293547 7.778987 267.291307 267.291307 0 0 0 177.496746-67.396267c66.481493-58.955093 98.87744-145.23392 88.10496-232.92928a269.40416 269.40416 0 0 0-64.310613-7.778986 267.205973 267.205973 0 0 0-177.47968 67.396266c-66.48832 58.96192-98.88768 145.230507-88.10496 232.92928z" fill="#0F5108" p-id="2282"></path><path d="M441.245013 315.8016c-40.00768 95.368533-24.814933 200.052053 30.95552 278.592853 95.10912-15.261013 180.4288-77.779627 220.419414-173.154986 40.014507-95.37536 24.81152-200.04864-30.948694-278.59968-95.122773 15.26784-180.445867 77.789867-220.42624 173.161813z" fill="#3A960F" p-id="2283"></path><path d="M472.19712 614.874453a20.49024 20.49024 0 0 1-16.694613-8.62208c-62.313813-87.7568-74.704213-199.297707-33.143467-298.369706 41.530027-99.065173 129.78176-168.400213 236.066133-185.463467a20.486827 20.486827 0 0 1 19.94752 8.36608c62.306987 87.773867 74.693973 199.318187 33.13664 298.376533-41.540267 99.072-129.788587 168.403627-236.06272 185.453227a20.54144 20.54144 0 0 1-3.249493 0.259413zM652.202667 165.205333c-86.504107 18.080427-157.719893 76.571307-192.07168 158.511787-34.37568 81.95072-26.187093 173.74208 21.53472 248.108373 86.490453-18.0736 157.709653-76.561067 192.068266-158.508373 34.37568-81.94048 26.190507-173.73184-21.531306-248.111787z" fill="#0F5108" p-id="2284"></path><path d="M458.038613 397.448533m-111.936853 0a111.936853 111.936853 0 1 0 223.873707 0 111.936853 111.936853 0 1 0-223.873707 0Z" fill="#6B00AA" p-id="2285"></path><path d="M458.038613 529.861973c-73.014613 0-132.416853-59.40224-132.416853-132.416853s59.40224-132.416853 132.416853-132.416853c73.018027 0 132.420267 59.40224 132.420267 132.416853s-59.40224 132.416853-132.420267 132.416853z m0-223.870293c-50.428587 0-91.456853 41.028267-91.456853 91.456853s41.028267 91.456853 91.456853 91.456854c50.432 0 91.460267-41.028267 91.460267-91.456854s-41.028267-91.456853-91.460267-91.456853z" fill="#54028E" p-id="2286"></path><path d="M533.241173 336.0256m-41.332053 0a41.332053 41.332053 0 1 0 82.664107 0 41.332053 41.332053 0 1 0-82.664107 0Z" fill="#4D0084" p-id="2287"></path><path d="M533.241173 394.42432c-32.201387 0-58.395307-26.197333-58.395306-58.395307 0-32.201387 26.197333-58.39872 58.395306-58.39872s58.395307 26.197333 58.395307 58.39872c0 32.197973-26.197333 58.395307-58.395307 58.395307z m0-82.664107c-13.380267 0-24.261973 10.88512-24.261973 24.265387 0 13.376853 10.881707 24.261973 24.261973 24.261973s24.261973-10.88512 24.261974-24.261973c0-13.380267-10.881707-24.265387-24.261974-24.265387z" fill="#54028E" p-id="2288"></path><path d="M320.273067 514.54976m-111.936854 0a111.936853 111.936853 0 1 0 223.873707 0 111.936853 111.936853 0 1 0-223.873707 0Z" fill="#6B00AA" p-id="2289"></path><path d="M320.273067 646.966613c-73.018027 0-132.420267-59.398827-132.420267-132.41344 0-73.018027 59.40224-132.420267 132.420267-132.420266 73.014613 0 132.416853 59.40224 132.416853 132.420266 0 73.014613-59.40224 132.41344-132.416853 132.41344z m0-223.873706c-50.432 0-91.460267 41.028267-91.460267 91.460266 0 50.425173 41.028267 91.45344 91.460267 91.45344 50.428587 0 91.456853-41.028267 91.456853-91.45344 0-50.432-41.028267-91.460267-91.456853-91.460266z" fill="#54028E" p-id="2290"></path><path d="M271.476053 473.79456m-41.332053 0a41.332053 41.332053 0 1 0 82.664107 0 41.332053 41.332053 0 1 0-82.664107 0Z" fill="#4D0084" p-id="2291"></path><path d="M271.476053 532.19328c-32.201387 0-58.395307-26.197333-58.395306-58.39872 0-32.201387 26.197333-58.395307 58.395306-58.395307 32.201387 0 58.39872 26.197333 58.39872 58.395307 0.003413 32.201387-26.197333 58.39872-58.39872 58.39872z m0-82.660693c-13.376853 0-24.261973 10.88512-24.261973 24.261973 0 13.380267 10.88512 24.265387 24.261973 24.265387a24.292693 24.292693 0 0 0 24.265387-24.265387c0.003413-13.376853-10.88512-24.261973-24.265387-24.261973z" fill="#54028E" p-id="2292"></path><path d="M606.143147 579.990187m-111.936854 0a111.936853 111.936853 0 1 0 223.873707 0 111.936853 111.936853 0 1 0-223.873707 0Z" fill="#6B00AA" p-id="2293"></path><path d="M606.143147 712.40704c-73.014613 0-132.416853-59.398827-132.416854-132.41344 0-73.018027 59.40224-132.420267 132.416854-132.420267 73.018027 0 132.420267 59.40224 132.420266 132.420267 0 73.014613-59.40224 132.41344-132.420266 132.41344z m0-223.873707c-50.428587 0-91.456853 41.03168-91.456854 91.460267 0 50.425173 41.028267 91.45344 91.456854 91.45344s91.460267-41.028267 91.460266-91.45344c0-50.428587-41.03168-91.460267-91.460266-91.460267z" fill="#54028E" p-id="2294"></path><path d="M261.720747 700.53888m-111.940267 0a111.940267 111.940267 0 1 0 223.880533 0 111.940267 111.940267 0 1 0-223.880533 0Z" fill="#6B00AA" p-id="2295"></path><path d="M261.720747 832.959147c-73.014613 0-132.416853-59.40224-132.416854-132.420267s59.40224-132.420267 132.416854-132.420267 132.416853 59.40224 132.416853 132.420267-59.40224 132.420267-132.416853 132.420267z m0-223.880534c-50.428587 0-91.456853 41.03168-91.456854 91.460267s41.028267 91.460267 91.456854 91.460267 91.456853-41.03168 91.456853-91.460267-41.028267-91.460267-91.456853-91.460267z" fill="#54028E" p-id="2296"></path><path d="M219.81184 701.115733m-41.32864 0a41.32864 41.32864 0 1 0 82.65728 0 41.32864 41.32864 0 1 0-82.65728 0Z" fill="#4D0084" p-id="2297"></path><path d="M219.81184 759.514453c-32.201387 0-58.395307-26.197333-58.395307-58.39872 0-32.197973 26.197333-58.391893 58.395307-58.391893s58.395307 26.197333 58.395307 58.391893c0.003413 32.201387-26.19392 58.39872-58.395307 58.39872z m0-82.660693c-13.376853 0-24.261973 10.881707-24.261973 24.25856 0 13.380267 10.88512 24.265387 24.261973 24.265387s24.261973-10.88512 24.261973-24.265387c0.003413-13.376853-10.881707-24.25856-24.261973-24.25856z" fill="#54028E" p-id="2298"></path><path d="M482.1504 769.42336m-111.936853 0a111.936853 111.936853 0 1 0 223.873706 0 111.936853 111.936853 0 1 0-223.873706 0Z" fill="#6B00AA" p-id="2299"></path><path d="M482.1504 901.840213c-73.014613 0-132.416853-59.398827-132.416853-132.41344 0-73.018027 59.40224-132.420267 132.416853-132.420266 73.018027 0 132.420267 59.40224 132.420267 132.420266 0 73.014613-59.405653 132.41344-132.420267 132.41344z m0-223.873706c-50.428587 0-91.456853 41.03168-91.456853 91.460266 0 50.425173 41.028267 91.45344 91.456853 91.45344s91.460267-41.028267 91.460267-91.45344c0-50.428587-41.03168-91.460267-91.460267-91.460266z" fill="#54028E" p-id="2300"></path><path d="M481.57696 797.55264m-41.332053 0a41.332053 41.332053 0 1 0 82.664106 0 41.332053 41.332053 0 1 0-82.664106 0Z" fill="#4D0084" p-id="2301"></path><path d="M481.57696 855.954773c-32.201387 0-58.395307-26.197333-58.395307-58.39872s26.197333-58.39872 58.395307-58.39872 58.395307 26.197333 58.395307 58.39872-26.19392 58.39872-58.395307 58.39872z m0-82.66752c-13.376853 0-24.261973 10.88512-24.261973 24.265387s10.88512 24.265387 24.261973 24.265387 24.261973-10.88512 24.261973-24.265387-10.88512-24.265387-24.261973-24.265387z" fill="#54028E" p-id="2302"></path><path d="M691.677867 587.455147m-41.32864 0a41.32864 41.32864 0 1 0 82.65728 0 41.32864 41.32864 0 1 0-82.65728 0Z" fill="#4D0084" p-id="2303"></path><path d="M691.677867 645.853867c-32.2048 0-58.39872-26.197333-58.39872-58.39872 0-32.197973 26.197333-58.391893 58.39872-58.391894 32.201387 0 58.395307 26.197333 58.395306 58.391894 0 32.201387-26.197333 58.39872-58.395306 58.39872z m0-82.660694c-13.380267 0-24.265387 10.881707-24.265387 24.25856 0 13.380267 10.88512 24.265387 24.265387 24.265387s24.261973-10.88512 24.261973-24.265387c0-13.37344-10.881707-24.25856-24.261973-24.25856z" fill="#54028E" p-id="2304"></path><path d="M482.1504 524.88192m-111.936853 0a111.936853 111.936853 0 1 0 223.873706 0 111.936853 111.936853 0 1 0-223.873706 0Z" fill="#6B00AA" p-id="2305"></path><path d="M482.1504 657.298773c-73.014613 0-132.416853-59.398827-132.416853-132.41344 0-73.018027 59.40224-132.420267 132.416853-132.420266 73.018027 0 132.420267 59.40224 132.420267 132.420266 0 73.014613-59.405653 132.41344-132.420267 132.41344z m0-223.873706c-50.428587 0-91.456853 41.028267-91.456853 91.460266 0 50.425173 41.028267 91.45344 91.456853 91.45344s91.460267-41.028267 91.460267-91.45344c0-50.432-41.03168-91.460267-91.460267-91.460266z" fill="#54028E" p-id="2306"></path><path d="M505.685333 511.68256m-41.332053 0a41.332053 41.332053 0 1 0 82.664107 0 41.332053 41.332053 0 1 0-82.664107 0Z" fill="#4D0084" p-id="2307"></path><path d="M505.685333 570.08128c-32.201387 0-58.39872-26.197333-58.39872-58.39872 0-32.201387 26.197333-58.395307 58.39872-58.395307 32.201387 0 58.395307 26.197333 58.395307 58.395307 0.003413 32.201387-26.19392 58.39872-58.395307 58.39872z m0-82.664107c-13.380267 0-24.265387 10.88512-24.265386 24.261974s10.88512 24.265387 24.265386 24.265386 24.261973-10.88512 24.261974-24.265386-10.881707-24.261973-24.261974-24.261974z" fill="#54028E" p-id="2308"></path><path d="M207.537493 385.225387m-17.220266 0a17.220267 17.220267 0 1 0 34.440533 0 17.220267 17.220267 0 1 0-34.440533 0Z" fill="#FFFFFF" p-id="2309"></path><path d="M285.60384 644.68992m-17.22368 0a17.22368 17.22368 0 1 0 34.44736 0 17.22368 17.22368 0 1 0-34.44736 0Z" fill="#FFFFFF" p-id="2310"></path><path d="M446.334293 720.462507m-17.22368 0a17.22368 17.22368 0 1 0 34.44736 0 17.22368 17.22368 0 1 0-34.44736 0Z" fill="#FFFFFF" p-id="2311"></path><path d="M618.550613 635.50464m-17.22368 0a17.22368 17.22368 0 1 0 34.44736 0 17.22368 17.22368 0 1 0-34.44736 0Z" fill="#FFFFFF" p-id="2312"></path><path d="M884.906667 626.315947m-17.22368 0a17.22368 17.22368 0 1 0 34.44736 0 17.22368 17.22368 0 1 0-34.44736 0Z" fill="#FFFFFF" p-id="2313"></path><path d="M421.075627 497.732267m-17.220267 0a17.220267 17.220267 0 1 0 34.440533 0 17.220267 17.220267 0 1 0-34.440533 0Z" fill="#FFFFFF" p-id="2314"></path><path d="M441.74336 339.3024m-17.220267 0a17.220267 17.220267 0 1 0 34.440534 0 17.220267 17.220267 0 1 0-34.440534 0Z" fill="#FFFFFF" p-id="2315"></path></svg>