<?xml version="1.0" standalone="no"?><!DOCTYPE svg PUBLIC "-//W3C//DTD SVG 1.1//EN" "http://www.w3.org/Graphics/SVG/1.1/DTD/svg11.dtd"><svg class="icon" width="200px" height="200.00px" viewBox="0 0 1024 1024" version="1.1" xmlns="http://www.w3.org/2000/svg"><path fill="#0894ec" d="M511.968 939.792c-224.576 0-407.296-182.72-407.296-407.312 0-137.424 68.736-264.672 183.84-340.384 11.104-7.232 25.968-4.192 33.28 6.896s4.208 26.032-6.896 33.296C213.36 299.056 152.688 411.312 152.688 532.48c0.032 198.096 161.184 359.232 359.28 359.232 198.16 0 359.312-161.136 359.312-359.232 0-121.2-60.704-233.424-162.224-300.208a24.064 24.064 0 0 1-6.896-33.296 24.144 24.144 0 0 1 33.28-6.896c115.136 75.712 183.872 202.976 183.872 340.384-0.016 224.608-182.736 407.328-407.344 407.328zM511.968 433.344a24.064 24.064 0 0 1-24.032-24.048V108.24a24.048 24.048 0 0 1 48.096 0v301.056c0 13.264-10.784 24.048-24.064 24.048z" /></svg>