<?xml version="1.0" standalone="no"?><!DOCTYPE svg PUBLIC "-//W3C//DTD SVG 1.1//EN" "http://www.w3.org/Graphics/SVG/1.1/DTD/svg11.dtd"><svg t="1505353324399" class="icon" style="" viewBox="0 0 1024 1024" version="1.1" xmlns="http://www.w3.org/2000/svg" p-id="7445" xmlns:xlink="http://www.w3.org/1999/xlink" width="200" height="200"><defs><style type="text/css"></style></defs><path d="M512.261 37.314c-263.123 0-476.428 213.303-476.428 476.428S249.136 990.17 512.261 990.17s476.428-213.303 476.428-476.428S775.386 37.314 512.261 37.314zM292.427 301.123h450.588v50.756H292.427v-50.756zM703.85 404.83v198.428H331.587V404.83H703.85z m51.924 363.006H279.663V717.63h138.752c-12.709-26.69-29.258-55.377-49.803-86.194l49.803-19.737c19.774 29.266 37.391 64.607 53.025 105.933h94.241c18.652-31.887 35.06-67.253 49.138-105.933l54.148 19.737c-14.164 32.642-29.451 61.399-45.649 86.194h132.455v50.206z" fill="#62ce76" p-id="7446"></path><path d="M385.58 455.553h264.842v97.007H385.58v-97.007z" fill="#62ce76" p-id="7447"></path></svg>