<?xml version="1.0" standalone="no"?><!DOCTYPE svg PUBLIC "-//W3C//DTD SVG 1.1//EN" "http://www.w3.org/Graphics/SVG/1.1/DTD/svg11.dtd"><svg t="1505353311149" class="icon" style="" viewBox="0 0 1024 1024" version="1.1" xmlns="http://www.w3.org/2000/svg" p-id="7083" xmlns:xlink="http://www.w3.org/1999/xlink" width="200" height="200"><defs><style type="text/css"></style></defs><path d="M679.161 434.179c-203.317-36.492-371.879 5.213-371.879 5.213 99.053-3.476 257.188 19.116 257.188 19.116l-217.22 159.873c133.059 20.564 268.643 6.605 338.764-3.778l-1.728-10.071c-89.339-4.96-213.658-19.168-213.658-19.168l208.532-151.184zM511.63 2.667c-281.077 0-508.939 227.859-508.939 508.939s227.859 508.939 508.939 508.939 508.939-227.859 508.939-508.939-227.859-508.939-508.939-508.939zM684.287 604.532c18.893 1.049 36.223 1.685 50.482 1.685 0 0-18.139 3.853-48.755 8.385l33.373 194.579-211.232-111.052-211.232 111.052 40.342-235.211-170.892-166.575 236.165-34.317 105.616-214.002 105.616 214.002 236.165 34.317-170.892 166.576 5.242 30.561zM841.777 421.042z" fill="#fec449" p-id="7084"></path></svg>