<?xml version="1.0" standalone="no"?><!DOCTYPE svg PUBLIC "-//W3C//DTD SVG 1.1//EN" "http://www.w3.org/Graphics/SVG/1.1/DTD/svg11.dtd"><svg t="1505353316615" class="icon" style="" viewBox="0 0 1024 1024" version="1.1" xmlns="http://www.w3.org/2000/svg" p-id="7202" xmlns:xlink="http://www.w3.org/1999/xlink" width="200" height="200"><defs><style type="text/css"></style></defs><path d="M511.154 59.782c-249.09 0-451.023 201.904-451.023 451.04 0 249.103 201.935 451.04 451.023 451.04 249.103 0 451.07-201.937 451.07-451.04 0-249.139-201.967-451.04-451.07-451.04z m-136.04 745.06h-0.564c-11.15 0-20.32-9.075-20.61-20.495-3.75-138.003 52.866-218.923 94.275-259.369-16.345-28.187-15.124-64.739 5.856-92.055 27.253-35.362 77.478-41.443 112.147-13.61 34.67 27.8 40.607 79.087 13.386 114.481-24.664 32.046-68.196 39.992-101.886 20.56-35.135 33.88-85.943 104.602-82.532 228.804 0.327 11.646-8.682 21.362-20.073 21.684zM516.88 682.637c-13.997 0-28.09-1.543-41.635-4.566-11.133-2.414-18.181-13.644-15.782-25.035 2.428-11.39 13.466-18.566 24.55-16.088a153.713 153.713 0 0 0 32.867 3.54c84.848 0 153.849-70.435 153.849-157.148 0-86.616-68.97-157.147-153.849-157.147-84.88 0-153.93 70.531-153.93 157.147 0 17.15 2.736 33.977 7.978 50.098 3.62 11.006-2.187 23.006-13 26.673-10.778 3.701-22.491-2.219-26.094-13.224a203.79 203.79 0 0 1-10.136-63.547c0-109.816 87.518-199.234 195.18-199.234 107.53 0 195.113 89.418 195.113 199.234 0.003 109.914-87.581 199.297-195.11 199.297z" fill="#39A6D5" p-id="7203"></path></svg>