<?xml version="1.0" standalone="no"?><!DOCTYPE svg PUBLIC "-//W3C//DTD SVG 1.1//EN" "http://www.w3.org/Graphics/SVG/1.1/DTD/svg11.dtd"><svg t="1505353299412" class="icon" style="" viewBox="0 0 1024 1024" version="1.1" xmlns="http://www.w3.org/2000/svg" p-id="6960" xmlns:xlink="http://www.w3.org/1999/xlink" width="200" height="200"><defs><style type="text/css"></style></defs><path d="M512 512m-512 0a512 512 0 1 0 1024 0 512 512 0 1 0-1024 0Z" fill="#DD4744" p-id="6961"></path><path d="M631.712 243.568c98.708-1.269 158.717 56.376 185 128 7.451 20.305 19.902 91.582-1 107-12.55 9.257-32.559 5.982-40-6-9.155-14.743 2.642-36.707-2-58-4.36-20.001-8.706-37.999-18-53-17.095-27.591-43.141-48.124-76-60-20.022-7.236-54.054-1.525-65-18-6.655-10.016-2.145-28.603 5-34 3.479-2.629 8.476-3.314 12-6z" fill="#FFFFFF" p-id="6962"></path><path d="M634.712 326.568c52.712-0.591 84.449 28.821 100 66 5.158 12.332 13.144 38.583 6 56-2.581 6.293-7.646 8.617-12 13-13.135 1.329-24.412-0.267-28-11-6.152-8.023 0.32-20.356-3-33-3.419-13.019-11.455-26.89-21-34-6.572-4.896-15.488-9.423-24-12-15.346-4.646-25.703 1.481-34-11-7.407-11.142-0.685-27.625 9-31 1.755-1.325 5.183-1.675 7-3zM731.712 558.568c-10.349-15.599-29.668-28.476-48-36-9.214-3.783-19.32-4.719-27-9-0.549-1.523-0.706-1.671-1-4-2.044-5.086 7.069-16.128 9-22 6.028-18.333 1.659-39.083-7-51-20.604-28.355-79.386-18.615-111-7-7.637 2.806-31.3 15.466-40 9l-2-1c0.175-11.425 2.021-18.658 4-27 1.823-7.688-0.675-17.809-2-23-7.776-30.468-22.163-41.563-61-41l-29 6c-20.907 6.784-40.714 16.104-58 27-17.104 10.78-32.012 24.917-48 37l-13 14c-10.009 7.563-18.447 17.005-26 27-3.804 5.033-10.197 8.923-14 14-17.946 23.958-36.396 47.706-49 77-18.324 42.59-15.272 94.907 7 131 11.003 17.83 28.022 35.082 45 47 30.109 21.136 67.66 31.782 108 43 17.028 4.734 33.614 2.891 52 7 22.74 5.083 73.81 5.275 97 0 58.064-13.21 108.54-25.127 150-54 30.825-21.467 57.091-49.625 71-88 8.96-24.722 4.798-58.217-7-76z m-95 59c-14.157 62.84-65.235 96.984-123 116-9.805 3.228-18.435 3.273-29 6-25.039 6.461-68.473 8.674-96 2-18.65-4.521-36.768-7.988-53-15-39.076-16.881-99.8-65.773-73-130 11.961-28.666 35.7-49.568 61-65 20.743-12.652 46.169-19.796 72-27 9.167-2.558 35.568-2.196 42-6 78.876 0.093 137.356 9.629 175 50 11.884 12.745 30.809 38.774 24 69z" fill="#FFFFFF" p-id="6963"></path><path d="M455.712 603.568c-0.86 0.647-3.145 1.337-4 2-7.784 2.264-10.335 8.463-10 19 1.262 1.357 1.365 1.769 2 4 4.16 2.088 6.845 3.075 14 3v-1c7.527-2.216 11.162-8.99 11-19-2.388-2.558-2.162-4.596-6-6-1.895-1.521-3.589-1.789-7-2z" fill="#FFFFFF" p-id="6964"></path><path d="M520.712 580.568c-16.106-26.003-44.969-38.57-88-38l-25 4c-18.229 5.391-39.642 13.572-50 27-17.421 22.583-39.882 74.896-17 110 12.331 18.917 38.859 26.922 64 33 13.587 3.284 33.953 1.116 45-2 34.886-9.845 64.901-25.036 78-56 10.186-24.081 3.965-60.298-7-78z m-131 101c-22.509-5.119-34.329-24.612-19-46 2.885-4.025 10.396-9.931 15-12 3.59-1.614 7.915-1.073 11-3 18.598-0.467 31.721 5.35 37 18 9.443 22.628-21.787 48.052-44 43z" fill="#FFFFFF" p-id="6965"></path></svg>