<?xml version="1.0" standalone="no"?><!DOCTYPE svg PUBLIC "-//W3C//DTD SVG 1.1//EN" "http://www.w3.org/Graphics/SVG/1.1/DTD/svg11.dtd"><svg t="1499996484394" class="icon" style="" viewBox="0 0 1024 1024" version="1.1" xmlns="http://www.w3.org/2000/svg" p-id="2517" xmlns:xlink="http://www.w3.org/1999/xlink" width="200" height="200"><defs><style type="text/css"></style></defs><path d="M826.7 711.7c-58.8 215.1-314.6 221-489.9-36.7-174.8-257.1-113-547.9 79.8-566.4 112.3-10.8 240.6 77.8 320.1 194.7 69.9 102.9 129.2 265.5 90 408.4z m-26.4-226.5c-9.3-39.3-23.3-77.3-41.6-113.3l-18.1 23.3c1.9 4.2 3.6 8.4 5.3 12.6l1.1 3.2c1.6 4.2 3.1 8.3 4.6 12.6l0.9 2.7c1.5 4.4 2.9 8.7 4.2 13.1l0.6 1.9c1.4 4.8 2.7 9.4 3.9 14.2l39.1 29.7zM797.7 669c6.1-18.7 10.2-38 12-57.5l-45.1-29.2c-1.1 4.1-2.2 8.2-3.6 12.1-1.5 4.5-3.1 8.9-5.1 13.2-2.3 5.1-5 10.1-7.9 14.9-2.8 4.6-6 9.1-9.4 13.3l28.3 90.4c13.5-17.2 23.9-36.5 30.8-57.2zM649.8 781L622 667.2c-10.7-3-21.1-7-31.1-11.9-0.9-0.4-1.9-0.8-2.9-1.4-11.5-5.7-22.5-12.3-32.9-19.8l-63.5 82c44.1 38.8 99.8 61.6 158.2 64.9zM319.1 293.6c-10.9 67.2-4 136.1 19.9 199.8l82.1-54.3c-2-7.1-3.9-14.2-5.5-21.3l-0.9-4c-1.4-6.4-2.6-12.8-3.6-19.3-0.3-1.9-0.5-3.6-0.7-5.5-1.8-12.6-2.7-25.3-2.8-38.1l-88.5-57.3z m126.5-142.3c-19.4 3.5-37.9 11-54.2 22l68.9 52.5c8.3-5.7 17.3-10.1 26.9-13.1 3.9-1.2 8-2.1 12-2.8 3.5-0.7 7-1 10.6-1.4l-14.2-58.2c-16.5-2-33.4-1.7-50 1z m137.1 92.6c-4.1-1.6-8.3-3-12.6-4.2-8.4-2.4-17-3.9-25.6-4.5-12.9-0.9-25.9 0.9-38 5.4-12.6 4.8-23.8 12.5-32.7 22.7-6.5 7.4-11.9 15.8-15.9 24.7-2.3 4.9-4.2 10-5.8 15.2-13.8 58-6.1 119.1 21.6 171.8 7.8 16.6 16.8 32.5 27.1 47.6 10 14.8 21.2 28.7 33.5 41.6 46.2 48.3 97.2 69.4 138.4 63.4 4.7-0.7 9.4-1.7 13.9-3.1 8.7-2.8 16.9-7.1 24.2-12.6 11.1-8.6 20-19.6 26.2-32.2 6.6-13.2 11-27.5 13.1-42.1 1.5-10 2.2-20.1 2-30.2 0-5.1-0.2-10.2-0.7-15.4-4-42.9-16.9-84.4-37.8-122-5.6-9.8-11.6-19.5-17.8-28.9-6.2-9.2-12.9-18-20-26.6-24.6-30.9-56.6-55.2-93.1-70.6z m16.2-54.4l16 50.9c4 2.6 8 5.3 11.9 8.3l0.8 0.6c3.8 2.8 7.6 5.7 11.3 8.8l0.9 0.8c3.7 3.1 7.3 6.2 10.9 9.4l0.7 0.7c3.7 3.4 7.4 6.9 11 10.5l23.3-15.4c-25.3-28.8-54.5-53.9-86.8-74.6z m-301-79.9s-167.6 168.4-30 483.5c137.6 315 413.7 324.1 454.1 308.3 0 0-290.3 105.9-474.8-246.8-99-174.3-78.8-391.9 50.7-545z" p-id="2518" fill="#fffa7a"></path></svg>