<?xml version="1.0" standalone="no"?><!DOCTYPE svg PUBLIC "-//W3C//DTD SVG 1.1//EN" "http://www.w3.org/Graphics/SVG/1.1/DTD/svg11.dtd"><svg t="1499668938594" class="icon" style="" viewBox="0 0 1024 1024" version="1.1" xmlns="http://www.w3.org/2000/svg" p-id="1014" xmlns:xlink="http://www.w3.org/1999/xlink" width="200" height="200"><defs><style type="text/css"></style></defs><path d="M540.444444 102.4V28.444444c0-17.066667-11.377778-28.444444-28.444444-28.444444s-28.444444 11.377778-28.444444 28.444444v73.955556c-253.155556 14.222222-455.111111 201.955556-455.111112 435.2v14.222222c0 22.755556 28.444444 31.288889 42.666667 11.377778 28.444444-42.666667 79.644444-73.955556 133.688889-73.955556 56.888889 0 105.244444 28.444444 133.688889 71.111112 11.377778 14.222222 31.288889 14.222222 42.666667 0 28.444444-42.666667 79.644444-71.111111 133.688888-71.111112 54.044444 0 102.4 25.6 130.844445 68.266667 11.377778 14.222222 31.288889 14.222222 42.666667 0 28.444444-39.822222 76.8-68.266667 130.844444-68.266667 56.888889 0 105.244444 28.444444 133.688889 73.955556 11.377778 17.066667 39.822222 11.377778 42.666667-11.377778v-14.222222c0-233.244444-201.955556-420.977778-455.111112-435.2z" fill="#1AA48D" p-id="1015"></path><path d="M512 557.511111c-17.066667 0-28.444444 11.377778-28.444444 28.444445v284.444444c0 54.044444-42.666667 96.711111-93.866667 96.711111-51.2 0-93.866667-42.666667-93.866667-96.711111 0-17.066667-11.377778-28.444444-28.444444-28.444444s-28.444444 11.377778-28.444445 28.444444c0 85.333333 68.266667 153.6 150.755556 153.6 79.644444 0 145.066667-65.422222 150.755555-145.066667 0-2.844444 2.844444-5.688889 2.844445-8.533333v-284.444444c-2.844444-14.222222-14.222222-28.444444-31.288889-28.444445z" fill="#1AA48D" p-id="1016"></path></svg>