<?xml version="1.0" standalone="no"?><!DOCTYPE svg PUBLIC "-//W3C//DTD SVG 1.1//EN" "http://www.w3.org/Graphics/SVG/1.1/DTD/svg11.dtd"><svg t="1499668970869" class="icon" style="" viewBox="0 0 1024 1024" version="1.1" xmlns="http://www.w3.org/2000/svg" p-id="1404" xmlns:xlink="http://www.w3.org/1999/xlink" width="200" height="200"><defs><style type="text/css"></style></defs><path d="M991.379503 637.300534L956.225006 247.405205c0-9.58759-6.391727-15.979317-12.783453-22.371044L604.680037 4.51959c-6.391727-3.195863-15.979317-6.391727-25.566907-3.195863l-383.503602 121.442807c-9.58759 6.391727-15.979317 12.783453-19.17518 19.17518L32.620497 512.661863c-3.195863 9.58759-3.195863 19.17518 3.195863 25.566907l207.731118 338.761516c3.195863 9.58759 12.783453 12.783453 22.371044 12.783453l409.070509 54.329677c3.195863 0 9.58759 3.195863 9.58759 3.195863l99.071764 70.308994c3.195863 3.195863 6.391727 0 6.391727-3.195863v-166.184894c0-6.391727 3.195863-12.783453 6.391727-15.979317l185.360074-172.576621c6.391727-3.195863 9.58759-12.783453 9.58759-22.371044z m-178.968348-198.143528l-150.205577 108.659354-3.195864 3.195864 6.391727 185.360074c0 3.195863-3.195863 3.195863-6.391727 3.195863l-153.401441-105.46349h-3.195863l-175.772485 63.917267c-3.195863 0-6.391727-3.195863-3.195863-3.195864l57.52554-175.772484v-3.195863l-115.05108-143.813851c-3.195863-3.195863 0-6.391727 3.195863-6.391727l188.555938-3.195863c3.195863 0 3.195863 0 3.195863-3.195864l105.463491-150.205577c3.195863-3.195863 6.391727-3.195863 6.391727 0l60.721403 172.576621c0 3.195863 3.195863 3.195863 3.195864 3.195863l178.968348 51.133814c-3.195863-3.195863 0 0-3.195864 3.195863z" fill="#F5AB16" p-id="1405"></path></svg>