<?xml version="1.0" standalone="no"?><!DOCTYPE svg PUBLIC "-//W3C//DTD SVG 1.1//EN" "http://www.w3.org/Graphics/SVG/1.1/DTD/svg11.dtd"><svg t="1499668956967" class="icon" style="" viewBox="0 0 1024 1024" version="1.1" xmlns="http://www.w3.org/2000/svg" p-id="1274" xmlns:xlink="http://www.w3.org/1999/xlink" width="200" height="200"><defs><style type="text/css"></style></defs><path d="M427.632004 466.02476c-7.678558 12.797597-12.797597 30.714233-12.797597 46.07135 0 53.749908 43.511831 97.261739 97.261739 97.261739 53.749908 0 97.261739-43.511831 97.261739-97.261739 0-53.749908-43.511831-97.261739-97.261739-97.261739-17.916636 0-33.273753 5.119039-46.07135 12.797597l-383.927918-383.927917c-10.238078-10.238078-25.595195-10.238078-35.833272 0s-10.238078 25.595195 0 35.833272l381.368398 386.487437z" fill="#EA5148" p-id="1275"></path><path d="M530.012782 0.19222c-99.821259-2.559519-191.963959 20.476156-271.309062 66.547506-17.916636 10.238078-20.476156 35.833272-5.119038 51.190389l148.452128 148.452128c7.678558 7.678558 17.916636 7.678558 25.595194 5.119039 30.714233-10.238078 63.987986-15.357117 99.821259-15.357117 130.535492 7.678558 238.035309 117.737895 243.154348 250.832906 2.559519 145.892609-115.178375 263.630503-261.070984 261.070984-130.535492-2.559519-243.154348-110.059336-250.832907-243.154348-2.559519-35.833272 2.559519-69.107025 15.357117-99.821258 2.559519-10.238078 2.559519-17.916636-5.119039-25.595195L117.930151 253.584645c-15.357117-15.357117-40.952311-12.797597-51.190389 7.678559C20.668412 340.608307-2.367263 432.751007 0.192256 530.012746 10.430334 809.000366 233.108526 1024 512.096146 1024c281.54714 0 511.90389-230.356751 511.90389-511.90389C1024.000036 233.10849 809.000402 10.430298 530.012782 0.19222z" fill="#EA5148" p-id="1276"></path></svg>