<?xml version="1.0" standalone="no"?><!DOCTYPE svg PUBLIC "-//W3C//DTD SVG 1.1//EN" "http://www.w3.org/Graphics/SVG/1.1/DTD/svg11.dtd"><svg t="1499673563306" class="icon" style="" viewBox="0 0 1024 1024" version="1.1" xmlns="http://www.w3.org/2000/svg" p-id="5269" xmlns:xlink="http://www.w3.org/1999/xlink" width="200" height="200"><defs><style type="text/css"></style></defs><path d="M192.227 519.753c-2.557 7.102-5.114 14.207-7.67 21.307 4.545-1.703 9.091-3.408 13.637-5.113 1.705-5.758 7.606-16.957 5.113-20.453-3.693 1.42-7.387 2.841-11.081 4.26z" p-id="5270" fill="#05bb92"></path><path d="M402.735 468.618c2.605-4.013 7.020-14.654 5.966-18.749-4.222 2.356-9.981 2.977-12.784 6.819-2.273 6.249-4.545 12.5-6.817 18.749 0.285 0 0.569 0 0.852 0 4.289-1.696 10.39-3.034 12.784-6.819z" p-id="5271" fill="#05bb92"></path><path d="M169.216 581.115c-2.273 7.104-4.546 14.206-6.819 21.307 4.545-1.703 9.091-3.409 13.636-5.115 2.273-6.817 4.545-13.636 6.819-20.453-0.851 0-1.705 0-2.557 0-3.693 1.421-7.387 2.843-11.079 4.26z" p-id="5272" fill="#05bb92"></path><path d="M334.555 694.466c-1.42 0-2.841 0-4.261 0-4.155 2.679-7.186 3.805-9.375 8.524-4.731 7.456-2.253 19.041 1.705 24.716 16.234-0.069 21.597-19.622 13.636-32.388-0.567-0.284-1.136-0.565-1.705-0.851z" p-id="5273" fill="#05bb92"></path><path d="M367.792 536.797c4.135-1.657 10.443-3.164 12.784-6.817 2.274-6.25 4.546-12.502 6.819-18.75-0.567 0-1.136 0-1.705 0-3.693 1.42-7.388 2.843-11.079 4.261-2.557 7.103-5.114 14.206-7.67 21.306 0.284 0 0.567 0 0.851 0z" p-id="5274" fill="#05bb92"></path><path d="M526.314 629.694c-0.57-1.705-1.137-3.408-1.706-5.114-0.285 0-0.569 0-0.85 0-0.854 0-1.706 0-2.559 0-3.125 1.136-6.251 2.273-9.375 3.409 0.284 3.694 0.567 7.388 0.852 11.078 6.425-2.268 10.478-3.818 13.637-9.373z" p-id="5275" fill="#05bb92"></path><path d="M511.709-2.037c-283.897 0-514.038 230.143-514.038 514.037s230.144 514.037 514.038 514.037c283.892 0 514.034-230.142 514.034-514.037 0-283.894-230.142-514.037-514.034-514.037zM712.106 284.53c1.989-3.694 3.978-7.388 5.966-11.079 15.053-5.966 30.115-11.933 45.168-17.898-3.123 6.249-6.25 12.5-9.375 18.749-3.693 7.386-7.386 14.773-11.078 22.159-22.851 18.915-88.486 20.726-101.418 46.875 13.068-5.114 26.137-10.227 39.205-15.342 0 13.919 0 27.842 0 41.761-14.204 5.396-28.412 10.797-42.614 16.193 0-11.931 0-23.865 0-35.794-0.569 0.285-1.136 0.569-1.705 0.852-8.804 15.623-17.613 31.25-26.42 46.875-13.919 5.396-27.84 10.797-41.76 16.193 17.897-31.53 35.795-63.071 53.692-94.601 30.109-11.646 60.229-23.296 90.339-34.942zM627.731 523.162c-15.34 5.964-30.682 11.933-46.021 17.897 0-0.284 0-0.569 0-0.85 9.373-28.406 18.751-56.82 28.125-85.227-0.567 0.284-1.136 0.567-1.703 0.851-15.34 29.827-30.684 59.661-46.023 89.487-14.202 5.397-28.409 10.797-42.612 16.194 19.031-36.927 38.069-73.867 57.101-110.794-5.964 2.273-11.932 4.545-17.897 6.817 2.841-9.090 5.681-18.182 8.522-27.271 19.034-7.388 38.070-14.773 57.102-22.159 1.703-4.546 3.408-9.092 5.114-13.637 15.34-5.681 30.684-11.364 46.022-17.045-1.136 3.694-2.274 7.387-3.41 11.079 17.895-7.102 35.796-14.205 53.692-21.307 0.852 0 1.706 0 2.557 0-2.841 9.090-5.68 18.183-8.521 27.271-6.251 2.843-12.5 5.682-18.75 8.523-3.126 30.395-6.254 60.798-9.375 91.191-13.92 5.396-27.842 10.797-41.762 16.193 1.705-24.146 3.408-48.298 5.114-72.443-9.089 28.41-18.182 56.822-27.273 85.229zM542.508 606.683c0.285-0.566 0.567-1.136 0.851-1.705 5.682-1.987 11.365-3.977 17.043-5.966 3.126 4.829 6.254 9.661 9.375 14.486 0.57-0.284 1.138-0.565 1.706-0.85 1.712-6.233 5.902-18.246 11.081-21.307 4.829-1.989 9.66-3.979 14.486-5.967 2.686 4.061-16.25 32.175-18.749 39.204 0 8.238 0 16.479 0 24.716-5.397 1.705-10.796 3.409-16.194 5.115 0.661-25.98-6.661-36.123-19.599-47.728zM695.060 363.79c0-13.919 0-27.841 0-41.761 13.635-5.397 27.273-10.796 40.909-16.193 0.852 0 1.703 0 2.558 0-0.569 13.919-1.137 27.842-1.705 41.761-13.92 5.396-27.843 10.794-41.762 16.193zM514.382 386.801c4.543-13.35 9.090-26.705 13.634-40.057 13.92-5.396 27.841-10.796 41.76-16.192 0.57 0 1.138 0 1.706 0-4.544 13.067-9.089 26.137-13.636 39.204 0.285 0 0.57 0 0.853 0 6.532-2.557 13.069-5.114 19.602-7.67-5.964 16.476-11.933 32.957-17.899 49.43-7.1 2.843-14.202 5.683-21.306 8.524-7.054 28.582-40.796 126.537-58.806 139.77-21.872 8.523-43.751 17.047-65.623 25.568 4.766-11.588 9.093-39.715 18.749-46.875 9.657-3.978 19.318-7.954 28.976-11.932 2.557-6.534 5.115-13.069 7.67-19.602 4.79-10.943 16.407-18.672 21.307-30.682 4.006-9.824-0.98-18.691-0.852-26.42 1.705-4.545 3.409-9.091 5.114-13.635-21.589 7.953-43.184 15.909-64.771 23.863 5.681-15.908 11.364-31.819 17.045-47.726 22.157-8.526 44.319-17.049 66.477-25.57zM466.655 455.834c30.914-0.624 6.751 54.926-21.307 48.579-21.658-16.269 10.242-42.905 21.307-48.579zM460.69 384.243c0.852 0 1.703 0 2.557 0-1.987 5.681-3.979 11.364-5.964 17.045-4.543 1.137-11.34 3.185-13.636 6.819-7.669 20.736-15.342 41.478-23.010 62.214 4.261-1.42 8.523-2.843 12.784-4.261 0 0.284 0 0.567 0 0.851-12.499 34.94-25.002 69.888-37.501 104.827-27.268 10.227-54.547 20.453-81.817 30.682 22.441-62.492 44.889-125.004 67.329-187.495 26.417-10.226 52.842-20.455 79.26-30.682zM108.705 668.046c22.442-62.493 44.887-125.003 67.329-187.495 27.269-10.51 54.547-21.024 81.818-31.533-1.705 5.964-3.41 11.933-5.114 17.897-4.545 1.42-9.091 2.841-13.636 4.262-7.669 21.588-15.342 43.183-23.011 64.771 0.284 0 0.569 0 0.852 0 3.977-1.421 7.955-2.843 11.932-4.261 0 0.284 0 0.569 0 0.851-12.499 34.94-25.001 69.888-37.5 104.828-27.553 10.225-55.116 20.453-82.669 30.681zM228.023 603.275c8.768-2.237 26.716-6.988 31.533-13.636 2.273-6.532 4.545-13.069 6.817-19.602 4.783-8.581 14.337-15.074 18.75-24.717 5.909-12.913 1.011-18.809 0.852-29.828 1.705-4.828 3.41-9.659 5.114-14.487-21.588 8.237-43.184 16.479-64.771 24.716 0-0.283 0-0.569 0-0.852 5.681-15.907 11.363-31.818 17.045-47.726 21.873-8.238 43.751-16.477 65.623-24.716 5.114-13.635 10.228-27.274 15.342-40.909 13.919-5.396 27.841-10.794 41.76-16.192-4.261 13.35-8.523 26.705-12.784 40.055 6.819-2.556 13.637-5.114 20.453-7.67-4.603 25.14-13.374 49.934-38.351 56.25-11.639 31.15-37.23 123.709-57.953 139.769-11.89 9.215-50.214 23.17-66.476 26.42 5.679-15.626 11.362-31.25 17.044-46.875zM262.964 520.606c6.109 0.014 8.393 1.263 11.933 3.41 8.182 21.314-10.245 49.953-33.238 45.168-21.836-16.429 10.694-42.593 21.306-48.578zM301.316 749.011c-13.919 4.829-27.841 9.659-41.76 14.489 0-18.18 0-36.365 0-54.546 0.284-0.569 0.567-1.136 0.851-1.703 4.829-1.706 9.66-3.409 14.489-5.115 5.194 5.723 1.956 32.061 1.705 41.761 0.284 0 0.567 0 0.851 0 7.955-2.843 15.91-5.682 23.863-8.523 0 4.546 0 9.093 0 13.637zM310.691 741.341c-4.906-2.464-6.186-7.447-7.67-13.636-6.947-28.961 14.048-38.683 30.682-47.726 47.482-2.051 11.262 78.577-23.011 61.362zM447.054 654.411c-34.999 9.198-3.889 36.289-18.749 48.579-4.829 1.702-9.66 3.409-14.487 5.115 0-13.921 0-27.845 0-41.763-8.806 3.125-17.615 6.25-26.42 9.375 0 14.204 0 28.41 0 42.613-5.396 1.706-10.797 3.409-16.193 5.114 0-13.919 0-27.841 0-41.761-5.396 1.989-10.797 3.978-16.193 5.966 0-4.828 0-9.659 0-14.486 29.542-10.794 59.094-21.591 88.637-32.387 1.136 0 2.274 0 3.409 0-0.001 4.544-0.001 9.089-0.001 13.635zM493.074 680.83c-14.486 5.113-28.979 10.227-43.466 15.341 0-18.747 0-37.5 0-56.249 13.919-5.113 27.842-10.226 41.761-15.341 0.284 4.26 0.567 8.524 0.852 12.784-8.806 2.843-17.615 5.681-26.42 8.523 0 3.126 0 6.251 0 9.375 8.238-3.124 16.479-6.249 24.717-9.375-0.285 4.261-0.569 8.524-0.852 12.784-11.211 1.379-24.56 4.095-23.863 18.75 0.285 0 0.569 0 0.852 0 8.805-3.124 17.614-6.251 26.42-9.375-0.001 4.259-0.001 8.521-0.001 12.783zM495.632 622.025c11.646-3.978 23.297-7.955 34.943-11.932 1.987 0.284 3.979 0.566 5.964 0.85 3.116 1.406 3.674 2.036 5.114 5.114 3.758 12.698-4.917 19.263-10.225 25.568 6.937 1.364 15.205 14.145 14.486 19.604-5.964 1.987-11.932 3.978-17.897 5.964-3.694-5.964-7.387-11.932-11.078-17.897-1.706 0.286-3.411 0.569-5.115 0.852 0 7.669 0 15.343 0 23.011-5.397 1.987-10.797 3.978-16.193 5.964-0.001-19.031-0.001-38.069-0.001-57.1zM816.081 352.71c-7.422 18.087-24.369 28.714-32.385 44.317-2.273 8.522-4.546 17.046-6.819 25.568-6.421 16.445-16.187 29.893-19.6 49.43-8.96 51.273 60.979 53.237 45.168 85.227-7.726 15.633-23.484 28.647-36.645 39.204-20.453 17.043-40.911 34.092-61.362 51.136-47.459 33.667-101.222 61.994-114.203 129.542-27.553 10.794-55.116 21.594-82.668 32.387 17.54-53.984 84.262-115.547 129.542-144.032 38.197-24.027 87.408-45.222 104.828-89.487-7.676-2.788-48.499-20.846-51.137-26.418-5.245-9.345 2.309-23.111 5.968-29.83 13.204-24.261 32.683-44.72 45.168-70.736 17.152-35.743 0.669-60.196 7.673-102.271 5.206-31.295 11.476-55.732 24.716-77.555 4.544-7.669 9.089-15.342 13.636-23.010 21.587-8.522 43.182-17.045 64.772-25.568 0.85 0 1.703 0 2.557 0-15.085 20.086-38.002 35.173-44.317 63.92-5.469 24.874 15.595 42.625 5.11 68.178z" p-id="5276" fill="#05bb92"></path></svg>