<?xml version="1.0" standalone="no"?><!DOCTYPE svg PUBLIC "-//W3C//DTD SVG 1.1//EN" "http://www.w3.org/Graphics/SVG/1.1/DTD/svg11.dtd"><svg t="1499673626925" class="icon" style="" viewBox="0 0 1024 1024" version="1.1" xmlns="http://www.w3.org/2000/svg" p-id="6715" xmlns:xlink="http://www.w3.org/1999/xlink" width="200" height="200"><defs><style type="text/css"></style></defs><path d="M511.999488 1.475608c-281.956673 0-510.524392 228.567719-510.524392 510.524392 0 281.94951 228.567719 510.524392 510.524392 510.524392s510.524392-228.574882 510.524393-510.524392c0-281.956673-228.574882-510.524392-510.524393-510.524392z m180.343392 168.92534s124.3184-15.063067 129.873929 61.977563c0 55.097876-49.984415 61.550845-82.027202 55.097876-32.042787-6.452969-149.95222-30.988782-252.91115 37.876656-34.600029 22.384823-54.68446 41.323151-54.68446 41.323151s74.761728-183.789886 259.748883-196.275246zM340.316338 290.917766c24.350594-124.817774 86.721107-126.114303 109.369943-117.076462 22.63451 9.045003 41.010019 35.297924 27.335578 68.8726-13.667278 33.574676-69.6278 63.274092-82.020038 161.839968-2.136663 33.574676 11.111059 84.790128 27.342741 103.301738 0-0.001023-107.23328-63.702857-82.028224-216.937844zM176.261934 779.883143h-51.265594l20.512173-130.850163-27.342741 10.334369v-34.4363l76.250638-32.762171-18.154476 187.714265z m77.33432-465.533712c14.792914 0.442068 39.301098 7.990998 49.12893 55.768141 9.821693 47.77612 39.301098 127.409808 123.031081 151.512763 0 0-121.691573 10.31288-196.532095-112.326275-41.766242-72.532967 6.964622-96.713692 24.372084-94.954629zM446.267415 607.715969l3.418866-13.774725h30.754444l-3.418866 13.774725h47.854915l-3.418866 20.661575h-47.854915l-3.411703 30.988782h47.847752l-3.418866 20.661575h-30.761608l-3.418866 27.541263s-1.994424 10.335393 3.418866 10.335393h27.342742l-3.418866 24.101931h-44.428886s-12.812817-4.301979-13.667277-13.774725c-0.854461-9.465582 6.837732-48.202838 6.837732-48.202839H388.164089l3.418866-20.661575h47.847751l3.418866-30.988782h-17.093307l-6.830569 20.655436H388.164089l20.505009-55.091736h27.342742l-3.418866 13.774725h13.674441z m-3.417843 82.640162l-27.342742 51.65138h-34.17945l27.342742-51.65138h34.17945zM215.306182 500.732375c5.213745-16.260335 25.668613-24.173562 48.730865-3.518126 12.877285 11.537777 37.448914 26.387997 79.698157 34.742268 29.037337 5.591345 71.771627 3.447519 71.771626 3.447519-13.767562 7.378038-54.649668 29.479405-129.874952 17.214057-22.093181-4.301979-80.773651-14.521738-70.325696-51.885718z m169.439041 134.52588h-30.754445l-6.837732-41.317011h30.754445l6.837732 41.317011z m-99.113345 144.624888h-51.266618l20.512173-130.850163-27.349905 10.334369v-34.4363l82.027202-34.435277-23.922852 189.387371z m51.266617-24.100907c-0.854461-17.214057 10.255575-89.527013 10.255575-89.527013H330.060763l6.837732-24.109094h47.847751l-13.667278 96.42205s-2.848884 15.205307 6.830569 17.214057h126.456087l-3.411703 24.101931H357.410668c0-0.001023-19.657712-6.887874-20.512173-24.101931z m423.796122 68.864414c-74.021877 34.271548-142.779867 36.479843-197.692524 20.796651-38.894845-11.110035-95.801926-45.112454-92.809779-55.226812 0.64059-2.584871 44.051285 20.641109 101.862969 23.966855 72.583109 4.181229 166.854169-18.938328 222.819808-144.489812 4.27435-13.774725 62.08501-201.438848-123.036198-223.817532-51.836599-0.577145-79.749322 5.733585-129.874953 55.090713 0 0-30.761608 33.140795-68.359924 20.661575-30.689976-10.19213-69.926606-55.105039-46.558385-106.150622 18.481933-40.36943 102.297874-108.037599 213.461673-105.573477 161.228031 6.886851 229.41604 129.945561 244.137323 164.189479 52.53347 122.241089 6.794753 278.219559-123.95001 350.552982zM552.219515 655.91983l13.667278-120.515794h146.961096l-3.419889 48.202839h-99.112322l-3.418866 27.549449s101.676727 14.350846 102.531188 82.639139c0 68.295456-85.437881 95.844905-174.302815 86.08768 1.9934-35.867906 3.418866-41.315988 3.418866-41.315988s116.200512 6.885827 116.200512-37.883818c-1.425466-46.195112-102.525048-44.763506-102.525048-44.763507z" p-id="6716" fill="#ee741c"></path></svg>