<?xml version="1.0" standalone="no"?>
<!DOCTYPE svg PUBLIC "-//W3C//DTD SVG 1.1//EN" "http://www.w3.org/Graphics/SVG/1.1/DTD/svg11.dtd" >
<!--
2013-9-30: Created.
-->
<svg>
<metadata>
Created by iconfont
</metadata>
<defs>

<font id="iconfont" horiz-adv-x="1024" >
  <font-face
    font-family="iconfont"
    font-weight="500"
    font-stretch="normal"
    units-per-em="1024"
    ascent="896"
    descent="-128"
  />
    <missing-glyph />
    
    <glyph glyph-name="x" unicode="x" horiz-adv-x="1001"
d="M281 543q-27 -1 -53 -1h-83q-18 0 -36.5 -6t-32.5 -18.5t-23 -32t-9 -45.5v-76h912v41q0 16 -0.5 30t-0.5 18q0 13 -5 29t-17 29.5t-31.5 22.5t-49.5 9h-133v-97h-438v97zM955 310v-52q0 -23 0.5 -52t0.5 -58t-10.5 -47.5t-26 -30t-33 -16t-31.5 -4.5q-14 -1 -29.5 -0.5
t-29.5 0.5h-32l-45 128h-439l-44 -128h-29h-34q-20 0 -45 1q-25 0 -41 9.5t-25.5 23t-13.5 29.5t-4 30v167h911zM163 247q-12 0 -21 -8.5t-9 -21.5t9 -21.5t21 -8.5q13 0 22 8.5t9 21.5t-9 21.5t-22 8.5zM316 123q-8 -26 -14 -48q-5 -19 -10.5 -37t-7.5 -25t-3 -15t1 -14.5
t9.5 -10.5t21.5 -4h37h67h81h80h64h36q23 0 34 12t2 38q-5 13 -9.5 30.5t-9.5 34.5q-5 19 -11 39h-368zM336 498v228q0 11 2.5 23t10 21.5t20.5 15.5t34 6h188q31 0 51.5 -14.5t20.5 -52.5v-227h-327z" />
    

    
    <glyph glyph-name="liwu" unicode="&#58881;" d="M474.18097 768.709107l-134.35708 0q-13.933327 0-21.397609 6.469045t-10.449995 16.421421-2.985713 22.392847 1.990475 23.388084q0.995238 10.947614 3.980951 23.885703t8.45952 21.895228 14.430946 11.942852 21.895228-4.976188q14.928564-8.957139 33.83808-19.407134t36.823792-20.89999 33.340461-18.909515 23.388084-13.435708q9.952376-6.966663 14.928564-15.426183t3.980951-15.923802-7.961901-12.44047-19.904753-4.976188zM551.809505 769.704344l133.361843 0q13.933327 0 21.397609 6.469045t10.449995 16.421421 2.985713 22.392847-0.995238 23.388084q-1.990475 10.947614-4.478569 23.388084t-7.961901 21.397609-14.430946 11.942852-21.895228-3.980951q-14.928564-8.957139-33.83808-19.407134t-37.321411-20.89999-33.83808-18.909515-22.392847-13.435708q-10.947614-6.966663-15.923802-15.426183t-3.980951-15.923802 7.961901-12.44047 20.89999-4.976188zM460.247643 704.018661l-288.618913 0q-31.847604 0-41.302362-10.449995t-9.454758-33.340461l0-87.580912q0-24.880941 10.449995-36.823792t41.302362-11.942852l287.623676 0 0 180.138011zM568.728545 704.018661l284.637963 0q31.847604 0 43.292837-12.44047t11.445233-35.330936l0-85.590436q0-23.885703-10.449995-35.330936t-41.302362-11.445233l-287.623676 0 0 180.138011zM460.247643 471.133055l-305.537953 0 0-163.218972 0-64.690446 0-60.709496 0-51.752357 0-35.828555q0-50.757119 28.861891-78.623773t89.571387-27.866654l187.104675 0 0 482.690252zM568.728545 471.133055l304.542716 0 0-373.214112q-0.995238-50.757119-28.861891-80.116629t-88.576149-29.35951l-187.104675 0 0 482.690252z"  horiz-adv-x="1024" />

    
    <glyph glyph-name="anonymous-iconfont" unicode="&#58894;" d="M127.999-223.997h896v640l-896-640zM967.743 75.651l-226.24-226.304c-7.616-7.616-18.112-9.984-28.032-8.32-9.984-1.728-20.544 0.64-28.224 8.32l-135.744 135.808c-12.544 12.48-12.544 32.832 0 45.248 12.48 12.544 32.768 12.544 45.248 0l118.656-118.656 209.152 209.152c12.48 12.544 32.768 12.544 45.248 0 12.416-12.48 12.416-32.704-0.064-45.248z"  horiz-adv-x="1024" />

    
    <glyph glyph-name="laba" unicode="&#58883;" d="M872.802928 140.00594 872.864326 140.00594 872.864326 140.375354ZM744.055658 703.200926c-4.814656 2.889817-9.601682 5.251607-15.442714 5.251607-14.262842 0-25.758664-11.559267-25.758664-25.805736 0-10.285251 6.088672-18.519796 14.6957-23.195282 94.679359-55.247278 158.344355-157.787676 158.344355-275.30416 0-117.424386-63.605643-219.931015-158.159136-275.18034-8.29492-4.538363-15.442714-13.050224-15.442714-23.583115 0-14.261818 11.559267-25.820062 25.791409-25.820062 5.716188 0 10.252505 2.202155 15.22475 5.063319 109.871363 64.133669 183.764304 183.143157 183.764304 319.520197C927.074995 520.214335 853.495186 638.989485 744.055658 703.200926zM773.946432 384.132006c0 79.96524-43.344181 149.739373-107.821681 187.289594-2.920516 1.52268-9.785877 4.520967-14.603603 4.520967-14.325263 0-25.914206-11.589966-25.914206-25.89988 0-9.616008 5.096065-18.176988 12.865006-22.666232 49.839105-28.307719 83.45983-81.829703 83.45983-143.244448 0-62.472843-34.801621-116.817566-86.070284-144.750755-7.457856-4.538363-12.397355-12.803607-12.397355-22.188348 0-14.325263 11.588943-25.943882 25.882484-25.943882 6.090718-0.031722 13.33061 3.542686 13.33061 3.542686C729.048873 231.828228 773.946432 302.705486 773.946432 384.132006zM541.3694 771.327536c-10.846022 5.219885-23.740704 3.790326-33.215496-3.712555-0.435928-0.358157-46.423309-36.914748-97.195669-74.296123-88.308255-65.081251-114.036219-75.925227-119.257128-77.649498l-110.6194 0c-0.63752 0-1.243317-0.062422-1.879813-0.093121l-56.504922 0c-14.231119 0-25.775037-11.543917-25.775037-25.775037l0-411.697573c0-14.261818 11.512195-25.761734 25.775037-25.761734l189.511191-0.027629c5.096065-1.865487 29.395494-13.0799 107.761306-76.999698 45.613874-37.162388 86.505189-73.485665 86.940095-73.829496 5.841032-5.218862 13.298887-7.92039 20.820188-7.92039 4.349051 0 8.729825 0.930185 12.862959 2.764973 11.277858 5.064342 18.517749 16.252149 18.517749 28.619828 0 0 0.031722 97.257068 0.031722 132.212184 0.808412 2.484587 1.213641 5.127787 1.213641 7.863085 0 2.792603-1.245364 578.026786-1.245364 578.026786C559.110459 755.107109 552.214399 766.075929 541.3694 771.327536zM508.308423 169.529347c0-1.494027-0.467651-94.617961-0.467651-94.617961-13.889335 11.745509-29.332049 24.64019-45.240367 37.507242-104.59008 84.702124-130.505309 91.816149-148.030451 91.816149-0.372483 0-0.683569-0.091074-1.025353-0.091074s-0.652869 0.091074-1.025353 0.091074L170.394297 204.234777c-18.037818 0-22.248723 5.128811-22.248723 23.246447L148.145573 543.440315c0 12.32163 1.461281 20.057825 16.298198 20.057825l128.065747 0c17.090237 0 43.315528 6.991228 157.787676 90.839915 20.383236 14.914688 40.330544 29.938869 57.544601 43.113937 0 0 0.373507-445.207781 0.467651-521.368368C507.779374 173.971519 508.308423 171.765271 508.308423 169.529347z"  horiz-adv-x="1024" />

    
    <glyph glyph-name="shimingrenzheng" unicode="&#58946;" d="M934.016-86.176l1.024 0c0 0 0 0.384 0 1.408C934.656-85.28 934.272-85.664 934.016-86.176L934.016-86.176zM593.152 183.776l-3.072 0.64-1.536 31.488 0 71.68c0 0 45.568 30.464 51.456 75.52 2.304 0.128 4.608 0.384 7.552 0.768 32.768 4.224 56.576 88.832 56.576 88.832s1.536 39.552-18.304 39.552c-2.176 0-24.448-0.384-26.24-1.024l5.12 70.144 0.512 14.976c0 0 0.384 145.792-169.6 147.328-176.384-1.536-143.36-80-143.36-80 0-0.128 0.128-0.384 0.128-0.512-22.016-13.312-33.024-33.536-33.024-75.008 0-66.432 5.888-80.64 8.96-83.584l-22.912 7.552c0 0-28.416-2.944-25.984-37.888 2.432-34.944 30.464-86.272 63.232-90.496 2.432-0.256 4.608-0.512 6.656-0.64 0.128-54.912 45.952-76.928 45.952-76.928l0.384-68.48-61.44-33.28-181.632-60.16c0 0-65.664-20.352-65.28-105.728l1.28-104.832 502.912 0c-28.928 36.864-46.08 83.328-46.08 133.76C545.024 99.168 563.072 146.528 593.152 183.776L593.152 183.776zM761.6 222.432c-95.872 0-173.568-77.696-173.568-173.568 0-95.872 77.696-173.568 173.568-173.568 95.872 0 173.568 77.696 173.568 173.568C935.168 144.736 857.472 222.432 761.6 222.432L761.6 222.432zM873.344 80.736c-43.392-42.624-71.68-71.424-107.264-108.416-0.64-4.352-4.352-7.04-7.68-10.24-4.48-4.48-10.112-10.496-17.024-13.952-8.96-6.656-14.208-5.376-19.84-0.768-4.096 1.792-8.32 4.864-12.8 9.6-22.4 23.68-41.472 39.936-66.048 65.792-20.352 21.376-9.6 30.848 1.152 41.6 20.736 20.608 30.848 8.32 42.112-2.944 20.736-20.736 29.312-29.184 41.984-41.856 42.624 43.52 56.832 60.16 104.192 106.88 22.4 22.144 32.768 10.752 39.552 3.968C881.92 120.288 896.64 103.648 873.344 80.736L873.344 80.736zM873.344 80.736"  horiz-adv-x="1024" />

    
    <glyph glyph-name="qq" unicode="&#59040;" d="M512 896C229.12 896 0 666.88 0 384c0-282.88 229.12-512 512-512s512 229.12 512 512C1024 666.88 794.88 896 512 896zM782.08 225.28c-11.52-6.4-30.72 7.68-48.64 34.56-6.4-28.16-24.32-53.76-48.64-74.24 25.6-8.96 42.24-25.6 42.24-42.24 0-29.44-46.08-52.48-102.4-52.48-51.2 0-93.44 19.2-101.12 43.52-2.56 0-10.24 0-12.8 0-7.68-24.32-49.92-43.52-101.12-43.52-56.32 0-102.4 23.04-102.4 52.48 0 17.92 16.64 33.28 42.24 42.24-24.32 20.48-42.24 46.08-48.64 74.24-17.92-25.6-37.12-39.68-48.64-34.56-17.92 8.96-14.08 57.6 7.68 107.52 16.64 39.68 39.68 69.12 57.6 75.52 0 2.56 0 5.12 0 7.68 0 15.36 3.84 29.44 11.52 40.96 0 1.28 0 1.28 0 2.56 0 7.68 1.28 14.08 5.12 19.2C340.48 583.68 408.32 665.6 518.4 665.6c110.08 0 177.92-81.92 183.04-185.6 2.56-5.12 5.12-12.8 5.12-19.2 0-1.28 0-1.28 0-2.56 7.68-11.52 11.52-25.6 11.52-40.96 0-2.56 0-5.12 0-7.68 17.92-6.4 40.96-35.84 57.6-75.52C796.16 282.88 800 234.24 782.08 225.28z"  horiz-adv-x="1024" />

    
    <glyph glyph-name="qq-copy" unicode="&#58893;" d="M861.525 893.725h-699.051c-87.381 0-160.199-72.818-160.199-160.199v-706.333c0-80.099 72.818-152.917 160.199-152.917h706.333c87.381 0 160.199 72.818 160.199 160.199v699.051c-7.282 87.381-80.099 160.199-167.481 160.199zM825.117 209.237c-7.282-21.845-21.845-29.127-58.254 43.691-7.282-21.845-43.691-80.099-50.973-87.381 0 0 43.691 0 43.691-43.691 14.563-21.845 7.282-43.691 7.282-43.691-7.282-21.845-123.79-87.381-233.017-7.282h-43.691c0 0-87.381-72.818-203.89-21.845-58.254 21.845-43.691 65.536-36.409 72.818-7.282 14.563 7.282 36.409 43.691 43.691 0 0-36.409 36.409-50.973 87.381 0 0-29.127-58.254-58.254-50.973-21.845 7.282-21.845 152.917 58.254 218.453 0 0-21.845 36.409 0 58.254 0 0-7.282 21.845 21.845 43.691 7.282 0 7.282 225.735 225.735 233.017 94.663 7.282 233.017-58.254 240.299-233.017 0 0 43.691-29.127 21.845-94.663 14.563-14.563 101.945-116.509 72.818-218.453z"  horiz-adv-x="1024" />

    
    <glyph glyph-name="shouji" unicode="&#59730;" d="M661.333333 853.333333l-341.333333 0C261.12 853.333333 213.333333 805.546667 213.333333 746.666667l0-725.333333C213.333333-37.546667 261.12-85.333333 320-85.333333l341.333333 0c58.88 0 106.666667 47.786667 106.666667 106.666667l0 725.333333C768 805.546667 720.213333 853.333333 661.333333 853.333333zM490.666667-42.666667c-35.413333 0-64 28.586667-64 64s28.586667 64 64 64 64-28.586667 64-64S526.08-42.666667 490.666667-42.666667zM682.666667 128 298.666667 128 298.666667 725.333333l384 0L682.666667 128z"  horiz-adv-x="1024" />

    
    <glyph glyph-name="ios-copy" unicode="&#58904;" d="M666.867 729.066c57.877 64.679 53.744 161.479 53.744 161.479s-97.665-7.83-155.546-72.596c-57.876-64.598-53.762-161.559-53.762-161.559s97.683 7.908 155.564 72.676v0zM786.733 350.659c0.903 82.428 48.052 153.827 116.766 190.348-47.007 68.214-130.627 106.586-188.982 107.226-70.207 0.769-167.441-46.803-195.505-46.497-29.804 0.327-91.836 44.985-175.060 47.086-68.711 1.763-184.677-36.188-226.379-152.051-41.682-115.87-41.626-283.952 41.201-441.005 66.412-125.772 125.786-177.084 183.707-177.717 58.031-0.638 126.905 42.068 181.391 41.471 54.39-0.597 104.869-44.61 161.071-45.227 56.131-0.617 114.565 43.985 157.395 105.95 42.813 62.060 82.581 158.794 82.581 158.794s0.263 2.621 0.829 6.26c-82.292 32.681-140.031 112.528-139.013 205.364v0zM786.733 350.659z"  horiz-adv-x="1024" />

    
    <glyph glyph-name="phone" unicode="&#58972;" d="M213.333 853.333c-93.867 0-170.667-76.8-170.667-170.667v-597.333c0-93.867 76.8-170.667 170.667-170.667h597.333c93.867 0 170.667 76.8 170.667 170.667v597.333c0 93.867-76.8 170.667-170.667 170.667h-597.333zM751.061 101.461c-43.307-43.264-204.736-2.24-364.331 157.269-159.531 159.552-200.555 321.024-157.248 364.331 37.525 37.568 83.243 103.104 151.915 17.707 68.651-85.376 34.901-109.269-3.861-148.011-27.008-27.115 29.504-95.552 88.619-154.667 59.093-59.115 127.552-115.648 154.581-88.512 38.763 38.677 62.635 72.448 148.032 3.819 85.44-68.629 19.84-114.368-17.707-151.936z"  horiz-adv-x="1024" />

    
    <glyph glyph-name="zhanghuchongzhi-copy" unicode="&#58913;" d="M512 834c-248.512 0-450-201.487-450-450 0-248.541 201.487-450 450-450s450 201.459 450 450c0 248.512-201.487 450-450 450zM765.125 271.5h-225v-140.625h-56.25v140.625h-225v56.25h225v84.375h-196.875v56.25h143.016l-134.072 134.1 39.797 39.797 167.344-167.344-6.553-6.553h30.966l-6.525 6.525 167.344 167.344 39.797-39.797-134.128-134.072h143.016v-56.25h-196.875v-84.375h225v-56.25z"  horiz-adv-x="1024" />

    
    <glyph glyph-name="touzhujilu" unicode="&#58891;" d="M797.283953 689.582767l-51.961442 0 0-191.603853c0-52.012607-40.708144-94.177939-90.929965-94.177939l-25.980721 0c-50.223868 0-90.932012 42.165332-90.932012 94.177939l0 191.603853L225.716276 689.582767c-57.390082 0-103.921861-46.529733-103.921861-103.920838l0-545.585933c0-57.392128 46.531779-103.923908 103.921861-103.923908l571.567677 0c57.390082 0 103.920838 46.531779 103.920838 103.923908l0 545.585933C901.204791 643.053034 854.674035 689.582767 797.283953 689.582767zM303.656393 520.711661l181.861978 0c14.347776 0 25.979698-11.621688 25.979698-25.980721 0-14.335497-11.631922-25.979698-25.979698-25.979698l-181.861978 0c-14.347776 0-25.980721 11.644201-25.980721 25.979698C277.676695 509.089973 289.30964 520.711661 303.656393 520.711661zM303.656393 416.790824l181.861978 0c14.347776 0 25.979698-11.621688 25.979698-25.982768 0-14.33345-11.631922-25.980721-25.979698-25.980721l-181.861978 0c-14.347776 0-25.980721 11.647271-25.980721 25.980721C277.676695 405.169135 289.30964 416.790824 303.656393 416.790824zM719.34179 53.065845 303.656393 53.065845c-14.347776 0-25.980721 11.644201-25.980721 25.979698 0 14.359033 11.632945 25.980721 25.980721 25.980721l415.685397 0c14.347776 0 25.980721-11.620665 25.980721-25.980721C745.322511 64.710047 733.688543 53.065845 719.34179 53.065845zM719.34179 156.986683 303.656393 156.986683c-14.347776 0-25.980721 11.644201-25.980721 25.980721 0 14.360056 11.632945 25.979698 25.980721 25.979698l415.685397 0c14.347776 0 25.980721-11.618619 25.980721-25.979698C745.322511 168.630884 733.688543 156.986683 719.34179 156.986683zM719.34179 260.907521 303.656393 260.907521c-14.347776 0-25.980721 11.647271-25.980721 25.980721 0 14.360056 11.632945 25.979698 25.980721 25.979698l415.685397 0c14.347776 0 25.980721-11.618619 25.980721-25.979698C745.322511 272.554792 733.688543 260.907521 719.34179 260.907521zM683.048189 832.526363c-61.47512 0.505513-110.923322-48.790216-110.415762-110.11184l2.130524-214.439954c0.304945-36.788881 30.445406-66.829058 67.322291-67.13298 36.890188-0.304945 66.562998 29.303396 66.259076 66.067718l-1.789763 170.038698-44.500517 0.357134 1.76418-170.040744c0.100284-12.228509-9.807367-22.12388-22.073738-22.021549-12.291954 0.101307-22.338774 10.122545-22.453385 22.375613l-2.131547 214.465536c-0.304945 36.688597 29.43131 66.346057 66.258053 66.042135 36.839023-0.279363 67.043952-30.395264 67.323315-67.131957l44.51382-0.355087C794.78504 781.959687 744.535589 832.043363 683.048189 832.526363z"  horiz-adv-x="1024" />

    
    <glyph glyph-name="caijirenwu" unicode="&#59018;" d="M832 640 832 768 0 768l0-832 832 0 192 704L832 640zM512 448 448 448 448 512 192 512l0-320 256 0 0 64 64 0 0-64L448 192l0-64L192 128l0 64L128 192 128 512l64 0L192 576l256 0 0-64 64 0L512 448zM640 128 576 128 576 576l64 0L640 128zM832 576l108.8 0L832 179.2 832 576z"  horiz-adv-x="1024" />

    
    <glyph glyph-name="xiazai20" unicode="&#58900;" d="M511.983627-126.005576c-177.413666 0-356.430852 48.131207-356.430852 155.653059 0 83.935668 122.605386 135.997394 236.549507 148.835793l6.237051 0.718361L240.863766 431.372937c-5.077645 9.096169-9.868765 18.74697-14.093996 28.512381l-4.1536 8.400321-0.652869 3.360538c-13.843286 35.848463-20.852934 73.371054-20.852934 111.49842 0 171.404812 139.484821 310.86098 310.917262 310.86098 171.427324 0 310.887586-139.456169 310.887586-310.86098 0-38.164205-7.024997-75.670423-20.906146-111.49842l-2.082428-5.38873 0.194428 0-1.603521-3.300162c-4.535293-10.694573-9.552563-20.965497-15.000646-30.699186L511.853667-18.597311l-64.345494 105.092523-2.430352-0.211824c-104.22783-8.933463-170.69873-37.702694-188.130751-53.720505l-3.148713-2.898003 3.148713-2.914376c22.738887-21.12411 110.175285-54.535057 248.78825-55.520501l12.375865-0.020466-0.016373 0.020466c138.357138 0.969071 225.969545 34.304294 248.898767 55.385425l3.229554 2.967588-3.284813 2.898003c-12.722766 11.271718-59.075467 33.511231-130.370233 46.566572l54.754045 87.675852c114.248044-25.745361 177.125093-74.360592 177.125093-137.074935 0-107.527992-179.017186-155.653059-356.453365-155.653059L511.983627-126.004553zM511.977487 750.840946c-73.081459 0-132.527362-59.488883-132.527362-132.598994 0-73.05076 59.440787-132.48029 132.527362-132.48029 73.132624 0 132.62253 59.429531 132.62253 132.48029C644.600017 691.352063 585.110111 750.840946 511.977487 750.840946L511.977487 750.840946zM511.977487 750.840946"  horiz-adv-x="1024" />

    
    <glyph glyph-name="xiazai44" unicode="&#58905;" d="M805.695-77.009c-1.963 0-3.541 0.054-4.672 0.111L203.268-76.898c-40.042 0-63.091 16.865-75.375 31.013-26.919 31.003-24.757 73.037-23.543 84.7l0 359.53 64 0 0-363.913-0.302-1.883c-0.761-6.401-0.833-26.277 8.289-36.609 1.93-2.186 7.803-8.838 26.932-8.838l600.308 0 0.75-0.082c2.153-0.076 22.315-0.434 34.996 11.557 8.454 7.994 12.74 21.212 12.74 39.288L852.063 398.621l64 0 0-360.756c0-45.871-18.247-72.371-33.555-86.525C854.974-74.12 820.092-77.008 805.695-77.009zM136.349 368.312 38 368.312c-13.291 0-25.197 8.214-29.916 20.639-4.718 12.425-1.266 26.472 8.674 35.294l472.219 419.09c12.02 10.668 30.087 10.766 42.223 0.227l478.781-415.791c9.955-8.646 13.588-22.513 9.151-34.929s-16.035-20.84-29.216-21.219l-104.938-3.012c-0.313-0.01-0.624-0.014-0.936-0.014-17.247 0-31.471 13.729-31.97 31.082-0.507 17.666 13.403 32.398 31.069 32.905l22.931 0.658L510.448 776.821 122.266 432.312l14.083 0c17.673 0 32-14.327 32-32S154.022 368.312 136.349 368.312zM403-45.201c-14.912 0-27 12.088-27 27L376 207.645c0.002 4.866 1.234 24.9 20.021 43.995 22.8 23.173 61.458 34.923 114.901 34.923 52.638 0 90.876-11.911 113.652-35.403 19.225-19.828 20.464-40.706 20.426-46.244l0-222.25c0-14.912-12.088-27-27-27s-27 12.088-27 27L591 204.598c-0.179 1.167-1.308 6.104-8.017 11.541-7.569 6.134-26.997 16.424-72.062 16.424-52.272 0-70.848-13.145-76.408-18.795-2.73-2.775-3.876-5.136-4.357-6.627-0.073-0.225-0.123-0.411-0.157-0.549l0-224.793C430-33.113 417.912-45.201 403-45.201zM410 170 401-36 163-23 146 231 151 397 80 420 509 809 932 440 889 399 871 29 854-28 630-36 626 113 612 213 584 236 529 245 461 239 419 233Z"  horiz-adv-x="1024" />

    
    <glyph glyph-name="mimaicon" unicode="&#58912;" d="M510.987439 345.323119M514.362302 376.999562c-41.970904 0-76.117608-34.146705-76.117608-76.116585 0-34.842553 23.539112-64.270792 55.54506-73.27077l0-122.680087c0-11.361769 9.209756-20.572548 20.572548-20.572548 11.362792 0 20.572548 9.211802 20.572548 20.572548L534.93485 227.61323c32.002878 8.999978 55.54506 38.428218 55.54506 73.27077C590.480934 342.852858 556.334229 376.999562 514.362302 376.999562zM514.362302 265.911488c-19.283182 0-34.971489 15.687284-34.971489 34.971489 0 19.283182 15.688307 34.970466 34.971489 34.970466s34.972513-15.687284 34.972513-34.970466C549.334815 281.599795 533.645484 265.911488 514.362302 265.911488zM799.342846 499.917056l-498.401284 0 0 80.231299c0 117.120464 95.284133 212.405621 212.404598 212.405621 117.121488 0 212.404598-95.285157 212.404598-212.405621 0-11.361769 9.210779-20.572548 20.572548-20.572548s20.572548 9.210779 20.572548 20.572548c0 67.726497-26.373671 131.398656-74.262354 179.288362C644.744815 807.325401 581.071633 833.699072 513.345136 833.699072c-67.725474 0-131.397632-26.373671-179.287339-74.263377s-74.263377-111.561865-74.263377-179.288362l0-80.231299-32.44597 0c-32.207539 0-58.317197-26.109658-58.317197-58.317197l0-445.901583c0-32.208563 26.109658-58.31822 58.317197-58.31822l571.993372 0c32.207539 0 58.317197 26.110681 58.317197 58.31822L857.659019 441.599859C857.660042 473.807399 831.549362 499.917056 799.342846 499.917056zM814.995337 7.573745c0-16.102746-13.056364-29.15911-29.15911-29.15911L239.849158-21.585365c-16.10377 0-29.15911 13.056364-29.15911 29.15911L210.690048 430.642297c0 16.10377 13.054317 29.15911 29.15911 29.15911l545.987069 0c16.102746 0 29.15911-13.05534 29.15911-29.15911L814.995337 7.573745z"  horiz-adv-x="1024" />

    
    <glyph glyph-name="fuwu" unicode="&#58935;" d="M504.576146 879.547872C226.475646 879.547872 1.027715 654.100334 1.027715 376.000031c0-278.101286 225.448128-503.545873 503.548431-503.545873 278.101286 0 503.547054 225.444587 503.547054 503.545873C1008.123003 654.100334 782.677432 879.547872 504.576146 879.547872zM530.453564 161.787421c-0.64728-39.344182-25.922669-97.199974-92.897629-97.199974-66.989913 0-92.276516 57.849693-92.923796 96.733697l0.107224 16.309876c0.022625 14.897271 11.874731 26.951627 26.470988 26.951627l0.067482 0c14.618882-0.033446 26.43459-12.167482 26.409604-27.081477l-0.104273-15.780641c1.330957-39.947391 30.922856-43.098994 39.972968-43.098994 37.335647 0 39.829346 36.334036 39.947195 43.616425l0 168.985856c0 14.919897 11.852105 27.013601 26.470988 27.013601 14.621833 0 26.479447-12.093704 26.479447-27.013601L530.453761 161.787421 530.453564 161.787421zM710.481344 396.747413c-16.164287 0.937474-64.226088 3.129175-110.635456-57.059776-21.092663 31.922303-60.838198 59.080312-95.740152 59.080312-41.159713 0-79.477494-26.932937-100.315377-56.975177-30.950793 35.155554-51.709979 48.175911-101.272524 55.50355-14.379251 2.129727-68.956738 3.90532-116.245935-47.737177 19.649957 155.980255 140.651726 278.166211 291.075999 291.259362L477.3479 677.698501c0 15.34781 10.5241 22.300657 25.571485 22.300657 15.044828 0 28.051413-6.952847 28.051413-22.300657l0-36.88019c149.776993-13.102005 270.367572-134.365243 290.714388-289.402122C775.427506 390.762535 734.47988 395.357434 710.481344 396.747413z"  horiz-adv-x="1024" />

    
    <glyph glyph-name="yinxingqia002" unicode="&#58906;" d="M820.637904 725.125861 203.365414 725.125861c-69.736119 0-126.472052-54.08573-126.472052-120.564058l0-63.615269 870.214395 0 0 63.615269C947.108756 671.040131 890.373823 725.125861 820.637904 725.125861zM76.893562 163.436886c0-66.480326 56.734934-120.565057 126.472052-120.565057l617.272489 0c69.736119 0 126.471053 54.08573 126.471053 120.565057L947.109156 417.637738 76.893562 417.637738 76.893562 163.436886zM601.989547 228.697039l180.985292 0c18.124312 0 32.815951-14.691639 32.815951-32.815951 0-18.124312-14.691639-32.815951-32.815951-32.815951l-180.985292 0c-18.124312 0-32.815951 14.691639-32.815951 32.815951C569.173596 214.0054 583.865235 228.697039 601.989547 228.697039z"  horiz-adv-x="1024" />

    
    <glyph glyph-name="bao1" unicode="&#58966;" d="M452.935278 632.91207l265.931698 0 0-129.485073-265.931698 0 0 129.485073ZM518.140349 876.721935c-272.54635 0-493.489414-220.942041-493.489414-493.487368 0-272.54635 220.942041-493.488391 493.489414-493.488391 272.54328 0 493.487368 220.942041 493.487368 493.488391C1011.627716 655.779893 790.686698 876.721935 518.140349 876.721935zM263.578606 79.467145c2.785439 26.456558 4.178159 48.035016 4.178159 83.539648L267.756765 385.77646c0 27.151383 0.697895 52.910047 2.089591 83.539648-20.188808-36.896328-36.897352-59.172681-73.097832-98.1586-14.619976 23.671119-14.619976 23.671119-28.542056 39.681768 61.260226 60.566424 103.725386 125.308961 135.052882 207.454866 13.923104 35.503609 24.365944 71.705112 27.845185 96.070033l47.339168-15.315824c-4.178159-9.746992-6.961552-18.10024-12.532431-37.592177-11.138688-34.809807-29.933753-80.05836-55.691393-130.180921l0-370.356003c0-32.023344 0.694825-56.388265 3.482311-81.452103L263.578606 79.467145 263.578606 79.467145zM800.318056 130.287601c-42.466184 25.756617-75.187423 48.731888-110.690008 80.057337-38.98592 33.414017-59.869552 57.782008-93.285616 107.210767 2.089591-21.582551 3.480264-43.163055 3.480264-74.488505l0-95.374184c0-25.756617 0.697895-47.340191 4.178159-68.223824l-50.122561 0c2.784416 21.581528 4.176113 43.162032 4.176113 68.223824l0 94.677313c0 32.720216 0.696872 55.691393 2.784416 75.185376-32.720216-52.213175-58.476833-81.450057-105.816001-121.130801-34.109866-29.238928-57.779961-45.947472-96.069009-67.527976-9.049097 15.314801-18.797112 27.149337-32.024367 38.98592 55.692417 27.15036 92.591815 52.212152 136.449695 91.195002 34.109866 30.630624 45.246507 43.85788 80.056314 91.89392L423.001525 350.971769c-26.454512 0-49.426713-1.393743-68.919672-4.177136L354.081853 394.129708c20.187785-2.783393 41.072441-4.176113 68.919672-4.176113l135.054929 0 0 73.792657-77.275991 0c-34.806737 0-51.514257-0.696872-73.792657-2.783393 1.391696 18.795065 2.784416 36.895305 2.784416 62.654992l0 90.499154c0 26.454512-0.694825 41.769312-2.784416 61.95812 19.491936-2.785439 38.983873-3.482311 76.576049-3.482311l205.368344 0c38.288025 0 57.08309 0.696872 76.577073 3.482311-2.787486-21.581528-2.787486-34.80776-2.787486-63.35084l0-89.803305c0-28.54308 0.698918-43.858904 2.787486-61.95812-16.011672 1.39272-45.946448 2.784416-73.097832 2.784416L599.821673 463.747275l0-73.791633 142.016481 0c25.758664 0 48.731888 1.390673 68.222801 4.176113l0-47.337121c-23.669072 2.784416-47.339168 4.177136-67.526953 4.177136L611.657232 350.971769c42.465161-54.996568 55.691393-68.920696 93.980441-99.550297 40.375569-33.416064 77.273944-56.388265 126.003785-77.970816C818.418296 159.526529 810.75885 148.386818 800.318056 130.287601z"  horiz-adv-x="1024" />

    
    <glyph glyph-name="anzhuo-copy-copy" unicode="&#58989;" d="M260.88 152.865c0-32.251 25.483-58.51 56.81-58.51h41.014c-1.375-4.857-2.147-10.042-2.147-15.348v-116.957c0-30.581 24.114-55.409 53.831-55.409 29.743 0 53.825 24.828 53.825 55.409v116.957c0 5.335-0.804 10.493-2.147 15.348h99.971c-1.369-4.857-2.147-10.042-2.147-15.348v-116.957c0-30.581 24.114-55.409 53.83-55.409 29.717 0 53.831 24.828 53.831 55.409v116.957c0 5.335-0.772 10.493-2.175 15.348h41.010c31.359 0 56.814 26.261 56.814 58.51v406.257h-502.379v-406.257h0.058zM171.134 559.123c-29.747 0-53.83-24.8-53.83-55.381v-236.957c0-30.58 24.082-55.381 53.83-55.381 29.717 0 53.831 24.8 53.831 55.381v236.957c0 30.613-24.114 55.409-53.831 55.409v-0.029zM852.943 559.123c-29.716 0-53.798-24.8-53.798-55.381v-236.957c0-30.58 24.082-55.381 53.798-55.381s53.804 24.8 53.804 55.381v236.957c0 30.613-24.086 55.409-53.804 55.409v-0.029zM635.57 780.849l42.443 65.541c2.742 4.234 1.61 9.987-2.475 12.788-4.17 2.861-9.714 1.696-12.49-2.564l-23.964-37.017-10.1-15.558-10.225-15.801c-32.431 12.935-68.585 20.179-106.737 20.179-38.149 0-74.306-7.273-106.706-20.179l-20.297 31.359-24.023 37.017c-2.743 4.235-8.314 5.394-12.458 2.564-4.083-2.834-5.216-8.555-2.475-12.788l42.444-65.541c-76.125-36.484-127.659-105.664-127.659-184.796h502.353c0 79.132-51.506 148.283-127.631 184.763v0.033zM404.394 669.94c-14.871 0-26.915 12.43-26.915 27.687 0 15.263 12.044 27.662 26.915 27.662 14.845 0 26.915-12.371 26.915-27.662 0-15.291-12.070-27.687-26.915-27.687v0zM619.711 669.94c-14.873 0-26.912 12.43-26.912 27.687 0 15.263 12.038 27.662 26.912 27.662 14.877 0 26.886-12.371 26.886-27.662 0-15.291-12.043-27.687-26.886-27.687v0zM619.711 669.94zM262.863 153.171c0-32.251 25.483-58.51 56.81-58.51h41.014c-1.375-4.857-2.147-10.042-2.147-15.348v-116.957c0-30.581 24.114-55.409 53.831-55.409 29.743 0 53.825 24.828 53.825 55.409v116.957c0 5.335-0.804 10.493-2.147 15.348h99.971c-1.369-4.857-2.147-10.042-2.147-15.348v-116.957c0-30.581 24.114-55.409 53.83-55.409 29.717 0 53.831 24.828 53.831 55.409v116.957c0 5.335-0.772 10.493-2.175 15.348h41.010c31.359 0 56.814 26.261 56.814 58.51v406.257h-502.379v-406.257h0.058zM173.117 559.429c-29.747 0-53.83-24.8-53.83-55.381v-236.957c0-30.58 24.082-55.381 53.83-55.381 29.717 0 53.831 24.8 53.831 55.381v236.957c0 30.613-24.114 55.409-53.831 55.409v-0.029zM854.924 559.429c-29.716 0-53.798-24.8-53.798-55.381v-236.957c0-30.58 24.082-55.381 53.798-55.381s53.804 24.8 53.804 55.381v236.957c0 30.613-24.086 55.409-53.804 55.409v-0.029zM637.553 781.155l42.443 65.541c2.742 4.234 1.61 9.987-2.475 12.788-4.17 2.861-9.714 1.696-12.49-2.564l-23.964-37.017-10.1-15.558-10.225-15.801c-32.431 12.935-68.585 20.179-106.737 20.179-38.149 0-74.306-7.273-106.706-20.179l-20.297 31.359-24.023 37.017c-2.743 4.235-8.314 5.394-12.458 2.564-4.083-2.834-5.216-8.555-2.475-12.788l42.444-65.541c-76.125-36.484-127.659-105.664-127.659-184.796h502.353c0 79.132-51.506 148.283-127.631 184.763v0.033zM406.377 670.246c-14.871 0-26.915 12.43-26.915 27.687 0 15.263 12.044 27.662 26.915 27.662 14.845 0 26.915-12.371 26.915-27.662 0-15.291-12.070-27.687-26.915-27.687v0zM621.694 670.246c-14.873 0-26.912 12.43-26.912 27.687 0 15.263 12.038 27.662 26.912 27.662 14.877 0 26.886-12.371 26.886-27.662 0-15.291-12.043-27.687-26.886-27.687v0zM621.694 670.246z"  horiz-adv-x="1024" />

    
    <glyph glyph-name="zhongjiangjilu" unicode="&#59057;" d="M953.434197 150.786286l-87.64564 149.654592-22.069452 37.681755c23.41281 47.999647 36.57546 101.914585 36.57546 158.911344 0 200.498997-162.535024 363.045309-363.045309 363.045309s-363.045309-162.535024-363.045309-363.045309c0-56.996759 13.16265-110.900408 36.57546-158.900055l-22.080741-37.693044L81.053026 150.786286l-39.375063-67.224341 74.889384-21.505016c1.896505-0.541859 1.896505-0.541859 10.396913-2.980223 11.333877-3.251152 11.333877-3.251152 27.409018-7.856951 24.462661-6.999008 48.755992-13.941572 72.123647-20.601918 17.22659-16.684732 35.412722-34.182251 53.689163-51.645905 6.8071-6.502304 13.128784-12.530482 18.807011-17.93778 5.847558-5.554051 5.847558-5.554051 7.168339-6.818388l55.314739-52.458693 38.528409 65.790674 80.149928 136.864469 17.632984 30.118311c6.44586-0.338662 12.936876-0.53057 19.461757-0.53057 6.53617 0 13.015897 0.191908 19.461757 0.53057l17.632984-30.118311 80.149928-136.864469 38.528409-65.790674 55.314739 52.458693c1.320781 1.253048 1.320781 1.253048 7.168339 6.818388 5.678227 5.396009 11.999912 11.435476 18.807011 17.93778 18.276441 17.463653 36.462573 34.961173 53.689163 51.645905 23.367655 6.660346 47.660986 13.60291 72.112358 20.601918 16.075141 4.605799 16.075141 4.605799 27.397729 7.856951 8.500408 2.438364 8.500408 2.438364 10.385625 2.980223l74.878095 21.505016L953.434197 150.786286zM517.249256 799.571734c167.084379 0 302.537758-135.453379 302.537758-302.537758s-135.453379-302.537758-302.537758-302.537758-302.537758 135.453379-302.537758 302.537758S350.164877 799.571734 517.249256 799.571734zM347.782957-1.882394c0 0-46.453092 44.059883-90.095293 86.516768-61.929931 17.621696-124.424297 35.570764-124.424297 35.570764l87.64564 149.654592c50.562187-65.982582 123.080939-114.422489 207.023878-134.877654L347.782957-1.882394zM776.810848 84.634373c-43.6422-42.456885-90.095293-86.516768-90.095293-86.516768l-80.161217 136.864469c83.93165 20.455165 156.461691 68.895072 207.01259 134.877654l87.64564-149.654592C901.223856 120.205137 838.740778 102.256069 776.810848 84.634373zM517.249256 285.257546c116.962452 0 211.77643 94.813979 211.77643 211.77643 0 116.962452-94.813979 211.77643-211.77643 211.77643s-211.77643-94.813979-211.77643-211.77643C305.472825 380.071525 400.286804 285.257546 517.249256 285.257546zM517.249256 648.302855c83.547834 0 151.268879-67.721045 151.268879-151.268879 0-83.547834-67.721045-151.268879-151.268879-151.268879s-151.268879 67.721045-151.268879 151.268879C365.980377 580.570521 433.712711 648.302855 517.249256 648.302855z"  horiz-adv-x="1024" />

    
    <glyph glyph-name="weixin" unicode="&#59059;" d="M579.800805 384.131568c-11.668045 0-23.34121-10.835638-23.34121-24.174642 0-10.837685 11.667022-21.675371 23.34121-21.675371 17.512307 0 30.015832 10.837685 30.015832 21.675371C609.816637 373.294906 597.313112 384.131568 579.800805 384.131568L579.800805 384.131568zM503.098457 496.689914c18.341643 0 30.015832 11.668045 30.015832 29.181376 0 18.342667-11.673165 29.179329-30.015832 29.179329-17.508211 0-34.184015-10.837685-34.184015-29.179329C468.913418 508.356935 485.590245 496.689914 503.098457 496.689914L503.098457 496.689914zM512.269278 895.439942c-282.619393 0-511.724066-229.104674-511.724066-511.724066 0-282.617345 229.104674-511.722019 511.724066-511.722019 282.617345 0 511.722019 229.104674 511.722019 511.722019C1023.992321 666.335268 794.887647 895.439942 512.269278 895.439942L512.269278 895.439942zM415.557399 254.072177c-30.851312 0-53.362162 4.998543-82.542514 13.339005l-84.20733-42.524476 24.182833 71.705853c-59.196184 41.682854-94.216703 94.209536-94.216703 158.408359 0 113.388706 106.719204 200.09838 236.784738 200.09838 115.054546 0 217.605567-68.36803 237.614074-165.085028-8.336366 1.671983-15.842372 2.501319-22.51085 2.501319-113.388706 0-200.92874-85.038714-200.92874-187.589735 0-17.506164 2.501319-33.346488 6.670526-50.024339C429.732907 254.072177 422.226902 254.072177 415.557399 254.072177L415.557399 254.072177zM763.227477 172.366166l16.671708-60.032688-63.363344 35.849855c-24.17669-4.998543-47.52302-12.503525-71.69971-12.503525-111.722867 0-200.09838 76.702348-200.09838 171.747364 0 95.046039 88.376537 171.749411 200.09838 171.749411 105.882701 0 200.92874-76.703372 200.92874-171.749411C845.764871 254.072177 809.915017 206.549157 763.227477 172.366166L763.227477 172.366166zM338.018548 555.050619c-17.508211 0-35.849855-10.837685-35.849855-29.179329 0-17.513331 18.341643-29.186496 35.849855-29.186496 16.676827 0 30.015832 11.673165 30.015832 29.186496C368.03438 544.212933 354.695375 555.050619 338.018548 555.050619L338.018548 555.050619zM710.701818 384.131568c-12.508644 0-23.34633-10.835638-23.34633-24.174642 0-10.837685 10.837685-21.675371 23.34633-21.675371 16.671708 0 29.179329 10.837685 29.179329 21.675371C739.881147 373.294906 727.373526 384.131568 710.701818 384.131568L710.701818 384.131568zM710.701818 384.131568"  horiz-adv-x="1024" />

    
    <glyph glyph-name="big-WeChat" unicode="&#59117;" d="M294.033 601.036c-10.619 0-21.179-4.32-28.618-11.819-7.44-7.5-11.819-17.939-11.819-28.618 0-10.559 4.32-21.119 11.819-28.618 7.5-7.38 17.999-11.759 28.618-11.759 10.559 0 21.119 4.38 28.558 11.819 7.5 7.5 11.819 18.059 11.819 28.558 0 10.679-4.32 21.119-11.819 28.618-7.44 7.5-17.999 11.819-28.558 11.819zM600.074 383.249c-8.279 0-16.499-3.42-22.379-9.239s-9.299-14.039-9.299-22.379 3.42-16.499 9.239-22.379 14.159-9.239 22.439-9.239 16.499 3.42 22.379 9.239 9.239 14.039 9.239 22.379-3.42 16.499-9.239 22.379-14.159 9.239-22.379 9.239zM500.241 520.221c10.559 0 21.119 4.38 28.618 11.819 7.44 7.5 11.759 18.059 11.759 28.618 0 10.679-4.32 21.119-11.759 28.618-7.559 7.44-18.119 11.759-28.618 11.759-10.619 0-21.119-4.32-28.618-11.819s-11.819-17.939-11.819-28.618c0-10.559 4.32-21.119 11.819-28.618 7.5-7.38 17.999-11.759 28.618-11.759zM836.34 864h-648.681c-85.915 0-155.511-69.836-155.511-156.051v-647.902c0-86.214 69.596-156.051 155.511-156.051h648.741c85.915 0 155.511 69.836 155.511 156.051v647.902c-0.060 86.214-69.657 156.051-155.571 156.051zM392.308 220.838c-36.298 0-65.575 7.44-101.933 14.579l-101.693-50.997 29.098 87.534c-72.835 50.937-116.393 116.513-116.393 196.368 0 138.532 131.033 247.485 290.982 247.485 143.092 0 268.423-87.054 293.562-204.348-9.239 1.081-18.599 1.74-28.018 1.74-138.233 0-247.365-103.193-247.365-230.266 0-21.239 3.3-41.517 8.939-61.015-8.999-0.601-18.059-1.081-27.178-1.081zM821.461 118.905l21.899-72.655-79.795 43.737c-29.098-7.321-58.375-14.639-87.354-14.639-138.412 0-247.425 94.614-247.425 211.187 0 116.333 109.013 211.187 247.425 211.187 130.793 0 247.185-94.794 247.185-211.187 0-65.696-43.497-123.772-101.933-167.63zM758.585 383.249c-8.279 0-16.499-3.42-22.379-9.239s-9.239-14.039-9.239-22.379 3.42-16.499 9.239-22.379 14.099-9.239 22.379-9.239 16.499 3.42 22.379 9.239 9.239 14.039 9.239 22.379-3.42 16.499-9.239 22.379-14.099 9.239-22.379 9.239z"  horiz-adv-x="1024" />

    
    <glyph glyph-name="iconfontanquan" unicode="&#58931;" d="M870.26344 705.591179c-10.737563 9.749048-24.877622 15.083548-39.499659 15.083548-1.333369 0-2.666739 0-3.999085-0.092098-0.806366-0.091074-10.117438-0.645707-24.668867-0.645707-24.117305 0-71.201716 1.655711-115.803585 12.230568-57.590707 13.703107-124.056558 77.159411-143.392971 89.666272-9.748025 6.343481-20.967565 9.470708-32.209618 9.470708-11.196004 0-22.415545-3.127227-32.141057-9.379634-2.344397-1.563613-71.938498-73.569649-140.011964-89.757346-44.578332-10.574857-92.560185-12.230568-116.654977-12.230568-14.553475 0-23.839988 0.554633-24.758918 0.645707-1.264808 0.092098-2.529615 0.092098-3.816936 0.092098-14.645573 0-28.830658-5.333477-39.613246-15.083548-11.701518-10.574857-18.368365-25.380066-18.368365-40.922056l0-140.058013c0-517.749452 350.285225-584.42201 365.135459-587.085679 3.40352-0.555656 6.828529-0.829902 10.254562-0.829902 3.402497 0 6.873555 0.274246 10.230002 0.829902 14.87377 2.664692 367.732613 69.337251 367.732613 587.085679L888.67683 664.669123C888.67683 680.211113 881.98747 695.015299 870.26344 705.591179zM740.77926 505.299256l-242.8482-234.965664c-1.517565-2.480497-3.379984-4.967133-5.633306-7.081286-7.127335-6.897091-16.553018-10.20749-25.888649-10.023294-9.332562-0.184195-18.737779 3.126204-25.863067 10.023294-2.252299 2.114153-4.137231 4.600789-5.654796 7.081286l-129.780938 125.621194c-13.818741 13.33574-13.818741 34.944918 0 48.372756 13.816694 13.331646 36.231215 13.331646 50.049956 0l111.249868-107.689782 224.342712 217.030159c13.818741 13.33574 36.209726 13.33574 50.027443 0C754.596978 540.337296 754.596978 518.631926 740.77926 505.299256z"  horiz-adv-x="1024" />

    
    <glyph glyph-name="ceoyouxiangmb" unicode="&#58885;" d="M931.328 629.76l0-471.04c0-4.608-0.512-9.216-1.536-13.824 0 0 0 0 0 0 0-0.512 0-0.512 0-1.024-6.656-32.256-34.816-54.784-67.584-54.784l-686.08 0c-24.064 0-47.104 10.24-62.976 28.16-0.512 0.512-1.024 1.024-1.536 1.536-1.024 1.536-2.048 2.56-3.072 4.096-10.24 13.312-15.36 30.208-15.36 47.104l0 447.488c0 26.624 17.408 50.176 42.496 57.856 0 0 0.512 0 0.512 0 0 0 0 0 0 0 9.728 3.072 19.968 4.096 30.208 4.096 241.152 0 482.304 0 722.944 0 1.024-0.512 2.048-1.024 3.584-1.024 20.992-3.584 33.28-15.872 36.864-36.352 0 0 0 0 0 0C930.816 637.44 931.328 633.856 931.328 629.76zM512 325.632c122.88 103.424 245.248 206.848 369.152 311.296-54.272 3.072-727.04 1.536-734.72-2.048C268.288 531.968 390.144 429.056 512 325.632zM621.568 362.496c-31.232-26.624-62.464-52.736-93.184-78.848-11.264-9.728-20.992-9.728-32.256 0-13.312 11.264-26.112 22.528-39.424 33.28-17.408 14.848-34.816 29.184-52.224 44.032-81.92-76.288-163.328-152.064-245.248-227.84 0.512-0.512 0.512-1.024 1.024-2.048 238.08 0 475.648 0 714.752 0C790.016 208.896 706.048 285.696 621.568 362.496zM372.224 388.608c-79.36 67.072-157.696 133.12-237.056 200.704 0-140.8 0-279.552 0-420.352C214.528 242.688 292.864 315.392 372.224 388.608zM653.824 390.144c78.336-71.68 156.16-142.336 235.008-214.016 0 138.24 0 274.432 0 412.16C810.496 521.728 732.672 456.192 653.824 390.144zM512 325.632c122.88 103.424 245.248 206.848 369.152 311.296-54.272 3.072-727.04 1.536-734.72-2.048C268.288 531.968 390.144 429.056 512 325.632z"  horiz-adv-x="1024" />

    
    <glyph glyph-name="yonghuming" unicode="&#58886;" d="M388.401619 345.512377c-7.982012 5.966042-14.843472 11.870684-22.41615 16.639424C263.69292 426.550262 211.241893 544.187718 234.09296 658.417469c23.270634 116.332704 115.698236 209.47664 234.113426 227.594783 177.374626 27.133723 311.610573-93.26162 334.30814-244.710058 21.930065-146.347114-89.009664-296.178684-238.549583-318.108749-44.351332-6.503293-90.759566-3.412822-133.667996-14.556938-182.117783-47.293419-279.60066-173.567821-317.453815-352.139749-4.042173-19.069845-4.103573-39.127207-9.522131-57.700735-2.394604-8.207145-13.574537-13.84572-20.76858-20.650897-5.894409 9.148613-17.831609 19.044261-16.803158 27.328157 24.314436 195.840704 110.576445 348.404577 302.175426 425.84544 4.72269 1.908519 9.41468 3.944956 13.948054 6.252576C383.233778 338.267166 384.021746 340.088702 388.401619 345.512377zM517.352041 359.767431c137.167801 0.332584 247.75448 110.351312 247.386079 246.101794-0.363284 134.18478-111.40023 243.860691-246.946045 243.922091C379.391156 849.847599 270.421346 742.110908 270.252496 605.055674 270.088762 468.205107 379.662339 359.429731 517.352041 359.767431zM958.317254-91.441363c-9.348164-11.865567-15.416539-27.374207-24.396302-29.303193-17.273892-3.709589-20.164813 11.747884-21.704932 26.652756-9.547714 92.494119-31.810363 180.751631-91.21495 255.342507-12.070234 15.160706-26.304822 28.878509-41.010143 41.567861-11.266917 9.721681-22.165432 18.854944-10.038915 33.355599 11.6609 13.948054 24.897736 6.702843 35.806486-2.532754 48.398621-40.96921 85.458692-91.051217 105.490471-150.849788C929.986229 26.86126 942.332764-31.218108 958.317254-91.441363z"  horiz-adv-x="1024" />

    
    <glyph glyph-name="icon_msg" unicode="&#58884;" d="M715.648 485.83c0 33.728-27.36 61.088-61.088 61.088-33.728 0-61.088-27.36-61.088-61.088 0-33.728 27.36-61.088 61.088-61.088 33.728 0 61.088 27.36 61.088 61.088M693.984 302.566h-363.936c-14.912 0-25.408-14.144-20.416-27.456 29.568-78.944 108.992-135.456 202.368-135.456 93.408 0 172.832 56.512 202.4 135.456 4.992 13.312-5.504 27.456-20.416 27.456M308.384 485.83c0-33.728 27.36-61.088 61.088-61.088 33.728 0 61.088 27.36 61.088 61.088 0 33.728-27.36 61.088-61.088 61.088-33.728 0-61.088-27.36-61.088-61.088M960 384.006c0-247.424-200.576-448-448-448-83.36 0-161.152 23.168-227.968 62.848l-184.8-52.768c-15.36-4.384-29.568 9.792-25.152 25.152l52.768 184.768c-39.648 66.848-62.848 144.64-62.848 228 0 247.424 200.608 448 448 448 247.424 0 448-200.576 448-448z"  horiz-adv-x="1024" />

    
    <glyph glyph-name="dingdan1" unicode="&#58902;" d="M758.722706 701.984215c27.265994 0 49.344848 21.36561 49.344848 47.698349L808.067554 845.081307c0 26.349111-22.078855 47.713698-49.344848 47.713698-27.267017 0-49.346895-21.364587-49.346895-47.713698l0-95.398744C709.377858 723.349825 731.457736 701.984215 758.722706 701.984215zM265.275247 701.984215c27.267017 0 49.345871 21.36561 49.345871 47.698349L314.621119 845.081307c0 26.349111-22.078855 47.713698-49.345871 47.713698-27.265994 0-49.343825-21.364587-49.343825-47.713698l0-95.398744C215.932446 723.349825 238.0113 701.984215 265.275247 701.984215zM939.642219 797.382958l-82.229816 0 0-47.698349c0-52.667523-44.188408-95.398744-98.688673-95.398744s-98.686626 42.73122-98.686626 95.398744L660.037103 797.382958l-49.344848 0-3.291976 0c0 1.11745-40.900525 0-95.40079 0s-95.39772-0.496304-95.39772 0l-3.294023 0-49.344848 0 0-47.698349c0-52.667523-44.155662-95.398744-98.68765-95.398744-54.499242 0-98.688673 42.73122-98.688673 95.398744L166.586574 797.382958 84.356758 797.382958c-27.265994 0-49.345871-21.366633-49.345871-47.698349l0-826.77922c0-26.333762 22.079878-47.699372 49.345871-47.699372l855.287507 0c27.265994 0 49.344848 21.36561 49.344848 47.699372L988.989113 749.68461C988.987067 776.016325 966.907189 797.382958 939.642219 797.382958zM725.817272 34.205289 298.180681 34.205289c-19.682271 0-35.643802 15.96153-35.643802 35.633568 0 19.684318 15.96153 35.645848 35.643802 35.645848l427.635567 0c19.684318 0 35.645848-15.96153 35.645848-35.645848C761.46312 50.166819 745.50159 34.205289 725.817272 34.205289zM725.817272 218.400405 298.180681 218.400405c-19.682271 0-35.643802 15.96153-35.643802 35.633568 0 19.684318 15.96153 35.645848 35.643802 35.645848l427.635567 0c19.684318 0 35.645848-15.96153 35.645848-35.645848C761.46312 234.361935 745.50159 218.400405 725.817272 218.400405zM725.817272 402.59552 298.180681 402.59552c-19.682271 0-35.643802 15.962553-35.643802 35.634592 0 19.683295 15.96153 35.643802 35.643802 35.643802l427.635567 0c19.684318 0 35.645848-15.960507 35.645848-35.643802C761.46312 418.55705 745.50159 402.59552 725.817272 402.59552z"  horiz-adv-x="1024" />

    
    <glyph glyph-name="iddenglu" unicode="&#58890;" d="M316.3136 548.1216l43.4304 0 0-328.2304-43.4304 0 0 328.2304ZM655.9744 519.9104c-13.2864 11.3408-29.3376 19.1744-48.1408 23.5008-13.4272 3.136-32.9088 4.7104-58.432 4.7104l-113.0752 0 0-328.2304 118.4384 0c19.8528 0 37.4272 1.856 52.736 5.5936 15.296 3.7376 28.352 9.216 39.1808 16.4608 10.816 7.2448 20.7872 17.1776 29.888 29.7856 9.1008 12.608 16.5632 28.544 22.4 47.7952 5.824 19.264 8.7296 41.344 8.7296 66.2784 0 29.248-4.288 55.2704-12.864 78.0288C686.2336 486.5792 673.28 505.28 655.9744 519.9104zM654.2848 323.2128c-5.7472-17.3824-13.76-31.232-24.064-41.536-7.3216-7.3088-17.1264-12.992-29.44-17.024-12.3136-4.032-29.2992-6.0416-50.944-6.0416l-70.08 0L479.7568 509.3888l68.9664 0c25.8304 0 44.544-2.24 56.2048-6.72 16.1152-6.272 29.8112-18.624 41.088-37.056 11.264-18.4448 16.9088-44.8256 16.9088-79.1424C662.912 361.6896 660.032 340.5952 654.2848 323.2128zM512 844.8C257.5104 844.8 51.2 638.4896 51.2 384c0-254.4896 206.3104-460.8 460.8-460.8s460.8 206.3104 460.8 460.8C972.8 638.4896 766.4896 844.8 512 844.8zM512-55.8592C269.4656-55.8592 72.1408 141.4656 72.1408 384 72.1408 626.5344 269.4656 823.8592 512 823.8592S951.8592 626.5344 951.8592 384C951.8592 141.4656 754.5344-55.8592 512-55.8592z"  horiz-adv-x="1024" />

    
    <glyph glyph-name="zhuce" unicode="&#58882;" d="M925.125 556.949c-22.423 53.305-54.693 101.234-95.897 142.427-41.122 41.030-88.997 73.289-142.348 95.942-55.363 23.306-114.003 35.129-174.312 35.129-60.552 0-119.169-11.822-174.291-35.128-53.291-22.49-101.183-54.749-142.347-95.942-41.062-41.049-73.33-88.917-95.996-142.302-23.317-55.34-35.161-114.016-35.161-174.342 0-60.567 11.819-119.201 35.161-174.319 22.442-53.3 54.693-101.235 95.894-142.404 41.122-41.030 89.019-73.289 142.347-95.942 55.364-23.306 114.004-35.128 174.313-35.128 73.208 0 145.784 18.050 210.429 52.508 2.236 1.263 55.568 31.038 106.311 38.832 11.498 1.793 19.393 12.582 17.622 24.036-1.732 11.254-12.555 19.499-24.030 17.646-59.065-9.075-118.136-42.456-120.515-43.798-58.092-30.73-123.691-44.449-189.695-44.449-54.855 0-107.979 10.686-157.87 31.812-48.206 20.334-91.562 49.602-128.861 86.925-37.215 37.225-64.060 78.054-84.51 126.388-21.137 50.007-31.821 109.842-31.821 157.894 0 54.851 10.701 107.993 31.821 157.935 20.389 48.28 47.234 91.629 84.51 128.896 37.177 37.225 80.534 66.469 128.861 86.9 49.625 21.005 102.283 29.207 156.443 29.207h1.487c54.794 0 107.898-8.241 157.873-29.37 48.224-20.371 88.924-49.616 126.241-86.902 37.215-37.247 66.451-80.616 86.901-128.932 21.119-50.030 31.821-103.13 31.821-157.897 0-45.302-7.466-89.873-22.177-132.515-14.222-41.11-32.28-79.518-58.853-114.097-7.078-9.218-5.326-22.527 3.908-29.631 8.932-6.9 22.689-5.026 29.586 3.925 29.442 38.348 52.272 80.761 67.857 126.063 16.235 46.975 24.455 96.186 24.455 146.336 0.023 60.528-11.82 119.185-35.157 174.298v0zM363.191 266.403c-9.924-12.548-20.166-9.333-29.86-1.665v0c-9.695 7.668-15.183 16.894-5.258 29.442l254.467 321.728c9.919 12.541 21.319 10.789 31.012 3.121v0c9.695-7.668 14.025-18.356 4.106-30.898l-254.467-321.728zM439.923 175.676c-9.924-12.548-20.166-9.333-29.86-1.665v0c-9.695 7.668-15.183 16.894-5.258 29.442l269.080 340.205c9.919 12.541 21.319 10.789 31.012 3.121v0c9.695-7.668 14.025-18.356 4.106-30.898l-269.080-340.205zM340.012 141.652c-15.348-4.516-21.596 3.146-24.766 13.921v0c-3.171 10.776-2.067 20.6 13.28 25.116l83.126 24.459c15.339 4.514 23.377-2.621 26.548-13.397v0c3.171-10.776 0.278-21.127-15.062-25.64l-83.126-24.459zM353.517 164.722c0.853-17.886-8.045-22.605-19.266-23.14v0c-11.221-0.535-20.528 3.314-21.381 21.201l-2.395 42.273c-0.852 17.877 7.946 24.681 19.167 25.216v0c11.221 0.535 20.627-5.4 21.48-23.277l2.395-42.273zM613.522 619.005l91.344-72.255-23.834-30.13-91.344 72.255 23.834 30.13z"  horiz-adv-x="1024" />

    
    <glyph glyph-name="youhuijuan" unicode="&#58901;" d="M11.947 725.333C3.413 715.093 0 696.32 0 670.72v-151.893c0-10.24 1.707-17.067 6.827-22.187 3.413-3.413 10.24-6.827 20.48-10.24 11.946-1.707 23.893-8.533 34.133-22.187 10.24-11.946 15.36-29.013 15.36-51.2 0-13.653-1.707-27.306-6.827-35.84-1.706-10.24-8.533-17.066-13.653-23.893-6.827-6.827-11.947-10.24-18.773-13.653-6.827-3.414-10.24-5.12-13.654-5.12-10.24-1.707-15.36-5.12-18.773-10.24C1.707 319.147 0 310.613 0 300.373v-206.506c0-27.307 5.12-44.374 13.653-54.614 10.24-10.24 25.6-13.653 49.494-13.653H230.4V742.4H64.853c-27.306 0-44.373-5.12-52.906-17.067z m989.866-377.173c6.827 3.413 11.947 10.24 15.36 17.067 3.414 6.826 5.12 15.36 5.12 23.893 0 8.533-3.413 17.067-6.826 23.893-5.12 6.827-10.24 13.654-18.774 17.067-10.24 3.413-17.066 10.24-22.186 18.773-5.12 8.534-6.827 17.067-6.827 25.6s3.413 17.067 8.533 25.6 13.654 13.654 23.894 17.067c8.533 3.413 15.36 8.533 18.773 15.36 3.413 6.827 5.12 15.36 5.12 23.893 0 8.534-3.413 15.36-8.533 23.894-5.12 8.533-11.947 13.653-18.774 17.066-10.24 3.414-17.066 10.24-22.186 17.067-5.12 8.533-6.827 15.36-5.12 23.893 1.706 8.534 3.413 15.36 8.533 22.187s11.947 11.947 18.773 13.653c8.534 3.414 13.654 8.534 17.067 15.36 3.413 6.827 5.12 15.36 5.12 22.187 0 8.533-3.413 15.36-6.827 20.48-3.413 6.827-10.24 8.533-17.066 8.533H305.493v-716.8H988.16c6.827 0 11.947 3.414 17.067 8.534 3.413 6.826 6.826 13.653 6.826 20.48 0 6.826 0 15.36-3.413 23.893-3.413 8.533-8.533 13.653-15.36 17.067-10.24 5.12-17.067 13.653-22.187 22.186-5.12 8.534-6.826 17.067-6.826 25.6s3.413 17.067 8.533 23.894c5.12 8.533 13.653 13.653 23.893 15.36 8.534 3.413 13.654 8.533 17.067 15.36 3.413 6.826 5.12 15.36 5.12 23.893 0 8.533-3.413 17.067-8.533 25.6s-10.24 13.653-18.774 17.067c-17.066 10.24-25.6 22.186-23.893 39.253 0 20.48 11.947 34.133 34.133 46.08z m-179.2-88.747c0-23.893-17.066-42.666-37.546-42.666h-240.64c-20.48 0-37.547 18.773-37.547 42.666s17.067 42.667 37.547 42.667h240.64c20.48 0 37.546-18.773 37.546-42.667z m0 228.694c0-23.894-17.066-42.667-37.546-42.667h-240.64c-20.48 0-37.547 18.773-37.547 42.667s17.067 42.666 37.547 42.666h240.64c20.48 0 37.546-18.773 37.546-42.666z"  horiz-adv-x="1024" />

    
    <glyph glyph-name="zhifubaozhifu" unicode="&#58896;" d="M588.8 224s-76.8-64-102.4-76.8c-25.6-12.8-44.8-25.6-70.4-32-19.2-6.4-38.4-12.8-51.2-12.8s-25.6 0-38.4-6.4H307.2c-25.6 0-51.2 0-76.8 6.4l-57.6 38.4c-19.2 12.8-32 25.6-38.4 44.8-12.8 19.2-12.8 38.4-12.8 64 0 19.2 6.4 38.4 19.2 57.6 12.8 19.2 25.6 32 44.8 44.8s38.4 19.2 57.6 25.6c12.8 6.4 38.4 6.4 57.6 6.4 19.2 0 44.8 0 64-6.4 19.2-6.4 38.4-6.4 51.2-12.8 19.2-6.4 32-12.8 51.2-19.2 19.2-6.4 32-12.8 44.8-19.2 6.4-6.4 12.8-6.4 19.2-6.4 6.4 0 12.8-6.4 19.2-6.4 19.2 12.8 25.6 32 38.4 51.2 6.4 19.2 19.2 32 25.6 44.8 6.4 12.8 6.4 25.6 12.8 38.4 6.4 6.4 6.4 19.2 6.4 19.2H320v32h147.2V582.4H262.4v32h204.8v64c0 6.4 0 6.4 6.4 12.8 6.4 0 12.8 6.4 19.2 6.4H576v-83.2h211.2v-32H569.6v-76.8h166.4c-6.4-19.2-6.4-44.8-19.2-70.4-6.4-19.2-19.2-44.8-32-70.4-12.8-25.6-32-51.2-51.2-83.2 0 0 166.4-76.8 339.2-108.8 32 64 44.8 134.4 44.8 211.2 0 281.6-230.4 512-512 512C230.4 896 0 665.6 0 384s230.4-512 512-512c172.8 0 332.8 89.6 422.4 224-96 19.2-192 57.6-345.6 128z m-403.2 25.6c0-89.6 96-96 115.2-96 51.2 0 89.6 19.2 121.6 38.4 32 12.8 83.2 64 83.2 64l6.4 6.4c-12.8 6.4-25.6 19.2-38.4 25.6-12.8 6.4-83.2 38.4-140.8 44.8-115.2 12.8-147.2-57.6-147.2-83.2z"  horiz-adv-x="1024" />

    
    <glyph glyph-name="zhanghaoxinxi" unicode="&#59001;" d="M904.9 832.1H118.7C88.6 832.1 64 806.6 64 775.6v-782.7c0-31 24.6-56.5 54.7-56.5h786.2c30.1 0 54.7 25.4 54.7 56.5V775.6c0 31-24.6 56.5-54.7 56.5zM207.1 536.4c0 49.9 39.2 90.4 87.6 90.4 48.4 0 87.6-40.5 87.6-90.4 0-44.9-31.8-82.2-73.4-89.2 56.6-8.5 100.4-67.2 100.4-138.3H180.1c0 71.1 43.8 129.8 100.4 138.3-41.6 7-73.4 44.3-73.4 89.2z m590-433.5H226.6c-25.7 0-46.5 21.5-46.5 48s20.8 48 46.5 48h570.5c25.7 0 46.5-21.5 46.5-48s-20.9-48-46.5-48z m0 206H559.9c-25.7 0-46.5 21.5-46.5 48s20.8 48 46.5 48h237.2c25.7 0 46.5-21.5 46.5-48s-20.9-48-46.5-48z m0 221.9H559.9c-25.7 0-46.5 21.5-46.5 48s20.8 48 46.5 48h237.2c25.7 0 46.5-21.5 46.5-48s-20.9-48-46.5-48z"  horiz-adv-x="1024" />

    
    <glyph glyph-name="youxi1" unicode="&#58965;" d="M637.16352 582.6304c-8.3712 0-22.32832-8.37632-36.28544-13.95712-25.11872-11.16672-53.03296-25.12384-83.7376-25.12384-27.91424 0-58.61888 13.95712-83.7376 25.12384-16.74752 5.5808-33.49504 13.95712-39.08096 13.95712-92.11392 0-164.69504-189.80864-164.69504-315.4176 0-27.91424 2.79552-53.03808 11.17184-66.9952 8.3712-16.74752 16.74752-19.53792 22.32832-19.53792 36.29056 0 80.95232 16.74752 147.9424 53.03808 33.49504 19.5328 66.99008 27.90912 106.07104 27.90912h2.78528c36.29056 0 67.00032-8.37632 100.49536-27.90912 66.99008-39.08608 108.86656-53.03808 147.9424-53.03808 5.5808 0 16.74752 2.79552 22.3232 19.53792 8.37632 16.74752 11.17184 39.08096 11.17184 66.9952-0.00512 125.60896-75.37152 315.4176-164.69504 315.4176z m-161.8944-214.93248h-36.28544v-39.08608c-2.7904-11.1616-11.16672-19.5328-22.32832-19.5328-11.16672 0-22.33344 8.37632-22.33344 22.32832v36.29056h-36.28544c-11.16672 0-22.33344 8.3712-22.33344 22.3232 0 13.95712 8.37632 19.53792 22.33344 19.53792h36.28544v36.28544c0 11.16672 8.37632 22.33344 22.33344 22.33344 13.952 0 22.32832-8.3712 22.32832-22.33344v-36.28544h36.28544c11.16672 0 22.32832-8.3712 22.32832-22.32832 0-13.952-11.1616-19.5328-22.32832-19.5328z m153.5232-22.33344a41.87136 41.87136 0 1 0 0 83.74272 41.87136 41.87136 0 0 0 0-83.74272zM514.33984 888.96c-280.17664 0-507.30496-227.12832-507.30496-507.30496s227.12832-507.30496 507.30496-507.30496c280.18176 0 507.31008 227.12832 507.31008 507.30496S794.5216 888.96 514.33984 888.96z m315.42272-708.28544c-13.95712-25.11872-36.28032-41.87136-64.19456-41.87136-44.66176 0-94.90432 16.74752-167.48032 58.61888-27.91424 16.74752-55.82848 22.32832-83.74272 22.32832-30.70464 0-58.61888-5.58592-86.528-22.32832-72.576-41.87136-122.81856-58.61888-167.48032-58.61888-25.12384 0-47.45216 13.95712-61.40928 41.87136-11.16672 22.32832-13.95712 50.24256-13.95712 86.53312 0 142.35648 83.74272 357.28896 206.56128 357.28896 16.74752 0 33.49504-8.37632 55.82336-16.74752 22.33344-8.37632 44.66688-19.53792 66.99008-19.53792 19.53792 0 44.66176 11.16672 66.98496 19.53792 19.54304 8.3712 39.08608 16.74752 55.82848 16.74752 125.61408 0 206.56128-214.93248 206.56128-357.28896 0.00512-36.28544-5.57568-64.2048-13.95712-86.53312z"  horiz-adv-x="1024" />

    
    <glyph glyph-name="denglu" unicode="&#58944;" d="M512 802.702c56.547 0 111.389-11.037 162.93-32.882 49.835-21.049 94.663-51.314 133.12-89.771 38.457-38.457 68.608-83.285 89.771-133.12 21.845-51.541 32.882-106.382 32.882-162.93s-11.037-111.389-32.882-162.93c-21.049-49.835-51.314-94.663-89.771-133.12s-83.285-68.608-133.12-89.771c-51.541-21.845-106.382-32.882-162.93-32.882s-111.389 11.037-162.93 32.882c-49.835 21.049-94.663 51.314-133.12 89.771-38.457 38.457-68.608 83.285-89.771 133.12-21.845 51.541-32.882 106.382-32.882 162.93s11.037 111.389 32.882 162.93c21.049 49.835 51.314 94.663 89.771 133.12 38.457 38.457 83.285 68.608 133.12 89.771 51.541 21.845 106.382 32.882 162.93 32.882M512 839.111c-251.335 0-455.111-203.776-455.111-455.111s203.776-455.111 455.111-455.111 455.111 203.776 455.111 455.111-203.776 455.111-455.111 455.111zM319.488 156.445c-5.803 0-11.491 2.845-14.791 8.192-5.12 8.192-2.731 19.001 5.461 24.121 3.072 1.934 74.752 46.763 131.641 49.607h0.227v9.899c-65.877 27.307-109.227 96.029-109.227 175.331 0 103.651 79.872 188.075 177.949 188.075s177.949-84.309 177.949-188.075c0-79.189-41.415-146.091-106.723-174.194v-11.15c57.344-5.12 128.455-47.331 131.527-49.152 8.306-5.006 11.037-15.701 6.030-24.007-5.006-8.306-15.701-11.037-24.007-6.030-0.683 0.455-69.063 40.96-117.191 44.487h-13.881c-9.671 0-17.522 7.851-17.522 17.522v40.391c0 7.509 4.779 14.109 11.833 16.498 57.685 19.797 94.891 77.027 94.891 145.635 0 84.423-64.171 153.031-143.019 153.031-78.848 0-142.905-68.608-142.905-153.031 0-68.722 39.026-127.659 97.053-146.432 7.168-2.275 12.061-9.102 12.061-16.611v-39.595c0-9.671-7.851-17.522-17.522-17.522h-16.725c-46.99-2.389-113.095-43.805-113.778-44.146-2.958-1.934-6.144-2.845-9.33-2.845z"  horiz-adv-x="1024" />

    
    <glyph glyph-name="jibenziliao" unicode="&#58926;" d="M676.352 594.944l197.184 3.136-259.008 270.4v-211.392c0-62.848 61.824-62.144 61.824-62.144zM570.432 871.232h-333.44c-47.552 0-86.528-38.912-86.528-86.528v-801.408c0-47.552 38.912-86.528 86.528-86.528h550.08c47.552 0 86.528 38.912 86.528 86.528V558.848c-328.256 0-303.168-37.312-303.168 312.384z m-29.76-748.224H306.56c-18.496 0-33.6 15.104-33.6 33.6s15.104 33.6 33.6 33.6h234.112c18.496 0 33.6-15.104 33.6-33.6s-15.104-33.6-33.6-33.6zM717.44 257.344H306.56c-18.496 0-33.6 15.104-33.6 33.6s15.104 33.664 33.6 33.664h410.944c18.496 0 33.6-15.104 33.6-33.6s-15.168-33.664-33.664-33.664z m33.664 175.808c0-18.496-15.104-33.6-33.6-33.6H306.56c-18.496 0-33.6 15.104-33.6 33.6s15.104 33.664 33.6 33.664h410.944c18.432 0 33.6-15.168 33.6-33.664z"  horiz-adv-x="1024" />

    
    <glyph glyph-name="weixinzhifu" unicode="&#58892;" d="M390.382022 251.20008199999995c-61.291946-37.023203-70.382769 20.775774-70.382769 20.775774l-76.811198 194.149947c-29.559398 92.262185 25.577185 41.597058 25.577185 41.597059s47.30869-38.763998 83.216872-62.38421c35.885427-23.631589 76.788443-6.940428 76.788443-6.940429l502.179806 251.072837C838.289955 814.353257 685.247823 896 511.97605 896 229.204799 896 0 678.707707 0 410.647888c0-154.202662 75.889601-291.418342 194.115814-380.358224l-21.321906-132.755601s-10.399265-38.752621 25.622696-20.775774c24.541809 12.24246 87.108063 56.183336 124.358821 82.886918A535.232173 535.232173 0 0 1 511.998805-74.71560199999999c282.748496 0 511.998805 217.292293 511.998806 485.352112 0 77.641774-19.319422 150.971381-53.53232 216.063496-160.005316-104.265712-532.137425-346.589058-580.083269-375.499924z"  horiz-adv-x="1024" />

    
    <glyph glyph-name="zhanghuanquan" unicode="&#58957;" d="M620.2190324622222 488.1366016l-135.7581471288889-134.3742725688889-67.39471701333332 66.70277973333333c-8.303250773333334 8.303250773333334-21.86522624 8.303250773333334-30.306864924444444 0-8.303250773333334-8.303250773333334-8.303250773333334-21.726839466666668 0-29.891702328888886l78.60410595555555-77.77377962666668c0.9687131022222223-1.522262471111111 2.075812977777778-3.044524942222222 3.4596875377777776-4.4284006399999996 4.290012728888889-4.290012728888889 9.963901155555556-6.365825706666667 15.637788444444444-6.227437795555556 5.673888426666666-0.13838791111111112 11.347775715555553 1.9374250666666666 15.637788444444444 6.227437795555556 1.38387456 1.2454877866666667 2.4909755733333334 2.9061381688888885 3.4596886755555554 4.4284006399999996l146.96753493333333 145.4452724622222c8.303250773333334 8.303250773333334 8.303250773333334 21.726839466666668 0 29.891702328888886-8.441637546666666 8.303250773333334-22.00361415111111 8.303250773333334-30.306864924444444 0zM512 850.4351015822222C253.90729443555557 850.4351015822222 44.665379271111135 641.1931864177777 44.665379271111135 383.10048085333335s209.24191516444446-467.33462072888886 467.33462072888886-467.33461959111105 467.33462072888886 209.24191516444446 467.33462072888886 467.33461959111105S770.0927055644444 850.4351015822222 512 850.4351015822222z m228.06261646222222-380.28887722666667c0-320.5054725688889-213.67031466666666-361.74495061333334-222.66550385777776-363.40559985777776-2.075812977777778-0.2767746844444445-4.151624817777778-0.5535505066666667-6.227437795555556-0.5535505066666667s-4.151624817777778 0.13838791111111112-6.227437795555556 0.5535505066666667c-8.995188053333333 1.6606503822222223-221.00485347555556 42.90012842666667-221.00485347555556 363.40559985777776V556.9151931733334c0 9.687125333333334 4.013238044444445 18.820701297777777 11.07100103111111 25.324914915555556 6.504212479999999 6.089049884444444 15.084239075555555 9.410350648888889 23.941039217777774 9.410350648888889h2.352587662222222c0.5535505066666667 0 6.227437795555556-0.41516259555555557 14.945851164444443-0.41516259555555557 14.530688568888888 0 43.592065706666666 0.9687131022222223 70.57762986666667 7.6113123555555555 41.239478044444446 9.963901155555556 83.30928128 54.663066737777775 84.69315583999999 55.49339192888888 5.950663111111111 3.874850133333333 12.731651413333333 5.812275199999999 19.512638577777775 5.812275199999999s13.561975466666667-1.9374250666666666 19.512639715555558-5.812275199999999c11.76293831111111-7.749700266666666 51.89531648-47.05175324444444 86.76896881777776-55.49339192888888 26.985564159999996-6.504212479999999 55.49339192888888-7.611313493333333 70.16246727111111-7.6113123555555555 8.856800142222221 0 14.392300657777778 0.41516259555555557 14.945851164444443 0.41516259555555557h2.352587662222222c8.856800142222221 0 17.43682673777778-3.3213007644444446 23.941039217777774-9.410350648888889 7.057762986666666-6.504212479999999 11.209387804444445-15.637788444444444 11.209387804444445-25.324914915555556l0.13838791111111112-86.76896881777776z"  horiz-adv-x="1024" />

    
    <glyph glyph-name="tuijian" unicode="&#58889;" d="M594.3 358.5l255.2 268.8c19.2 19.6 0.4 50.7-2.8 51.9l0.4 0.4C781.3 755.1 648.9 825.5 518.3 825.5c-244.6 0-443-196.8-443-439.6s198.4-439.6 443-439.6c117.8 0 224.6 45.9 304 120.4 8.4 9.4 27.4 25.6 14 45.9l-242 245.9zM462.9 495.8h-55.4v-54.9h-55.4v54.9h-55.4v54.9h55.4v54.9h55.4v-54.9h55.4v-54.9zM871.3 445.4c-45.9 0-83.1-36.9-83.1-82.4 0-45.5 37.2-82.4 83.1-82.4 45.9 0 83.1 36.9 83.1 82.4 0 45.5-37.2 82.4-83.1 82.4z"  horiz-adv-x="1024" />

    
    <glyph glyph-name="bossdenglu-shoujidenglu" unicode="&#59445;" d="M576 746.666667a21.333333 21.333333 0 1 0 0 42.666666h85.333333a21.333333 21.333333 0 1 0 0-42.666666h-85.333333z m320-746.666667L341.333333 554.666667V704h554.666667v-704z m64 810.666667a21.333333 21.333333 0 0 1-21.333333 21.333333H298.666667a21.333333 21.333333 0 0 1-21.333334-21.333333v-192l-64 64V853.333333a42.666667 42.666667 0 0 0 42.666667 42.666667h725.333333a42.666667 42.666667 0 0 0 42.666667-42.666667v-981.333333l-64 64V810.666667z"  horiz-adv-x="1024" />

    
    <glyph glyph-name="denglu_mima" unicode="&#58911;" d="M801.661005 427.725858v82.95142c0 160.429505-83.316308 290.573227-290.573227 290.573227C302.492933 801.250505 220.51455 671.228412 220.51455 510.677278V427.725858c-22.744744 0-41.35408-18.609336-41.35408-41.47571v-415.000356c0-22.866374 18.609336-41.47571 41.47571-41.47571h581.024825c22.866374 0 41.47571 18.609336 41.47571 41.47571V386.250148c0.12163 22.866374-18.487706 41.47571-41.47571 41.47571z m-497.951776 83.073049c0 114.575128 61.301342 207.500178 207.500178 207.500178 143.401354 0 207.500178-92.92505 207.500178-207.500178V427.725858H303.709229v83.073049z m228.177218-370.970424v-85.627271h-41.475709v85.627271c-35.759116 9.243853-62.274379 41.718969-62.27438 80.397197 0 45.854377 37.218672 82.951419 82.95142 82.951419 45.854377 0 82.951419-37.218672 82.951419-82.951419 0.12163-38.678228-26.272004-71.153344-62.15275-80.397197z m0 0"  horiz-adv-x="1024" />

    
    <glyph glyph-name="youxi" unicode="&#59251;" d="M426.496 685.056c-61.44 56.32-203.776 79.36-284.16-2.048C63.488 603.648 0 412.672 0 232.448c0-217.6 193.536-247.808 298.496-140.8 60.928 61.952 66.56 71.68 106.496 120.832h213.504c39.936-49.152 45.568-58.88 106.496-120.832 105.472-107.008 298.496-76.8 298.496 140.8 0 180.224-63.488 371.2-142.336 450.56-80.384 81.408-222.72 58.368-284.16 2.048-23.552-21.504-85.504-30.208-85.504-30.208S450.56 663.552 426.496 685.056zM341.504 552.448v-58.368h61.952c24.576 0 45.056-17.92 45.056-40.448 0-22.016-19.968-40.448-45.056-40.448H341.504v-58.368c0-23.552-18.944-41.984-42.496-41.984-23.552 0-42.496 18.944-42.496 41.984V413.696H194.048c-24.576 0-45.056 17.92-45.056 40.448 0 22.016 19.968 40.448 45.056 40.448H256V552.448c0 23.552 18.944 41.984 42.496 41.984 23.552 0 43.008-18.944 43.008-41.984z m384-28.16c0 27.648 24.064 50.176 53.248 50.176s53.248-22.528 53.248-50.176-24.064-50.176-53.248-50.176c-29.696 0-53.248 22.528-53.248 50.176z m-107.008-120.832c0 27.648 24.064 50.176 53.248 50.176s53.248-22.528 53.248-50.176-24.064-50.176-53.248-50.176-53.248 22.528-53.248 50.176z"  horiz-adv-x="1024" />

    
    <glyph glyph-name="paiming-2" unicode="&#58897;" d="M633.6 249.60000000000002H403.2v38.4l115.2 134.4c19.2 19.2 32 38.4 38.4 51.2 6.4 12.8 12.8 25.6 12.8 38.4s-6.4 25.6-12.8 38.4c-12.8 12.8-25.6 19.2-44.8 19.2-19.2 0-32-6.4-44.8-19.2s-12.8-25.6-12.8-44.8h-57.6c0 32 6.4 57.6 32 76.8s51.2 32 83.2 32 64-6.4 83.2-25.6 32-44.8 32-70.4c0-19.2-6.4-38.4-19.2-57.6s-25.6-44.8-51.2-76.8L480 300.79999999999995H640v-51.2h-6.4zM198.4 768v-768l320 153.6 320-153.6V768zM640 268.79999999999995H416v44.8l102.4 128c12.8 19.2 25.6 38.4 32 51.2s6.4 25.6 6.4 38.4c0 12.8 0 25.6-6.4 38.4s-12.8 12.8-25.6 12.8-25.6-6.4-32-19.2-12.8-25.6-12.8-44.8H409.6c0 32 6.4 57.6 32 83.2S486.4 640 524.8 640c32 0 64-6.4 83.2-25.6 19.2-19.2 25.6-44.8 25.6-76.8 0-19.2-6.4-44.8-19.2-64-12.8-19.2-32-44.8-57.6-76.8L512 326.4h128v-57.6z"  horiz-adv-x="1024" />

    
    <glyph glyph-name="paiming-1" unicode="&#58898;" d="M627.2 249.60000000000002H396.8v38.4L512 422.4c19.2 19.2 32 38.4 38.4 51.2 6.4 12.8 12.8 25.6 12.8 38.4s-6.4 25.6-12.8 38.4c-12.8 12.8-25.6 19.2-44.8 19.2-19.2 0-32-6.4-44.8-19.2s-12.8-25.6-12.8-44.8h-57.6c0 32 6.4 57.6 32 76.8s51.2 32 83.2 32 64-6.4 83.2-25.6 32-44.8 32-70.4c0-19.2-6.4-38.4-19.2-57.6S576 416 550.4 384L473.6 300.79999999999995h160v-51.2h-6.4zM192 768v-768l320 153.6 320-153.6V768zM563.2 268.79999999999995H492.8V569.6H416v57.6L563.2 640v-371.2z"  horiz-adv-x="1024" />

    
    <glyph glyph-name="paiming-3" unicode="&#58899;" d="M627.2 249.60000000000002H396.8v38.4L512 422.4c19.2 19.2 32 38.4 38.4 51.2 6.4 12.8 12.8 25.6 12.8 38.4s-6.4 25.6-12.8 38.4c-12.8 12.8-25.6 19.2-44.8 19.2-19.2 0-32-6.4-44.8-19.2s-12.8-25.6-12.8-44.8h-57.6c0 32 6.4 57.6 32 76.8s51.2 32 83.2 32 64-6.4 83.2-25.6 32-44.8 32-70.4c0-19.2-6.4-38.4-19.2-57.6S576 416 550.4 384L473.6 300.79999999999995h160v-51.2h-6.4zM192 768v-768l320 153.6 320-153.6V768zM512 480c19.2 0 32 6.4 38.4 12.8 6.4 6.4 12.8 19.2 12.8 38.4 0 12.8-6.4 25.6-12.8 32-12.8 12.8-25.6 19.2-38.4 19.2-12.8 0-25.6-6.4-32-12.8s-19.2-19.2-19.2-32H390.4c0 25.6 12.8 51.2 32 70.4S480 640 512 640c38.4 0 64-12.8 89.6-25.6 19.2-19.2 32-44.8 32-76.8 0-19.2-6.4-32-12.8-44.8-12.8-19.2-25.6-25.6-38.4-38.4 19.2-6.4 32-19.2 44.8-32 6.4-12.8 12.8-32 12.8-51.2 0-32-12.8-57.6-38.4-76.8-19.2-19.2-51.2-32-89.6-32-32 0-64 6.4-89.6 25.6s-38.4 44.8-32 76.8h70.4c0-12.8 6.4-25.6 12.8-32s19.2-12.8 38.4-12.8 32 6.4 38.4 12.8c12.8 12.8 12.8 19.2 12.8 38.4s-6.4 32-12.8 44.8c-6.4 6.4-19.2 12.8-38.4 12.8h-44.8v51.2H512z"  horiz-adv-x="1024" />

    
    <glyph glyph-name="diannaodenglu" unicode="&#59576;" d="M816.655 705.702H207.289v-308.701l117.853-117.853h491.513zM918.417 896H105.583C47.383 896 0.198 848.71 0.198 790.364v-187.703l72.823-72.823V821.06h879.533v-658.627H440.426L730.86-128h110.017c20.05 0 36.306 16.255 36.306 36.306s-16.256 36.306-36.306 36.306h-182.3V90.41h259.84c58.2 0 105.385 47.29 105.385 105.63V790.365C1023.802 848.704 976.617 896 918.417 896z"  horiz-adv-x="1024" />

    
    <glyph glyph-name="xiaoxi" unicode="&#59115;" d="M799.9 214.7c7 0.2 14-1.2 20.7-5.6-24.3 15.6-40.3 42.8-40.3 73.9V456.5c0 127.1-91.9 233.2-214.7 259.3V722c0 32.4-26.2 58.5-58.5 58.5s-58.5-26.2-58.5-58.5v-6.2c-122.8-26.1-214.7-132.1-214.7-259.3V283c0-31.1-16.1-58.3-40.3-73.9 6.8 4.4 13.7 5.9 20.7 5.6-21.5-0.1-38.9-17.4-38.9-39s17.4-39 39-39h585.3c21.6 0 39 17.4 39 39 0.1 21.4-17.3 38.9-38.8 39zM507.2 0c53.9 0 97.6 43.7 97.6 97.6H409.6c0-53.9 43.6-97.6 97.6-97.6z"  horiz-adv-x="1024" />

    
    <glyph glyph-name="xiaofei" unicode="&#58887;" d="M645.688889 383.741414c18.359596 0 33.228283 14.868687 33.228283 33.228283s-14.868687 33.228283-33.228283 33.228283h-100.848485v1.422222l123.086869 128.646465c12.670707 13.317172 12.412121 34.262626-0.775758 46.933333-13.187879 12.670707-34.133333 12.153535-46.80404-1.163636l-105.503031-110.933334-111.70909 111.450505c-13.058586 12.929293-34.00404 12.929293-46.933334-0.129293-12.929293-12.929293-13.575758-34.00404-0.646464-46.933333l122.828282-123.216162v-6.20606h-98.391919c-18.359596 0-33.228283-14.868687-33.228283-33.228283s14.868687-33.228283 33.228283-33.228283H478.383838v-66.456565h-98.391919c-18.359596 0-33.228283-14.868687-33.228283-33.228283s14.868687-33.228283 33.228283-33.228283H478.383838v-98.779798c0-18.359596 14.868687-33.228283 33.228283-33.228283s33.228283 14.868687 33.228283 33.228283V250.828283h100.848485c18.359596 0 33.228283 14.868687 33.228283 33.228283s-14.868687 33.228283-33.228283 33.228282h-100.848485v66.456566h100.848485zM976.161616 407.789899v-23.143434h-65.810101v-1.034344c0-219.79798-178.812121-398.610101-398.610101-398.739394C292.072727-14.99798 113.00202 164.072727 113.00202 383.741414c0 219.79798 178.812121 398.739394 398.739394 398.739394h0.387879V848.808081C255.482828 849.066667 46.545455 640.387879 46.545455 383.741414S255.094949-81.454545 511.741414-81.454545c256.517172 0 465.19596 208.678788 465.19596 465.195959-0.129293 8.016162-0.258586 16.032323-0.775758 24.048485z m-32.711111 251.991919H698.69899c-18.488889 0-33.357576 14.868687-33.357576 33.357576 0 18.359596 14.868687 33.357576 33.357576 33.357576h244.751515c18.359596 0 33.357576-14.99798 33.357576-33.357576 0-18.488889-14.868687-33.357576-33.357576-33.357576zM523.507071 782.480808h-11.377778V848.808081h11.377778c18.359596 0 33.228283-14.868687 33.228283-33.228283 0-18.230303-14.868687-33.09899-33.228283-33.09899z m419.814141-364.088889c-18.230303 0-32.969697-14.739394-32.969697-32.969697v-0.775757H976.161616v0.775757c0 18.230303-14.739394 32.969697-32.840404 32.969697z m0 0"  horiz-adv-x="1024" />

    
    <glyph glyph-name="hongren" unicode="&#58974;" d="M633.2672 16.94208H10.24v37.60128c0 138.9568 310.48704 109.21472 310.48704 244.48 0 12.30336 0.40448 24.3712 0.2304 38.75328-14.84288 16.2304-48.68608 57.984-62.14144 114.98496-13.74208 6.35392-25.11872 20.0448-32.39936 39.15776-10.10688 26.91072-10.8544 64.0512 8.83712 88.13568l-0.17408 1.20832c-3.6352 33.72544-13.46048 123.36128 40.54528 182.09792 31.1296 33.84832 77.73696 60.52864 138.43456 62.14144 60.6976-1.61792 107.30496-28.29824 138.43456-62.14144 54.00064-58.73664 44.18048-148.37248 40.48384-182.09792-0.06144-0.4608-0.11264-0.75264-0.2304-1.20832 19.69152-24.08448 18.944-61.21984 8.83712-88.13568-7.2192-19.11808-18.76992-32.80384-32.51712-39.15776-13.46048-56.94464-47.52896-98.75968-62.37184-114.98496-0.17408-14.32576-0.34304-27.89888-0.34304-40.20224 0-46.8224 101.12512-104.97024 101.12512-104.97024s-12.87168-24.56576-7.2448-81.57696c5.62688-57.01632 33.03424-94.08512 33.03424-94.08512z m-216.68864 256.5888l-31.71328-154.43456 31.71328-34.5088 31.71328 34.5088-31.71328 154.43456z m404.97664 53.38112c-106.14784 0-192.2048-86.05184-192.2048-192.2048s86.05696-192.2048 192.2048-192.2048c106.15296 0 192.2048 86.05184 192.2048 192.2048s-86.05184 192.2048-192.2048 192.2048z m0-326.05696c-56.86784 0-102.96832 48.69632-102.96832 108.75904 0 24.84224 10.58304 55.46496 31.67744 66.92864 0 0 3.77344-41.28256 23.76704-58.55744 2.37568 27.70432-16.1024 118.94784 63.36512 150.59456 0-50.97472-1.01888-86.36416 23.7568-117.12-2.24256 18.83136 4.11648 48.49152 38.85056 58.9568-0.29696-48.62976 24.51456-65.09056 24.51456-100.7872 0.00512-60.08832-46.10048-108.7744-102.9632-108.7744z"  horiz-adv-x="1024" />

    
    <glyph glyph-name="saomadenglu01-copy" unicode="&#58880;" d="M1040.07353231-143.88983905999999L1040.07353231-62.51667254999995 958.70177842-62.51667254999995ZM63.58422391 832.59946797L267.0213814 832.59805536 267.0213814 629.16372446 348.39454789 547.79055796 348.39454789 913.97122186-17.78752997 913.97122186ZM1040.0707071 181.60706748999996L958.69753923 181.60706748999996 958.69895184 262.98023397 673.89145444 262.98023397 673.89145444 222.29223744 755.2632097 140.92048353999996 755.2632097 181.60706748999996 836.6363762 181.60706748999996 836.6363762 100.23390099000005 795.94979227 100.23390099000005 958.69753923-62.513845970000034 958.69753923 18.859320509999975 1040.0707071 18.859320509999975ZM226.33338486 669.85172099L226.33338486 791.91288541 104.27504704 791.91288541ZM429.76912837 913.97122186l81.37175389 0 0-81.3731665-81.37175389 0 0 81.3731665ZM673.89145444 913.97263583L673.89145444 547.79197055l366.18207787 0L1040.07353231 913.97263583 673.89145444 913.97263583zM958.69895184 629.16372446l-203.43291693 0L755.26603491 832.59805536l203.43291693 0L958.69895184 629.16372446zM795.95261884 791.91147143l122.06116305 0 0-122.06116305-122.06116305 0 0 122.06116305ZM714.57803837 303.66823051999995L714.57803837 385.04139839 795.95261884 385.04139839 795.95261884 466.41456489 592.51546135 466.41456489 592.51546135 588.47290271 511.14370747 588.47290271 511.14370747 466.41456489 429.77195357 466.41456489 511.14370747 385.04139839 592.51546135 385.04139839 592.51546135 303.66823051999995ZM511.14370747 669.85172099L592.51546135 669.85172099 592.51546135 832.59946797 511.14370747 832.59946797 511.14370747 751.2248888500001 429.77054098 751.2248888500001 429.77054098 588.47714189 511.14370747 588.47714189ZM958.69895184 466.41597748L877.32578533 466.41597748 877.32578533 385.04139839 795.95403145 385.04139839 795.95403145 303.66823051999995 1040.07353231 303.66823051999995 1040.07353231 385.04139839 958.70177842 385.04139839Z"  horiz-adv-x="1024" />

    
    <glyph glyph-name="xinyu" unicode="&#58914;" d="M418.184533 459.101867a93.866667 93.81546700000001 90 1 1 187.630934 0 93.866667 93.81546700000001 90 1 1-187.630934 0ZM704.413867 459.165867c0 103.765333-88.8832 192.8832-192.413867 192.8832s-192.418133-94.0672-192.418133-197.866667c0-103.7824 88.887467-187.933867 192.418133-187.933867s192.413867 89.117867 192.413867 192.917334zM512 327.684267c-72.541867 0-131.3408 58.833067-131.3408 131.4176s58.798933 131.413333 131.3408 131.413333c72.533333 0 131.3408-58.833067 131.3408-131.4176S584.533333 327.684267 512 327.684267zM323.144533 325.38453300000003l-59.3536-102.801066s48.708267-11.131733 87.133867-22.0672c27.089067-26.350933 55.9104-58.666667 55.9104-58.666667l54.702933 94.865067c-52.087467 12.701867-107.0208 47.7184-138.3936 88.669866zM512 896C229.226667 896 0 666.781867 0 384c0-282.7648 229.226667-512 512-512 282.7648 0 512 229.2352 512 512C1024 666.781867 794.7648 896 512 896z m180.8-723.016533c-40.132267-44.731733-80.098133-89.348267-80.098133-89.348267l-86.050134 146.9184c-4.868267-0.298667-9.698133-0.7168-14.647466-0.7168-4.949333 0-9.787733 0.418133-14.664534 0.7168l-86.045866-146.9184s-39.965867 44.616533-80.098134 89.348267c-60.219733 12.398933-119.5648 24.2816-119.5648 24.2816l93.589334 159.799466c-15.0784 30.216533-23.773867 64.085333-23.773867 100.049067 0 125.5168 103.2192 227.268267 230.562133 227.268267 127.330133 0 230.5664-101.751467 230.5664-227.268267 0-35.950933-8.699733-69.832533-23.7824-100.049067l93.5936-159.799466c-0.0128 0-59.370667-11.899733-119.586133-24.2816zM562.449067 236.71466699999996l54.715733-94.865067s33.783467 37.282133 60.8768 63.616c38.4256 10.935467 82.158933 17.117867 82.167467 17.117867l-64.324267 102.801066c-31.368533-40.951467-81.335467-75.985067-133.435733-88.669866z"  horiz-adv-x="1024" />

    


  </font>
</defs>
</svg>
